<svg width="64" height="64" viewBox="0 0 64 64" fill="none" xmlns="http://www.w3.org/2000/svg">
<rect width="64" height="64" rx="16" fill="white"/>
<path d="M13.0173 37.1622C10.779 37.1622 9.20564 35.9781 8.5244 33.7722L10.5032 32.1989C10.7465 33.756 11.4927 34.9238 12.9849 34.9238C14.1852 34.9238 14.7529 34.3886 14.7529 32.6368V26.1326H17.0723V32.9288C17.0723 35.9781 15.5801 37.1622 13.0173 37.1622ZM23.8517 37.1622C21.4349 37.1622 19.8778 35.4591 19.8778 33.0261C19.8778 30.6093 21.4349 28.89 23.8517 28.89C26.3333 28.89 27.9067 30.6093 27.9067 33.0261C27.9067 35.4591 26.3333 37.1622 23.8517 37.1622ZM23.8841 35.2807C24.8735 35.2807 25.5548 34.6481 25.5548 33.0261C25.5548 31.3879 24.8735 30.7715 23.8841 30.7715C22.9109 30.7715 22.2297 31.3879 22.2297 33.0261C22.2297 34.6481 22.9109 35.2807 23.8841 35.2807ZM33.1584 37H30.8389V26.1326H33.1584V31.323C33.3855 30.0416 34.0343 28.89 35.6887 28.89C37.5378 28.89 38.7543 30.3985 38.7543 33.0261C38.7543 35.67 37.5378 37.1784 35.5914 37.1784C33.937 37.1784 33.3693 36.043 33.1584 34.7616V37ZM33.1584 33.464C33.1584 34.7616 33.6937 35.3618 34.6669 35.3618C35.7212 35.3618 36.3862 34.5508 36.3862 33.0261C36.3862 31.5176 35.7212 30.6904 34.6669 30.6904C33.6937 30.6904 33.1584 31.3068 33.1584 32.6044V33.464ZM44.0165 37H41.6971V26.1326H44.0165V37ZM49.7712 37H47.4518V29.0522H49.7712V31.3554C50.0307 30.0578 50.7931 28.89 52.4313 28.89C53.9398 28.89 54.8643 29.8145 54.8643 31.4528V37H52.5448V32.2638C52.5448 31.2906 52.2853 30.6904 51.231 30.6904C50.1281 30.6904 49.7712 31.3068 49.7712 32.6044V37Z" fill="#0B1015"/>
</svg>
