<svg width="200" height="174" viewBox="0 0 200 174" fill="none" xmlns="http://www.w3.org/2000/svg">
<path d="M15.264 73.2782C15.264 73.2782 12.376 100.572 35.84 122.458C59.304 144.343 95.236 150.882 124.24 156.85C153.244 162.819 177.752 151.69 184.24 130.427C190.728 109.164 169.324 99.5278 160.756 73.0068C152.188 46.4857 154.44 38.4886 130.976 19.5331C107.512 0.577524 66.052 4.0958 41.272 27.1438C16.492 50.1919 15.264 73.2782 15.264 73.2782Z" fill="#7B47D0"/>
<path opacity="0.7" d="M15.264 73.2782C15.264 73.2782 12.376 100.572 35.84 122.458C59.304 144.343 95.236 150.882 124.24 156.85C153.244 162.819 177.752 151.69 184.24 130.427C190.728 109.164 169.324 99.5278 160.756 73.0068C152.188 46.4857 154.44 38.4886 130.976 19.5331C107.512 0.577524 66.052 4.0958 41.272 27.1438C16.492 50.1919 15.264 73.2782 15.264 73.2782Z" fill="white"/>
<path d="M7.636 130.382C8.836 130.306 11.164 129.175 11.168 129.175C11.172 129.175 9.844 128.061 9.748 127.999C8.656 127.303 6.072 126.485 4.832 127.254C4.62982 127.386 4.46201 127.554 4.3395 127.747C4.217 127.939 4.14256 128.152 4.12105 128.372C4.09953 128.591 4.13142 128.812 4.21464 129.02C4.29786 129.228 4.43053 129.418 4.604 129.578C5.312 130.285 6.624 130.445 7.636 130.382Z" fill="#263238"/>
<path d="M12.064 135.967C13.144 135.637 14.932 134.137 15.072 134.015C16.0562 134.908 17.1079 135.743 18.22 136.514C18.864 136.963 19.528 137.401 20.22 137.833C19.876 137.676 19.572 137.537 19.528 137.523C18.26 137.091 15.528 136.907 14.556 137.934C14.3974 138.107 14.283 138.308 14.2205 138.524C14.1579 138.739 14.1487 138.963 14.1933 139.181C14.2379 139.4 14.3354 139.608 14.4793 139.791C14.6232 139.974 14.8103 140.129 15.028 140.244C15.924 140.763 17.24 140.617 18.196 140.321C19.152 140.025 20.724 138.772 21.132 138.435C21.392 138.598 21.648 138.765 21.908 138.925C23.16 139.705 24.416 140.477 25.62 141.267C26.044 141.546 26.448 141.835 26.856 142.12C26.552 141.981 26.296 141.866 26.256 141.852C24.988 141.421 22.256 141.236 21.284 142.263C21.1294 142.437 21.0189 142.638 20.9595 142.852C20.9 143.066 20.8931 143.289 20.9392 143.506C20.9852 143.722 21.0831 143.928 21.2266 144.11C21.3701 144.291 21.5559 144.445 21.772 144.559C22.668 145.075 23.984 144.928 24.94 144.636C25.896 144.344 27.316 143.206 27.8 142.809C28.2 143.112 28.6 143.415 29 143.728C29.252 143.944 29.512 144.138 29.752 144.368L30.476 145.036C30.916 145.471 31.376 145.92 31.792 146.359C32.088 146.661 32.36 146.95 32.636 147.246C32.236 146.964 31.384 146.428 31.312 146.39C30.112 145.798 27.46 145.252 26.328 146.143C26.1447 146.295 26.0002 146.478 25.904 146.682C25.8077 146.885 25.7619 147.104 25.7694 147.324C25.777 147.544 25.8378 147.76 25.9478 147.959C26.0578 148.157 26.2146 148.333 26.408 148.474C27.208 149.101 28.532 149.132 29.528 148.969C30.628 148.784 32.584 147.594 32.828 147.444C33.28 147.932 33.72 148.412 34.124 148.868C35.216 150.093 36.124 151.182 36.824 152.062L37.72 151.652C36.976 150.761 36.008 149.64 34.832 148.381C34.372 147.883 33.868 147.361 33.348 146.828C33.846 146.321 34.3082 145.787 34.732 145.231C35.816 145.579 38.044 145.513 38.332 145.506C38.404 146.132 38.464 146.738 38.512 147.316C38.64 148.816 38.704 150.131 38.74 151.185L39.712 150.736C39.652 149.748 39.56 148.572 39.412 147.256C39.344 146.62 39.256 145.945 39.156 145.249C39.436 145.179 41.736 144.594 42.584 143.961C43.36 143.387 44.16 142.468 44.096 141.525C44.0893 141.305 44.0294 141.088 43.9201 140.889C43.8109 140.691 43.6548 140.514 43.462 140.371C43.2692 140.229 43.044 140.123 42.8011 140.061C42.5582 139.999 42.3029 139.982 42.052 140.011C40.552 140.223 39.364 142.378 39.16 143.547C39.16 143.616 39.112 144.379 39.1 144.859C39.06 144.577 39.02 144.302 38.976 144.01C38.884 143.432 38.776 142.858 38.664 142.242C38.5973 141.947 38.5293 141.648 38.46 141.344C38.4 141.041 38.292 140.731 38.208 140.422C38 139.705 37.744 138.991 37.472 138.275C38.052 138.208 40.108 137.927 40.976 137.471C41.844 137.015 42.792 136.201 42.892 135.271C42.9234 135.053 42.9017 134.831 42.8283 134.62C42.7549 134.409 42.6315 134.214 42.4659 134.048C42.3004 133.881 42.0965 133.746 41.8674 133.653C41.6383 133.559 41.3891 133.508 41.136 133.504C39.616 133.504 38.068 135.491 37.66 136.636C37.636 136.709 37.448 137.547 37.356 138.01C37.188 137.579 37.024 137.151 36.836 136.723C36.3 135.484 35.708 134.245 35.128 133.006L34.604 131.868C34.812 131.844 37.264 131.569 38.236 131.047C39.1 130.58 40.052 129.776 40.148 128.847C40.1855 128.627 40.1687 128.402 40.0985 128.188C40.0284 127.973 39.9066 127.774 39.7412 127.604C39.5759 127.434 39.3707 127.296 39.1395 127.2C38.9082 127.105 38.6561 127.053 38.4 127.048C36.876 127.048 35.328 129.035 34.924 130.163C34.892 130.25 34.628 131.457 34.576 131.767C34.176 130.932 33.82 130.093 33.492 129.258C33.0432 128.129 32.6785 126.976 32.4 125.806C32.496 125.806 35.06 125.517 36.056 124.981C36.916 124.515 37.868 123.711 37.968 122.782C38 122.563 37.9789 122.342 37.906 122.131C37.8331 121.92 37.71 121.725 37.5448 121.558C37.3796 121.391 37.1759 121.257 36.9469 121.163C36.718 121.069 36.469 121.018 36.216 121.014C34.692 121.014 33.144 123.001 32.74 124.128C32.708 124.219 32.42 125.52 32.388 125.757C32.388 125.687 32.348 125.621 32.332 125.552C32.0899 124.371 31.9681 123.174 31.968 121.974C31.968 121.313 31.992 120.68 32.04 120.064C32.524 120.064 34.732 119.994 35.692 119.597C36.652 119.201 37.652 118.508 37.872 117.593C37.9307 117.379 37.9372 117.157 37.8909 116.94C37.8447 116.724 37.7468 116.518 37.6035 116.337C37.4603 116.156 37.2748 116.002 37.0593 115.887C36.8437 115.772 36.6027 115.698 36.352 115.669C34.836 115.536 33.048 117.349 32.5 118.435C32.472 118.494 32.244 119.131 32.1 119.58C32.128 119.305 32.148 119.016 32.18 118.752C32.296 117.753 32.476 116.848 32.64 116.044C32.736 115.588 32.836 115.181 32.932 114.799C33.404 114.572 35.28 113.65 35.908 112.926C36.536 112.202 37.076 111.186 36.78 110.275C36.7192 110.06 36.607 109.858 36.4505 109.684C36.2941 109.51 36.0971 109.366 35.8723 109.262C35.6476 109.159 35.4002 109.098 35.1465 109.083C34.8928 109.069 34.6384 109.101 34.4 109.178C32.984 109.666 32.36 111.994 32.448 113.173C32.448 113.278 32.788 114.861 32.812 114.847H32.84C32.74 115.213 32.636 115.606 32.532 116.041C32.348 116.841 32.132 117.746 32.004 118.745C31.8367 119.819 31.7419 120.901 31.72 121.985C31.6893 123.199 31.783 124.414 32 125.614C32 125.614 32 125.642 32 125.656C31.8 125.308 31.2 124.355 31.144 124.288C30.344 123.321 28.196 121.852 26.744 122.246C26.5049 122.317 26.2859 122.432 26.1009 122.582C25.916 122.732 25.7694 122.914 25.6706 123.116C25.5718 123.319 25.523 123.537 25.5273 123.757C25.5317 123.977 25.5892 124.194 25.696 124.393C26.116 125.252 27.296 125.764 28.292 125.98C29.404 126.22 31.844 125.827 32.04 125.795C32.2936 127.011 32.6411 128.211 33.08 129.387C33.332 130.083 33.608 130.758 33.88 131.44C33.696 131.144 33.528 130.883 33.5 130.848C32.7 129.881 30.552 128.412 29.1 128.806C28.8609 128.877 28.6419 128.992 28.4569 129.142C28.272 129.292 28.1254 129.474 28.0266 129.676C27.9278 129.879 27.879 130.097 27.8833 130.317C27.8877 130.537 27.9452 130.753 28.052 130.953C28.472 131.816 29.652 132.324 30.644 132.54C31.636 132.755 33.736 132.46 34.288 132.373C34.404 132.634 34.512 132.895 34.628 133.156C35.176 134.408 35.732 135.654 36.228 136.89C36.404 137.325 36.56 137.76 36.72 138.195C36.556 137.934 36.412 137.714 36.388 137.683C35.588 136.716 33.436 135.247 31.988 135.64C31.7486 135.711 31.5291 135.826 31.3437 135.976C31.1584 136.125 31.0113 136.307 30.9121 136.51C30.8129 136.712 30.7637 136.931 30.7679 137.151C30.772 137.371 30.8293 137.588 30.936 137.787C31.36 138.647 32.536 139.159 33.532 139.374C34.528 139.59 36.42 139.319 37.076 139.221C37.224 139.67 37.372 140.119 37.476 140.561C37.548 140.864 37.644 141.153 37.7 141.459C37.756 141.765 37.82 142.064 37.88 142.36C37.968 142.938 38.068 143.533 38.14 144.1C38.192 144.493 38.236 144.869 38.28 145.245C38.108 144.81 37.756 143.964 37.716 143.895C37.1472 142.983 36.3214 142.212 35.316 141.654C35.2567 141.55 35.1871 141.451 35.108 141.358C34.9628 141.178 34.7756 141.026 34.5585 140.912C34.3415 140.799 34.0995 140.727 33.8482 140.7C33.597 140.674 33.3421 140.693 33.1002 140.758C32.8582 140.823 32.6347 140.931 32.444 141.076C31.324 141.974 31.704 144.34 32.272 145.416C32.308 145.478 32.76 146.129 33.072 146.536C32.856 146.32 32.672 146.108 32.428 145.889C31.988 145.45 31.532 145.022 31.048 144.563L30.308 143.909C30.068 143.689 29.78 143.481 29.508 143.261C28.88 142.767 28.216 142.291 27.536 141.828C27.976 141.48 29.536 140.279 29.936 139.472C30.336 138.664 30.644 137.544 30.136 136.719C30.0265 136.52 29.8699 136.343 29.6765 136.201C29.4831 136.058 29.2571 135.952 29.0135 135.891C28.7699 135.829 28.5142 135.814 28.263 135.844C28.0118 135.875 27.7709 135.951 27.556 136.068C26.292 136.81 26.252 139.2 26.628 140.338C26.652 140.408 27.028 141.198 27.244 141.626C26.844 141.351 26.444 141.073 25.996 140.805C24.764 140.029 23.484 139.277 22.216 138.525L21.056 137.829C21.216 137.711 23.084 136.305 23.564 135.393C23.988 134.589 24.272 133.465 23.764 132.64C23.6518 132.445 23.4939 132.273 23.3005 132.134C23.107 131.995 22.8823 131.893 22.6407 131.834C22.3992 131.776 22.1462 131.762 21.8981 131.793C21.6499 131.825 21.4121 131.901 21.2 132.018C19.936 132.755 19.896 135.15 20.276 136.284C20.304 136.368 20.848 137.506 21 137.787C20.152 137.272 19.312 136.743 18.504 136.214C17.4122 135.489 16.3754 134.703 15.4 133.862C15.472 133.806 17.436 132.345 17.924 131.426C18.348 130.626 18.636 129.498 18.128 128.673C18.0159 128.476 17.8573 128.301 17.6625 128.161C17.4677 128.02 17.2411 127.917 16.9974 127.857C16.7537 127.798 16.4983 127.784 16.2479 127.816C15.9975 127.848 15.7577 127.925 15.544 128.043C14.28 128.785 14.24 131.175 14.62 132.31C14.648 132.4 15.236 133.622 15.36 133.834L15.184 133.691C14.2318 132.824 13.371 131.884 12.612 130.883C12.184 130.333 11.812 129.79 11.46 129.254C11.86 129.014 13.66 127.901 14.208 127.111C14.756 126.321 15.156 125.263 14.756 124.396C14.6699 124.189 14.5347 124 14.3591 123.841C14.1835 123.683 13.9715 123.558 13.7368 123.475C13.5021 123.392 13.25 123.354 12.997 123.361C12.7439 123.369 12.4955 123.423 12.268 123.519C10.92 124.135 10.58 126.509 10.812 127.675C10.812 127.737 11.032 128.371 11.212 128.826C11.06 128.583 10.896 128.332 10.756 128.096C10.22 127.208 9.792 126.356 9.42 125.621C9.216 125.193 9.02 124.804 8.876 124.438C9.124 124.027 10.104 122.35 10.168 121.452C10.232 120.554 10 119.423 9.2 118.814C9.01389 118.665 8.79375 118.552 8.55389 118.481C8.31404 118.411 8.05984 118.385 7.80782 118.406C7.5558 118.427 7.31161 118.493 7.09111 118.601C6.87061 118.709 6.67875 118.857 6.528 119.034C5.656 120.119 6.612 122.361 7.436 123.304C7.508 123.387 8.788 124.546 8.8 124.525V124.501C8.948 124.849 9.112 125.235 9.296 125.646C9.652 126.401 10.06 127.253 10.572 128.155C11.1168 129.132 11.7272 130.08 12.4 130.994C13.1441 132.022 13.9914 132.989 14.932 133.886L14.968 133.918C14.568 133.723 13.476 133.222 13.368 133.187C12.1 132.755 9.368 132.571 8.4 133.597C8.24535 133.772 8.13457 133.972 8.07489 134.186C8.01521 134.399 8.00797 134.622 8.05363 134.838C8.09929 135.055 8.19684 135.26 8.33991 135.441C8.48298 135.623 8.66837 135.776 8.884 135.891C9.792 136.416 11.104 136.263 12.064 135.967Z" fill="#263238"/>
<path d="M31.84 119.872C31.868 119.872 31.44 118.306 31.4 118.209C30.94 117.095 29.296 115.181 27.772 115.226C27.5198 115.241 27.2738 115.301 27.0501 115.403C26.8263 115.506 26.6296 115.648 26.4728 115.82C26.316 115.993 26.2026 116.192 26.1397 116.405C26.0769 116.618 26.0661 116.84 26.108 117.057C26.256 117.986 27.244 118.752 28.132 119.183C29.172 119.691 31.836 119.872 31.84 119.872Z" fill="#263238"/>
<path d="M191.692 130.382C190.492 130.306 188.164 129.175 188.164 129.175C188.164 129.175 189.488 128.061 189.58 127.999C190.672 127.303 193.26 126.485 194.5 127.254C194.702 127.386 194.869 127.555 194.992 127.747C195.114 127.94 195.188 128.153 195.209 128.373C195.23 128.592 195.198 128.813 195.114 129.02C195.031 129.228 194.898 129.418 194.724 129.578C194 130.285 192.704 130.445 191.692 130.382Z" fill="#263238"/>
<path d="M187.268 135.968C186.188 135.637 184.4 134.137 184.256 134.015C183.273 134.909 182.221 135.744 181.108 136.514C180.464 136.963 179.8 137.401 179.128 137.833C179.468 137.676 179.776 137.537 179.82 137.523C181.088 137.092 183.82 136.907 184.788 137.934C184.942 138.108 185.053 138.309 185.112 138.522C185.172 138.736 185.179 138.959 185.133 139.175C185.087 139.392 184.989 139.597 184.845 139.778C184.702 139.96 184.516 140.112 184.3 140.227C183.404 140.746 182.092 140.599 181.132 140.304C180.172 140.008 178.604 138.755 178.2 138.417L177.42 138.908C176.168 139.688 174.916 140.46 173.712 141.25C173.288 141.529 172.88 141.817 172.472 142.103C172.776 141.964 173.032 141.849 173.076 141.835C174.34 141.403 177.076 141.219 178.044 142.245C178.199 142.42 178.309 142.621 178.369 142.835C178.428 143.049 178.435 143.272 178.389 143.489C178.343 143.705 178.245 143.911 178.101 144.093C177.958 144.274 177.772 144.427 177.556 144.542C176.66 145.057 175.344 144.911 174.388 144.619C173.432 144.326 172.012 143.189 171.528 142.792C171.128 143.095 170.728 143.397 170.328 143.711C170.072 143.926 169.812 144.121 169.572 144.351C169.332 144.581 169.088 144.796 168.852 145.019C168.408 145.454 167.952 145.903 167.532 146.341C167.24 146.644 166.964 146.933 166.688 147.229C167.108 146.947 167.94 146.411 168.016 146.373C169.192 145.781 171.868 145.235 172.996 146.126C173.179 146.277 173.324 146.461 173.42 146.665C173.516 146.868 173.562 147.087 173.555 147.307C173.547 147.527 173.486 147.743 173.376 147.941C173.266 148.14 173.109 148.315 172.916 148.457C172.116 149.084 170.796 149.115 169.796 148.951C168.7 148.767 166.744 147.577 166.5 147.427C166.044 147.914 165.608 148.395 165.2 148.85C164.112 150.075 163.2 151.165 162.5 152.045L161.6 151.634C162.344 150.744 163.316 149.623 164.488 148.363C164.948 147.866 165.452 147.344 165.976 146.811C165.478 146.303 165.014 145.77 164.588 145.214C163.504 145.562 161.276 145.496 160.988 145.489C160.92 146.115 160.856 146.721 160.808 147.298C160.68 148.798 160.616 150.114 160.584 151.168L159.608 150.719C159.668 149.731 159.764 148.555 159.908 147.239C159.98 146.602 160.068 145.927 160.164 145.231C159.884 145.162 157.588 144.577 156.736 143.944C155.964 143.369 155.164 142.451 155.228 141.508C155.234 141.288 155.294 141.071 155.402 140.872C155.511 140.674 155.667 140.497 155.859 140.354C156.052 140.212 156.277 140.106 156.52 140.043C156.762 139.981 157.017 139.964 157.268 139.994C158.772 140.206 159.956 142.36 160.16 143.53C160.16 143.599 160.208 144.361 160.22 144.842C160.264 144.56 160.3 144.285 160.348 143.992C160.436 143.415 160.544 142.841 160.66 142.225C160.724 141.929 160.792 141.629 160.86 141.327C160.928 141.024 161.028 140.714 161.112 140.405C161.324 139.688 161.576 138.974 161.848 138.257C161.268 138.191 159.212 137.909 158.344 137.453C157.476 136.998 156.528 136.183 156.432 135.254C156.4 135.036 156.421 134.814 156.494 134.603C156.567 134.392 156.69 134.197 156.855 134.031C157.02 133.864 157.224 133.729 157.453 133.635C157.682 133.542 157.931 133.491 158.184 133.486C159.708 133.486 161.256 135.473 161.66 136.618C161.688 136.691 161.872 137.53 161.964 137.993C162.132 137.561 162.3 137.133 162.484 136.705C163.024 135.466 163.612 134.228 164.192 132.989C164.372 132.609 164.544 132.23 164.716 131.851C164.512 131.826 162.056 131.551 161.084 131.029C160.224 130.563 159.272 129.759 159.172 128.83C159.14 128.612 159.161 128.39 159.234 128.179C159.307 127.968 159.43 127.773 159.595 127.606C159.76 127.44 159.964 127.305 160.193 127.211C160.422 127.118 160.671 127.067 160.924 127.062C162.448 127.062 163.996 129.049 164.404 130.177C164.432 130.264 164.7 131.471 164.748 131.781C165.148 130.946 165.504 130.107 165.836 129.272C166.286 128.143 166.652 126.99 166.932 125.82C166.836 125.82 164.276 125.531 163.28 124.995C162.416 124.529 161.464 123.725 161.364 122.796C161.333 122.577 161.354 122.355 161.428 122.144C161.501 121.934 161.625 121.739 161.79 121.572C161.956 121.405 162.16 121.271 162.389 121.177C162.618 121.083 162.867 121.033 163.12 121.028C164.644 121.028 166.188 123.015 166.596 124.142C166.628 124.233 166.912 125.534 166.944 125.771C166.944 125.702 166.988 125.635 167 125.566C167.244 124.385 167.366 123.188 167.364 121.988C167.364 121.327 167.34 120.694 167.292 120.078C166.808 120.078 164.6 120.008 163.644 119.612C162.688 119.215 161.68 118.522 161.464 117.607C161.405 117.393 161.398 117.17 161.444 116.954C161.49 116.737 161.587 116.532 161.731 116.35C161.874 116.168 162.06 116.015 162.276 115.9C162.492 115.785 162.733 115.711 162.984 115.683C164.5 115.55 166.288 117.363 166.832 118.449C166.864 118.508 167.088 119.145 167.232 119.594C167.204 119.319 167.184 119.03 167.152 118.766C167.036 117.767 166.86 116.862 166.692 116.058C166.596 115.603 166.496 115.195 166.4 114.813C165.932 114.586 164.056 113.664 163.428 112.94C162.8 112.217 162.26 111.2 162.552 110.289C162.613 110.075 162.725 109.875 162.881 109.702C163.036 109.528 163.232 109.385 163.455 109.282C163.679 109.178 163.924 109.117 164.177 109.101C164.429 109.086 164.682 109.117 164.92 109.192C166.336 109.68 166.96 112.008 166.872 113.187C166.872 113.292 166.532 114.875 166.508 114.861H166.48C166.58 115.227 166.688 115.62 166.792 116.055C166.976 116.855 167.192 117.76 167.32 118.759C167.486 119.833 167.579 120.915 167.6 121.999C167.632 123.213 167.54 124.428 167.324 125.628V125.67C167.524 125.322 168.124 124.369 168.18 124.303C168.98 123.335 171.128 121.867 172.58 122.26C172.819 122.331 173.039 122.445 173.224 122.595C173.41 122.745 173.556 122.927 173.655 123.13C173.754 123.332 173.803 123.551 173.798 123.771C173.793 123.991 173.735 124.208 173.628 124.407C173.208 125.267 172.028 125.778 171.036 125.994C169.924 126.234 167.48 125.841 167.284 125.809C167.03 127.025 166.683 128.225 166.244 129.401C165.992 130.097 165.716 130.772 165.444 131.454C165.628 131.158 165.796 130.897 165.824 130.862C166.624 129.895 168.776 128.426 170.224 128.82C170.463 128.891 170.683 129.005 170.868 129.155C171.054 129.305 171.201 129.487 171.3 129.689C171.399 129.892 171.448 130.11 171.444 130.33C171.44 130.55 171.383 130.767 171.276 130.967C170.852 131.83 169.676 132.338 168.68 132.554C167.684 132.769 165.588 132.474 165.036 132.387L164.7 133.17C164.148 134.422 163.592 135.668 163.1 136.904C162.924 137.339 162.768 137.774 162.612 138.209C162.776 137.948 162.916 137.728 162.94 137.697C163.74 136.73 165.892 135.261 167.34 135.654C167.579 135.726 167.798 135.84 167.983 135.99C168.168 136.14 168.315 136.322 168.413 136.525C168.512 136.727 168.561 136.946 168.557 137.166C168.552 137.385 168.495 137.602 168.388 137.801C167.964 138.661 166.788 139.173 165.792 139.388C164.796 139.604 162.904 139.333 162.248 139.235C162.104 139.684 161.956 140.133 161.848 140.575C161.776 140.878 161.68 141.167 161.628 141.473C161.576 141.779 161.508 142.078 161.448 142.374C161.356 142.952 161.26 143.547 161.188 144.114C161.132 144.507 161.088 144.883 161.044 145.259C161.216 144.824 161.572 143.978 161.608 143.909C162.169 142.986 162.992 142.203 164 141.636C164.056 141.531 164.126 141.432 164.208 141.341C164.353 141.16 164.54 141.009 164.756 140.895C164.973 140.782 165.215 140.71 165.466 140.683C165.717 140.657 165.971 140.676 166.213 140.741C166.454 140.806 166.678 140.914 166.868 141.059C167.988 141.957 167.612 144.323 167.04 145.398C167.004 145.461 166.552 146.112 166.24 146.519C166.456 146.303 166.664 146.091 166.888 145.872C167.328 145.433 167.78 145.005 168.268 144.546L169.004 143.891C169.248 143.672 169.536 143.463 169.804 143.244C170.432 142.75 171.096 142.273 171.78 141.81C171.34 141.462 169.78 140.262 169.38 139.454C168.98 138.647 168.668 137.527 169.176 136.702C169.288 136.504 169.446 136.329 169.641 136.188C169.835 136.047 170.062 135.943 170.306 135.884C170.549 135.824 170.805 135.81 171.055 135.841C171.306 135.873 171.546 135.951 171.76 136.068C173.024 136.81 173.06 139.2 172.684 140.338C172.66 140.408 172.284 141.198 172.068 141.626C172.468 141.351 172.888 141.073 173.316 140.805C174.552 140.029 175.828 139.277 177.1 138.525L178.256 137.829C178.1 137.711 176.228 136.305 175.748 135.393C175.324 134.589 175.04 133.465 175.548 132.641C175.66 132.443 175.818 132.268 176.013 132.127C176.207 131.986 176.434 131.882 176.678 131.823C176.922 131.763 177.178 131.749 177.428 131.782C177.679 131.814 177.918 131.892 178.132 132.011C179.392 132.749 179.432 135.143 179.056 136.277C179.028 136.361 178.484 137.499 178.328 137.781C179.18 137.266 180.02 136.737 180.824 136.208C181.917 135.483 182.953 134.697 183.928 133.855C183.856 133.799 181.896 132.338 181.404 131.419C180.98 130.619 180.696 129.491 181.204 128.666C181.316 128.469 181.474 128.295 181.668 128.154C181.863 128.013 182.089 127.91 182.332 127.851C182.576 127.791 182.831 127.777 183.081 127.809C183.331 127.841 183.571 127.919 183.784 128.037C185.048 128.778 185.088 131.169 184.708 132.303C184.68 132.394 184.096 133.615 183.972 133.827L184.148 133.685C185.098 132.816 185.957 131.877 186.716 130.876C187.144 130.326 187.516 129.784 187.868 129.248C187.468 129.008 185.668 127.894 185.124 127.104C184.58 126.314 184.176 125.256 184.576 124.39C184.662 124.182 184.797 123.993 184.973 123.835C185.148 123.676 185.361 123.551 185.595 123.468C185.83 123.386 186.082 123.347 186.335 123.354C186.588 123.362 186.836 123.416 187.064 123.513C188.412 124.129 188.752 126.502 188.52 127.668C188.52 127.73 188.296 128.364 188.12 128.82C188.272 128.576 188.436 128.325 188.58 128.089C189.116 127.201 189.54 126.349 189.912 125.615C190.12 125.186 190.312 124.797 190.46 124.431C190.208 124.021 189.232 122.343 189.164 121.445C189.096 120.548 189.304 119.424 190.116 118.815C190.302 118.665 190.522 118.552 190.762 118.481C191.002 118.411 191.256 118.385 191.508 118.406C191.76 118.427 192.004 118.493 192.225 118.601C192.445 118.71 192.637 118.857 192.788 119.034C193.66 120.12 192.704 122.361 191.884 123.304C191.812 123.387 190.528 124.546 190.516 124.525V124.501C190.372 124.849 190.208 125.235 190.02 125.646C189.668 126.401 189.26 127.254 188.744 128.155C188.202 129.132 187.594 130.08 186.924 130.995C186.183 132.023 185.335 132.991 184.392 133.886L184.356 133.918C184.756 133.723 185.848 133.222 185.956 133.187C187.22 132.755 189.956 132.571 190.924 133.598C191.078 133.772 191.189 133.972 191.248 134.186C191.308 134.4 191.315 134.623 191.269 134.839C191.223 135.055 191.125 135.261 190.981 135.442C190.838 135.623 190.652 135.776 190.436 135.891C189.54 136.416 188.224 136.263 187.268 135.968Z" fill="#263238"/>
<path d="M167.492 119.872C167.464 119.872 167.892 118.306 167.928 118.209C168.388 117.095 170.036 115.181 171.556 115.226C171.808 115.24 172.055 115.3 172.279 115.402C172.503 115.505 172.7 115.647 172.857 115.819C173.014 115.992 173.127 116.191 173.19 116.404C173.252 116.618 173.263 116.84 173.22 117.057C173.076 117.986 172.084 118.752 171.2 119.183C170.16 119.691 167.492 119.872 167.492 119.872Z" fill="#263238"/>
<path d="M36.892 69.8086L37.224 70" stroke="#263238" stroke-miterlimit="10"/>
<path d="M37.896 70.3799L99.188 105.051" stroke="#263238" stroke-miterlimit="10" stroke-dasharray="2 2"/>
<path d="M99.524 105.243L99.856 105.43L99.64 105.142" stroke="#263238" stroke-miterlimit="10"/>
<path d="M99.208 104.56L46.632 34.2295" stroke="#263238" stroke-miterlimit="10" stroke-dasharray="1.98 1.98"/>
<path d="M46.412 33.9408L46.196 33.6484" stroke="#263238" stroke-miterlimit="10"/>
<path d="M162.824 69.8086L162.492 70" stroke="#263238" stroke-miterlimit="10"/>
<path d="M161.82 70.3799L100.528 105.051" stroke="#263238" stroke-miterlimit="10" stroke-dasharray="2 2"/>
<path d="M100.192 105.243L99.856 105.43L100.076 105.142" stroke="#263238" stroke-miterlimit="10"/>
<path d="M100.508 104.56L153.084 34.2295" stroke="#263238" stroke-miterlimit="10" stroke-dasharray="1.98 1.98"/>
<path d="M153.3 33.9408L153.52 33.6484" stroke="#263238" stroke-miterlimit="10"/>
<path d="M99.856 22.8535V23.2015" stroke="#263238" stroke-miterlimit="10"/>
<path d="M99.856 23.9004V104.734" stroke="#263238" stroke-miterlimit="10" stroke-dasharray="2.01 2.01"/>
<path d="M99.856 105.082V105.43" stroke="#263238" stroke-miterlimit="10"/>
<path d="M100.604 31.9811C107.397 31.9811 112.904 27.1901 112.904 21.2801C112.904 15.3701 107.397 10.5791 100.604 10.5791C93.8109 10.5791 88.304 15.3701 88.304 21.2801C88.304 27.1901 93.8109 31.9811 100.604 31.9811Z" fill="#263238" stroke="#263238" stroke-width="2" stroke-miterlimit="10"/>
<path d="M100.604 21.2799L110.956 15.5031C109.427 13.4315 107.124 11.8808 104.436 11.1113L100.604 21.2799Z" fill="#7B47D0" stroke="#263238" stroke-miterlimit="10"/>
<path d="M100.604 21.2797L106.4 30.714C107.895 30.0166 109.208 29.0577 110.257 27.8975C111.306 26.7373 112.067 25.4009 112.494 23.9723C112.92 22.5437 113.002 21.0538 112.735 19.5963C112.467 18.1387 111.856 16.7451 110.94 15.5029L100.604 21.2797Z" fill="white" stroke="#263238" stroke-miterlimit="10"/>
<path d="M160.165 41.1444C164.967 36.9667 164.967 30.1934 160.165 26.0158C155.363 21.8381 147.578 21.8381 142.776 26.0158C137.974 30.1934 137.974 36.9667 142.776 41.1444C147.578 45.322 155.363 45.322 160.165 41.1444Z" stroke="#263238" stroke-miterlimit="10"/>
<path d="M151.468 42.856C157.355 42.856 162.128 38.7038 162.128 33.5818C162.128 28.4598 157.355 24.3076 151.468 24.3076C145.581 24.3076 140.808 28.4598 140.808 33.5818C140.808 38.7038 145.581 42.856 151.468 42.856Z" fill="#263238"/>
<path d="M157.6 33.5822L147.276 28.3936V38.7674L157.6 33.5822Z" fill="white"/>
<path d="M181.568 71.0786C183.219 65.0825 178.97 59.0576 172.078 57.6214C165.186 56.1852 158.261 59.8816 156.61 65.8776C154.96 71.8736 159.208 77.8986 166.1 79.3348C172.992 80.771 179.918 77.0746 181.568 71.0786Z" fill="#263238"/>
<path d="M178.012 70.3383C179.186 66.0554 176.148 61.7549 171.225 60.733C166.302 59.711 161.359 62.3546 160.184 66.6376C159.009 70.9206 162.048 75.221 166.971 76.2429C171.894 77.2649 176.837 74.6213 178.012 70.3383Z" fill="white"/>
<path d="M174.432 69.5822C175.134 67.011 173.307 64.4317 170.352 63.821C167.396 63.2104 164.431 64.7997 163.73 67.3709C163.028 69.942 164.854 72.5214 167.81 73.132C170.765 73.7427 173.73 72.1534 174.432 69.5822Z" fill="#263238"/>
<path d="M171.98 69.084C172.357 67.7001 171.373 66.3124 169.782 65.9844C168.192 65.6565 166.597 66.5126 166.22 67.8965C165.843 69.2805 166.827 70.6682 168.418 70.9961C170.008 71.324 171.603 70.4679 171.98 69.084Z" fill="white"/>
<path d="M185.44 63.1275L183.808 62.5742L184.52 62.2714C184.561 62.2551 184.598 62.2317 184.629 62.2027C184.66 62.1738 184.683 62.1397 184.699 62.1027C184.714 62.0656 184.721 62.0262 184.718 61.9868C184.716 61.9475 184.705 61.9089 184.685 61.8735C184.665 61.838 184.638 61.8063 184.604 61.7802C184.57 61.7542 184.53 61.7343 184.487 61.7218C184.444 61.7093 184.399 61.7043 184.354 61.7073C184.308 61.7102 184.264 61.721 184.224 61.739L183.708 61.9582L184.528 60.4131L181.484 61.5963L181.04 63.0822L168.94 68.2083C168.9 68.2254 168.864 68.2492 168.834 68.2784C168.804 68.3076 168.782 68.3416 168.767 68.3784C168.753 68.4153 168.747 68.4543 168.75 68.4932C168.753 68.5321 168.764 68.5701 168.784 68.605C168.803 68.6402 168.83 68.6718 168.863 68.6978C168.896 68.7238 168.935 68.7438 168.977 68.7565C169.019 68.7691 169.064 68.7743 169.108 68.7716C169.153 68.7689 169.196 68.7584 169.236 68.7407L181.376 63.5973L182.7 64.248L185.44 63.1275Z" fill="#263238"/>
<path d="M47.268 44.2758C54.3527 44.2758 60.096 39.2791 60.096 33.1154C60.096 26.9517 54.3527 21.9551 47.268 21.9551C40.1833 21.9551 34.44 26.9517 34.44 33.1154C34.44 39.2791 40.1833 44.2758 47.268 44.2758Z" fill="white" stroke="#263238" stroke-width="2" stroke-miterlimit="10"/>
<path d="M47.268 44.2758C52.4065 44.2758 56.572 39.2791 56.572 33.1154C56.572 26.9517 52.4065 21.9551 47.268 21.9551C42.1295 21.9551 37.964 26.9517 37.964 33.1154C37.964 39.2791 42.1295 44.2758 47.268 44.2758Z" fill="white" stroke="#263238" stroke-miterlimit="10"/>
<path d="M47.268 44.2758C49.455 44.2758 51.228 39.2791 51.228 33.1154C51.228 26.9517 49.455 21.9551 47.268 21.9551C45.081 21.9551 43.308 26.9517 43.308 33.1154C43.308 39.2791 45.081 44.2758 47.268 44.2758Z" fill="white" stroke="#263238" stroke-miterlimit="10"/>
<path d="M40.472 23.6885H54.292" stroke="#263238" stroke-miterlimit="10"/>
<path d="M35.824 28.0625H58.692" stroke="#263238" stroke-miterlimit="10"/>
<path d="M34.504 32.4336H60.072" stroke="#263238" stroke-miterlimit="10"/>
<path d="M35.068 36.8076H59.32" stroke="#263238" stroke-miterlimit="10"/>
<path d="M38.524 41.1787H56.24" stroke="#263238" stroke-miterlimit="10"/>
<path d="M30.476 79.643C37.5607 79.643 43.304 74.6463 43.304 68.4826C43.304 62.3189 37.5607 57.3223 30.476 57.3223C23.3913 57.3223 17.648 62.3189 17.648 68.4826C17.648 74.6463 23.3913 79.643 30.476 79.643Z" fill="#263238" stroke="#263238" stroke-width="2" stroke-miterlimit="10"/>
<path d="M38.604 63.207H21.592V75.0495H38.604V63.207Z" fill="white" stroke="#263238" stroke-width="2" stroke-miterlimit="10"/>
<path d="M39.668 63.207H20.528V68.0164H39.668V63.207Z" fill="white" stroke="#263238" stroke-width="2" stroke-miterlimit="10"/>
<path d="M30.08 63.0891C30.08 63.0891 26.08 59.014 25.396 59.2089C24.712 59.4038 22.944 62.1182 23.948 62.4105C24.952 62.7028 30.08 63.0891 30.08 63.0891Z" fill="#7B47D0"/>
<path d="M30.116 63.0891C30.116 63.0891 34.116 59.014 34.8 59.2089C35.484 59.4038 37.256 62.1182 36.252 62.4105C35.248 62.7028 30.116 63.0891 30.116 63.0891Z" fill="#7B47D0"/>
<path d="M31.308 71.531L30.104 69.711L28.856 71.531V63.3809H31.308V71.531Z" fill="#7B47D0"/>
<path d="M36.156 99.229L99.812 68.0586L165.028 99.229V144.417H36.94L36.156 99.229Z" fill="#263238" stroke="#263238" stroke-linecap="round" stroke-linejoin="round"/>
<path d="M148.24 76.4658H52.952V150.193H148.24V76.4658Z" fill="white" stroke="#263238" stroke-miterlimit="10"/>
<path d="M63.884 89.377H136.132" stroke="#263238" stroke-miterlimit="10"/>
<path d="M63.884 95.832H136.132" stroke="#263238" stroke-miterlimit="10"/>
<path d="M63.884 102.288H136.132" stroke="#263238" stroke-miterlimit="10"/>
<path d="M63.884 108.743H136.132" stroke="#263238" stroke-miterlimit="10"/>
<path d="M63.884 115.198H136.132" stroke="#263238" stroke-miterlimit="10"/>
<path d="M63.884 121.654H136.132" stroke="#263238" stroke-miterlimit="10"/>
<path d="M165.028 161.406H36.156V99.2285L100.596 137.282L165.028 99.2285V161.406Z" fill="#7B47D0" stroke="#263238" stroke-miterlimit="10"/>
<path d="M36.156 161.406L83.012 126.881" stroke="#263238" stroke-miterlimit="10"/>
<path d="M164.824 161.406L118.316 126.825" stroke="#263238" stroke-miterlimit="10"/>
<path d="M114.532 55.9132C114.532 55.9132 114.048 57.8828 114.696 58.5162C115.344 59.1496 117.768 61.4011 117.768 61.7526C117.768 62.1041 116.968 72.2378 116.968 72.2378L113.248 69.9167L110.984 75.9684C110.984 75.9684 116.644 78.0808 119.316 78.5018C121.988 78.9229 122.468 78.2896 122.468 76.4626C122.468 74.6356 120.364 60.6286 120.364 60.6286C120.364 60.6286 121.012 57.3922 121.012 56.8284C121.012 56.2646 121.256 55.9828 120.688 55.7009C120.12 55.419 115.512 55.0049 115.512 55.0049C115.512 55.0049 114.532 55.3494 114.532 55.9132Z" fill="white" stroke="#263238" stroke-linecap="round" stroke-linejoin="round"/>
<path d="M113.332 70.7695L112.104 76.1914L110.976 75.9687L113.332 70.7695Z" fill="#263238" stroke="#263238" stroke-linecap="round" stroke-linejoin="round"/>
<path d="M122.4 57.4929L113.236 56.421V54.4339C113.236 54.3416 113.278 54.2531 113.353 54.1879C113.428 54.1226 113.53 54.0859 113.636 54.0859C113.742 54.0859 113.844 54.1226 113.919 54.1879C113.994 54.2531 114.036 54.3416 114.036 54.4339V55.8259L121.696 56.7238L121.828 55.116C121.82 55.0646 121.825 55.0122 121.843 54.9627C121.86 54.9131 121.891 54.8677 121.932 54.8298C121.972 54.7918 122.022 54.7622 122.078 54.7433C122.133 54.7243 122.193 54.7164 122.253 54.7201C122.312 54.7238 122.37 54.7391 122.422 54.7647C122.474 54.7904 122.518 54.8259 122.552 54.8685C122.587 54.9112 122.609 54.9599 122.619 55.0112C122.628 55.0624 122.625 55.1149 122.608 55.1647L122.4 57.4929Z" fill="#263238"/>
<path d="M115.344 56.8285L120.356 57.2496L120.68 55.701L115.504 54.998L115.344 56.8285Z" fill="white" stroke="#263238" stroke-linecap="round" stroke-linejoin="round"/>
<path d="M114.452 57.0407C114.452 57.0407 114.452 55.2798 114.696 55.1406C114.94 55.0014 118.416 55.2102 118.416 55.6313C118.416 56.0523 118.416 56.2646 118.016 56.2646C117.616 56.2646 116.816 56.3342 116.816 56.3342C116.816 56.3342 118.676 57.8132 118.108 59.1495" fill="white"/>
<path d="M114.452 57.0407C114.452 57.0407 114.452 55.2798 114.696 55.1406C114.94 55.0014 118.416 55.2102 118.416 55.6313C118.416 56.0523 118.416 56.2646 118.016 56.2646C117.616 56.2646 116.816 56.3342 116.816 56.3342C116.816 56.3342 118.676 57.8132 118.108 59.1495" stroke="#263238" stroke-linecap="round" stroke-linejoin="round"/>
<path d="M116.96 72.2383L116.636 75.3355" stroke="#263238" stroke-linecap="round" stroke-linejoin="round"/>
<path d="M75.884 70.8877C75.884 70.8877 64.452 78.6481 64.748 79.4868C65.044 80.3255 73.524 87.3794 76.328 89.109C79.132 90.8385 80.68 91.6146 80.68 91.6146L82.448 92.5751C82.448 92.5751 81.712 93.6191 82.156 93.7965C82.6 93.974 84.22 94.6944 84.44 94.3081C84.66 93.9218 85.844 91.0369 85.696 90.3305C85.548 89.624 81.268 89.0463 80.976 88.7888C80.684 88.5313 73.672 79.0448 73.672 79.0448L79.132 75.3247L75.884 70.8877Z" fill="white" stroke="#263238" stroke-linecap="round" stroke-linejoin="round"/>
<path d="M75.688 71.1455L77.764 76.0419L79.132 75.3145L75.688 71.1455Z" fill="#263238" stroke="#263238" stroke-linecap="round" stroke-linejoin="round"/>
<path d="M82.448 92.5684C82.448 92.5684 82.968 93.5323 83.852 93.6124" stroke="#263238" stroke-linecap="round" stroke-linejoin="round"/>
<path d="M73.672 79.0346L72.196 76.79" stroke="#263238" stroke-linecap="round" stroke-linejoin="round"/>
<path d="M83.484 149.299L83.364 155.003L88.736 155.104L89.212 148.889L83.484 149.299Z" fill="white" stroke="#263238" stroke-linecap="round" stroke-linejoin="round"/>
<path d="M83.504 148.989V150.399L89.076 150.625L89.204 149.16L83.504 148.989Z" fill="#263238" stroke="#263238" stroke-linecap="round" stroke-linejoin="round"/>
<path d="M86.02 153.513C86.02 153.513 85.312 151.098 84.248 151.046C83.184 150.993 82.648 151.714 82.248 152.382C81.848 153.05 79.236 155.309 78.348 155.862C77.46 156.415 75.516 157.146 75.22 158.789C74.924 160.431 76.044 161.103 76.82 161.256C77.596 161.409 81.072 161.461 83.14 161.256C85.208 161.051 90.844 161.538 91.172 161.256C91.5 160.974 91.94 160.073 91.644 159.457C91.412 159.008 91.1349 158.579 90.816 158.173C90.816 158.173 91.408 156.683 91.052 155.862C90.696 155.041 89.988 154.011 90.108 153.548C90.228 153.085 91.524 152.111 90.64 152.058C89.756 152.006 88.336 152.932 87.44 153.189C86.9795 153.336 86.504 153.444 86.02 153.513Z" fill="#263238" stroke="#263238" stroke-linecap="round" stroke-linejoin="round"/>
<path d="M89.8 158.392C88.972 158.496 85.8 159.829 83.776 160.243C81.752 160.657 80 160.703 79.052 160.292C78.104 159.881 77.28 158.649 76.572 157.877C75.864 157.104 75.276 159.06 75.276 159.06L75.176 159.098C75.056 160.529 76.088 161.124 76.808 161.27C77.528 161.416 81.06 161.475 83.128 161.27C85.196 161.065 90.832 161.552 91.16 161.27C91.488 160.988 91.928 160.087 91.632 159.471C91.4 159.022 91.1229 158.593 90.804 158.187C90.452 158.134 90.628 158.291 89.8 158.392Z" fill="white" stroke="#263238" stroke-linecap="round" stroke-linejoin="round"/>
<path d="M81.2 153.816C81.2 153.816 82.8 153.51 84.8 155.208L83.74 155.978C83.74 155.978 81.672 154.586 80.372 154.586L81.2 153.816Z" fill="white" stroke="#263238" stroke-linecap="round" stroke-linejoin="round"/>
<path d="M79.704 154.86C79.704 154.86 81.304 154.55 83.304 156.252L82.244 157.025C82.244 157.025 80.176 155.633 78.876 155.633L79.704 154.86Z" fill="white" stroke="#263238" stroke-linecap="round" stroke-linejoin="round"/>
<path d="M84.368 154.693L86.02 153.514" stroke="#263238" stroke-linecap="round" stroke-linejoin="round"/>
<path d="M82.244 157.008C82.244 157.008 82.644 157.777 81.948 158.239C81.252 158.702 76.572 157.93 76.632 157.366C76.692 156.802 78.876 155.626 78.876 155.626C80.0967 155.878 81.2438 156.349 82.244 157.008Z" fill="white" stroke="#263238" stroke-linecap="round" stroke-linejoin="round"/>
<path d="M117.368 149.299L117.484 155.003L112.112 155.104L111.64 148.889L117.368 149.299Z" fill="white" stroke="#263238" stroke-linecap="round" stroke-linejoin="round"/>
<path d="M111.744 149.946V150.792L117.444 150.736L117.38 149.497L111.616 149.441L111.744 149.946Z" fill="#263238" stroke="#263238" stroke-linecap="round" stroke-linejoin="round"/>
<path d="M114.828 153.513C114.828 153.513 115.536 151.098 116.6 151.046C117.664 150.993 118.2 151.714 118.6 152.382C119 153.05 121.612 155.309 122.496 155.862C123.38 156.415 125.332 157.146 125.624 158.789C125.916 160.431 124.8 161.103 124.024 161.256C123.248 161.409 119.772 161.461 117.704 161.256C115.636 161.051 110 161.538 109.676 161.256C109.352 160.974 108.908 160.073 109.2 159.457C109.432 159.008 109.709 158.579 110.028 158.173C110.028 158.173 109.436 156.683 109.792 155.862C110.148 155.041 110.856 154.011 110.736 153.548C110.616 153.085 109.32 152.111 110.204 152.058C111.088 152.006 112.508 152.932 113.404 153.189C113.866 153.337 114.343 153.445 114.828 153.513Z" fill="#263238" stroke="#263238" stroke-linecap="round" stroke-linejoin="round"/>
<path d="M111.048 158.392C111.876 158.496 115.048 159.829 117.072 160.243C119.096 160.657 120.852 160.703 121.796 160.292C122.74 159.881 123.568 158.649 124.276 157.877C124.984 157.104 125.576 159.06 125.576 159.06L125.672 159.098C125.792 160.529 124.76 161.124 124.04 161.27C123.32 161.416 119.788 161.475 117.72 161.27C115.652 161.065 110.016 161.552 109.692 161.27C109.368 160.988 108.924 160.087 109.216 159.471C109.448 159.022 109.725 158.593 110.044 158.187C110.4 158.134 110.22 158.291 111.048 158.392Z" fill="white" stroke="#263238" stroke-linecap="round" stroke-linejoin="round"/>
<path d="M119.668 153.816C119.668 153.816 118.068 153.51 116.068 155.208L117.132 155.978C117.132 155.978 119.196 154.586 120.496 154.586L119.668 153.816Z" fill="white" stroke="#263238" stroke-linecap="round" stroke-linejoin="round"/>
<path d="M121.144 154.86C121.144 154.86 119.544 154.55 117.544 156.252L118.608 157.025C118.608 157.025 120.672 155.633 121.972 155.633L121.144 154.86Z" fill="white" stroke="#263238" stroke-linecap="round" stroke-linejoin="round"/>
<path d="M116.48 154.693L114.828 153.514" stroke="#263238" stroke-linecap="round" stroke-linejoin="round"/>
<path d="M118.608 157.008C118.608 157.008 118.208 157.777 118.9 158.239C119.592 158.702 124.276 157.93 124.216 157.366C124.156 156.802 121.972 155.626 121.972 155.626C120.752 155.878 119.607 156.348 118.608 157.008Z" fill="white" stroke="#263238" stroke-linecap="round" stroke-linejoin="round"/>
<path d="M85.952 89.088C85.952 89.088 82.828 100.186 81.656 109.589C80.484 118.992 78.66 149.793 78.66 149.793H92.98C92.98 149.793 97.276 118.532 97.928 112.985C98.58 107.438 98.576 103.937 98.576 103.937L106.648 149.807H123.7C123.7 149.807 117.192 120.7 114.588 107.351C111.984 94.0018 108.34 88.7783 108.34 88.7783L85.952 89.088Z" fill="#B0B0B0" stroke="#263238" stroke-linecap="round" stroke-linejoin="round"/>
<path d="M98.188 89.8921C98.064 90.2158 94.672 94.6493 95.712 94.9868C96.752 95.3244 98.708 95.3348 98.708 94.4231V90.7969C98.708 90.7969 98.968 95.8951 100.14 95.6689C101.312 95.4427 102.872 95.6689 102.484 94.5344C102.096 93.4 99.1 89.7842 99.1 89.7842C99.1 89.7842 98.576 88.8725 98.188 89.8921Z" fill="#B0B0B0" stroke="#263238" stroke-linecap="round" stroke-linejoin="round"/>
<path d="M98.724 90.2646C98.724 90.2646 101.676 93.9117 101.392 94.2423C101.108 94.5729 100.724 94.9035 100.44 94.4093C100.156 93.9152 98.724 90.2646 98.724 90.2646Z" stroke="#263238" stroke-miterlimit="10"/>
<path d="M98.628 89.8506C98.628 89.8506 96.436 93.9117 96.724 94.0753C96.8267 94.1305 96.9431 94.1636 97.0635 94.1719C97.1839 94.1802 97.3048 94.1634 97.4162 94.1229C97.5277 94.0824 97.6264 94.0194 97.7043 93.9391C97.7821 93.8588 97.8369 93.7636 97.864 93.6612C98.056 93.0835 98.628 89.8506 98.628 89.8506Z" stroke="#263238" stroke-miterlimit="10"/>
<path d="M107.524 101.425C107.644 101.999 107.748 102.542 107.82 103.029" stroke="#263238" stroke-linecap="round" stroke-linejoin="round"/>
<path d="M104.436 90.2334C104.436 90.2334 106.06 95.2794 107.104 99.5633" stroke="#263238" stroke-linecap="round" stroke-linejoin="round"/>
<path d="M103.264 90.2334C103.264 90.2334 104.304 96.574 104.824 98.2722" stroke="#263238" stroke-linecap="round" stroke-linejoin="round"/>
<path d="M89.0946 99.0127C89.0391 99.4512 88.9915 99.8514 88.944 100.196" stroke="#263238" stroke-linecap="round" stroke-linejoin="round"/>
<path d="M90.116 90.2334C90.116 90.2334 89.684 94.1066 89.316 97.3082" stroke="#263238" stroke-linecap="round" stroke-linejoin="round"/>
<path d="M89.076 90.459L88.552 95.8947" stroke="#263238" stroke-linecap="round" stroke-linejoin="round"/>
<path d="M98.196 44.0225C98.196 44.0225 103.048 44.4435 101.916 46.6255C100.784 48.8075 99.652 49.2285 99.408 49.2285C99.164 49.2285 97.224 46.6255 97.224 46.6255L98.196 44.0225Z" fill="#263238" stroke="#263238" stroke-linecap="round" stroke-linejoin="round"/>
<path d="M97.628 46.0617C97.628 46.0617 99.488 46.9769 100.056 48.6647C100.624 50.3525 102.076 50.8467 102.484 50.7771C102.892 50.7075 103.452 51.7619 102.968 52.4649L102.484 53.1609C102.484 53.1609 102.884 57.9459 102.4 58.5793C101.916 59.2126 98.924 58.8611 98.924 58.8611C98.924 58.8611 98.276 61.1127 98.844 62.5221C99.412 63.9315 101.108 64.631 101.756 64.631C102.404 64.631 103.776 63.935 105.636 64.7737C107.496 65.6124 113.724 69.6979 113.724 69.6979L110.4 77.6044L106.84 75.9862L109.348 89.426L85.084 89.9202C85.084 89.9202 85.328 80.3502 84.684 78.5893C84.234 77.4223 83.6651 76.2926 82.984 75.2137L79.912 77.3225L75.624 70.8497C75.624 70.8497 81.932 65.3618 84.424 64.8676C86.916 64.3735 89.924 65.0103 90.896 63.9524C91.868 62.8945 91.056 57.9007 91.056 57.9007C91.056 57.9007 88.712 57.2047 87.336 53.6098C85.96 50.015 90.652 46.3018 90.652 46.3018C90.652 46.3018 92.776 44.3739 97.628 46.0617Z" fill="white" stroke="#263238" stroke-linecap="round" stroke-linejoin="round"/>
<path d="M98.924 58.868L96.736 58.5479L98.492 60.3052L98.924 58.868Z" fill="#263238" stroke="#263238" stroke-linecap="round" stroke-linejoin="round"/>
<path d="M97.896 49.8725C97.896 49.8725 97.896 48.5361 99.272 48.5361" stroke="#263238" stroke-width="2" stroke-linecap="round" stroke-linejoin="round"/>
<path d="M101.512 54.7167L98.68 53.5195C98.68 53.5195 98.44 56.053 99.48 55.9834C100.52 55.9138 101.512 54.7167 101.512 54.7167Z" fill="#263238" stroke="#263238" stroke-linecap="round" stroke-linejoin="round"/>
<path d="M98.74 51.1774C98.74 51.1774 99.652 50.3178 100.412 51.0451" stroke="#263238" stroke-linecap="round" stroke-linejoin="round"/>
<path d="M98.66 54.3229L101.204 55.0432C101.313 54.9391 101.416 54.8299 101.512 54.7161L98.68 53.5225C98.68 53.5225 98.648 53.8809 98.66 54.3229Z" fill="white" stroke="#263238" stroke-linecap="round" stroke-linejoin="round"/>
<path d="M82.828 49.0886C82.828 49.0886 81.048 45.9218 78.54 46.2733C76.032 46.6248 74.092 49.0156 74.9 52.3946C74.9 52.3946 75.3 53.3099 75.628 54.0824C75.628 54.0824 72.476 53.2403 70.776 55.0673C69.076 56.8943 70.376 58.7978 72.312 59.7131C74.248 60.6283 75.388 60.5587 75.388 60.5587C75.388 60.5587 71.1 61.6828 72.636 63.0922C74.172 64.5016 78.864 63.5828 77.892 62.3962C76.92 61.2095 76.196 61.3522 76.196 61.3522C76.196 61.3522 80.076 60.0854 79.672 59.1702C79.268 58.255 77.328 57.552 77.328 57.552C77.328 57.552 81.048 58.6795 83.072 57.6216C85.096 56.5637 83.312 52.0536 83.312 52.0536L82.828 49.0886Z" fill="#263238" stroke="#263238" stroke-linecap="round" stroke-linejoin="round"/>
<path d="M99.084 42.4736C99.084 42.4736 99.732 44.4432 98.6 46.131C97.468 47.8188 95.04 50.7072 94.716 53.9436C94.392 57.18 95.444 61.1925 96.092 62.5288C96.74 63.8651 95.292 64.147 94.232 64.0774C93.172 64.0078 92.776 63.444 92.776 62.1773C92.776 60.9106 92.452 58.659 92.452 58.659C92.452 58.659 88.328 58.3111 86.388 57.3193C84.448 56.3275 81.616 52.9588 82.828 49.089C84.04 45.2193 87.276 44.0918 89.228 43.3888C91.18 42.6858 93.84 42.7554 95.7 42.404C97.56 42.0525 99.004 41.6279 99.084 42.4736Z" fill="#263238" stroke="#263238" stroke-linecap="round" stroke-linejoin="round"/>
<path d="M93.2 52.3258L92.472 54.8592C92.472 54.8592 90.936 54.2258 90.692 53.0983C90.448 51.9708 92.292 51.4105 93.604 52.4023" fill="white"/>
<path d="M93.2 52.3258L92.472 54.8592C92.472 54.8592 90.936 54.2258 90.692 53.0983C90.448 51.9708 92.292 51.4105 93.604 52.4023" stroke="#263238" stroke-linecap="round" stroke-linejoin="round"/>
<path d="M116.8 56.334L115.748 56.4071" stroke="#263238" stroke-linecap="round" stroke-linejoin="round"/>
<path d="M109.232 54.3021L136.192 57.5837L132.528 40.2324L108.4 50.3418L109.232 54.3021Z" fill="#7B47D0" stroke="#263238" stroke-linecap="round" stroke-linejoin="round"/>
<path d="M108.398 50.3424L104.393 50.9795L105.221 54.9231L109.227 54.286L108.398 50.3424Z" fill="#7B47D0" stroke="#263238" stroke-linecap="round" stroke-linejoin="round"/>
<path d="M113.724 69.7044C113.724 69.7044 107.496 65.6224 105.636 64.7802C103.776 63.9381 102.436 64.6201 101.784 64.6375C100.917 65.724 99.7493 66.6029 98.3889 67.1935C97.0285 67.784 95.5192 68.0671 94 68.0166C88.68 67.9575 87.2 65.3823 86.88 64.6306C86.0659 64.6374 85.2543 64.7108 84.456 64.8498C81.948 65.344 75.656 70.8319 75.656 70.8319L79.944 77.3047L83.016 75.1959C83.6971 76.2748 84.266 77.4045 84.716 78.5715C85.364 80.3323 85.116 89.9023 85.116 89.9023L109.38 89.4082L106.872 75.9684L110.4 77.604L113.724 69.7044Z" fill="#263238" stroke="#263238" stroke-linecap="round" stroke-linejoin="round"/>
<path d="M98.3724 83.1071C102.383 82.2766 104.86 78.775 103.905 75.2861C102.95 71.7973 98.9256 69.6422 94.9155 70.4728C90.9053 71.3033 88.4282 74.8048 89.3828 78.2937C90.3375 81.7826 94.3623 83.9376 98.3724 83.1071Z" stroke="white" stroke-miterlimit="10"/>
<path d="M101.204 73.8457H92.352L96.716 77.5032L101.204 73.8457Z" fill="#7B47D0"/>
<path d="M98.488 76.6962L101.568 79.0626V74.1836L98.488 76.6962Z" fill="#7B47D0"/>
<path d="M94.976 76.6892L91.856 74.0723V78.9512L94.976 76.6892Z" fill="#7B47D0"/>
<path d="M98.096 77.0127L96.712 78.1437L95.364 77.0127L92.116 79.3687H101.16L98.096 77.0127Z" fill="#7B47D0"/>
<path d="M12.124 161.406H188.252" stroke="#263238" stroke-miterlimit="10"/>
</svg>
