<svg width="48" height="48" viewBox="0 0 48 48" fill="none" xmlns="http://www.w3.org/2000/svg">
<circle cx="24" cy="24" r="24" fill="#FF9E74"/>
<path fill-rule="evenodd" clip-rule="evenodd" d="M23.3936 26.2202L26.5966 23.8241L24.2005 20.6212L20.9976 23.0172L23.3936 26.2202ZM23.6031 18.5704L19.199 21.865C18.6473 22.2777 18.5341 23.063 18.9468 23.6147L22.2414 28.0188C22.6542 28.5705 23.4394 28.6836 23.9911 28.2709L28.3952 24.9763C28.9469 24.5636 29.0601 23.7783 28.6473 23.2266L25.3527 18.8226C24.94 18.2709 24.1548 18.1577 23.6031 18.5704ZM28.5892 29.8266C25.0572 32.4688 20.0334 31.7448 17.3912 28.2128C14.7489 24.6807 15.4729 19.657 19.005 17.0148C22.537 14.3725 27.5607 15.0965 30.203 18.6285C32.8452 22.1606 32.1213 27.1843 28.5892 29.8266ZM17.8069 15.4133C13.3917 18.7163 12.4867 24.9956 15.7897 29.4108C19.0927 33.8261 25.372 34.731 29.7872 31.428C34.2025 28.1251 35.1074 21.8458 31.8045 17.4305C28.5015 13.0153 22.2222 12.1103 17.8069 15.4133Z" fill="#FFEAE1"/>
<mask id="mask0_3004_4732" style="mask-type:luminance" maskUnits="userSpaceOnUse" x="13" y="13" width="21" height="21">
<path fill-rule="evenodd" clip-rule="evenodd" d="M23.3936 26.2202L26.5966 23.8241L24.2005 20.6212L20.9976 23.0172L23.3936 26.2202ZM23.6031 18.5704L19.199 21.865C18.6473 22.2777 18.5341 23.063 18.9468 23.6147L22.2414 28.0188C22.6542 28.5705 23.4394 28.6836 23.9911 28.2709L28.3952 24.9763C28.9469 24.5636 29.0601 23.7783 28.6473 23.2266L25.3527 18.8226C24.94 18.2709 24.1548 18.1577 23.6031 18.5704ZM28.5892 29.8266C25.0572 32.4688 20.0334 31.7448 17.3912 28.2128C14.7489 24.6807 15.4729 19.657 19.005 17.0148C22.537 14.3725 27.5607 15.0965 30.203 18.6285C32.8452 22.1606 32.1213 27.1843 28.5892 29.8266ZM17.8069 15.4133C13.3917 18.7163 12.4867 24.9956 15.7897 29.4108C19.0927 33.8261 25.372 34.731 29.7872 31.428C34.2025 28.1251 35.1074 21.8458 31.8045 17.4305C28.5015 13.0153 22.2222 12.1103 17.8069 15.4133Z" fill="white"/>
</mask>
<g mask="url(#mask0_3004_4732)">
<rect x="7" y="21" width="24" height="24" transform="rotate(-36.7994 7 21)" fill="#FFEAE1"/>
</g>
</svg>
