<svg width="48" height="48" viewBox="0 0 48 48" fill="none" xmlns="http://www.w3.org/2000/svg">
<circle cx="24" cy="24" r="24" fill="#488CFF"/>
<path fill-rule="evenodd" clip-rule="evenodd" d="M22.7969 25.2129L23.5109 23.4709L25.2029 22.7869L24.4889 24.5289L22.7969 25.2129ZM27.6827 20.3185C27.4087 20.0285 26.9787 19.9165 26.5837 20.0725L22.3707 21.7745C22.1207 21.8755 21.9217 22.0725 21.8197 22.3225L20.0747 26.5805C19.9267 26.9415 20.0137 27.3315 20.2527 27.6085C20.2607 27.6185 20.2667 27.6315 20.2757 27.6425C20.2917 27.6595 20.3107 27.6735 20.3287 27.6905C20.5167 27.8835 20.7717 28.0005 21.0417 28.0005C21.1667 28.0005 21.2937 27.9775 21.4157 27.9285L25.6287 26.2275C25.8787 26.1255 26.0777 25.9285 26.1797 25.6785L27.9247 21.4205C28.0867 21.0265 27.9747 20.5945 27.6827 20.3185ZM24 32C19.589 32 16 28.411 16 24C16 19.589 19.589 16 24 16C28.411 16 32 19.589 32 24C32 28.411 28.411 32 24 32ZM24 14C18.486 14 14 18.486 14 24C14 29.514 18.486 34 24 34C29.514 34 34 29.514 34 24C34 18.486 29.514 14 24 14Z" fill="#D8E7FF"/>
<mask id="mask0_3004_8503" style="mask-type:luminance" maskUnits="userSpaceOnUse" x="14" y="14" width="20" height="20">
<path fill-rule="evenodd" clip-rule="evenodd" d="M22.7969 25.2129L23.5109 23.4709L25.2029 22.7869L24.4889 24.5289L22.7969 25.2129ZM27.6827 20.3185C27.4087 20.0285 26.9787 19.9165 26.5837 20.0725L22.3707 21.7745C22.1207 21.8755 21.9217 22.0725 21.8197 22.3225L20.0747 26.5805C19.9267 26.9415 20.0137 27.3315 20.2527 27.6085C20.2607 27.6185 20.2667 27.6315 20.2757 27.6425C20.2917 27.6595 20.3107 27.6735 20.3287 27.6905C20.5167 27.8835 20.7717 28.0005 21.0417 28.0005C21.1667 28.0005 21.2937 27.9775 21.4157 27.9285L25.6287 26.2275C25.8787 26.1255 26.0777 25.9285 26.1797 25.6785L27.9247 21.4205C28.0867 21.0265 27.9747 20.5945 27.6827 20.3185ZM24 32C19.589 32 16 28.411 16 24C16 19.589 19.589 16 24 16C28.411 16 32 19.589 32 24C32 28.411 28.411 32 24 32ZM24 14C18.486 14 14 18.486 14 24C14 29.514 18.486 34 24 34C29.514 34 34 29.514 34 24C34 18.486 29.514 14 24 14Z" fill="white"/>
</mask>
<g mask="url(#mask0_3004_8503)">
<rect x="12" y="12" width="24" height="24" fill="#D8E7FF"/>
</g>
</svg>
