<svg width="48" height="48" viewBox="0 0 48 48" fill="none" xmlns="http://www.w3.org/2000/svg">
<circle cx="24" cy="24" r="24" fill="#7B47D0"/>
<rect width="24" height="24.0001" transform="translate(12 12)" fill="#7B47D0"/>
<path d="M24.7675 15.5725L24.6756 15.3949C27.7204 13.8201 30.8983 13.7353 32.5179 13.8238C33.4142 13.8727 34.1274 14.5858 34.1763 15.4822C34.2646 17.1015 34.18 20.2796 32.6051 23.3244C31.8013 24.8785 30.4449 26.5131 28.8838 27.8169L28.6641 30.6608C28.6222 31.2044 28.3366 31.6897 27.8818 31.9905L27.7715 31.8236L27.8818 31.9905L24.8595 33.9887C24.648 34.1286 24.4047 34.2 24.1593 34.2001H24.1593C23.9846 34.2001 23.8094 34.1638 23.6443 34.0908C23.2468 33.9149 22.9691 33.5526 22.9026 33.123L22.5514 30.8558C22.4749 30.8661 22.3982 30.8711 22.3219 30.8711C21.8616 30.8711 21.4131 30.688 21.0812 30.3561L17.644 26.9188C17.644 26.9188 17.644 26.9188 17.644 26.9188C17.2571 26.532 17.0722 25.9865 17.1442 25.4486L14.877 25.0975C14.4474 25.0309 14.0852 24.7533 13.9093 24.3556L13.9093 24.3556C13.7334 23.958 13.7716 23.5032 14.0114 23.1405M24.7675 15.5725L17.1526 25.3929C17.1603 25.3463 17.1688 25.2998 17.1769 25.255L17.1776 25.2514L14.9077 24.8998C14.5454 24.8437 14.2405 24.61 14.0922 24.2747C13.9438 23.9394 13.976 23.5567 14.1782 23.2508L16.1764 20.2285C16.4431 19.8252 16.8725 19.5725 17.3546 19.5352L20.2835 19.309M24.7675 15.5725L24.6756 15.3949C23.1216 16.1987 21.487 17.555 20.1832 19.1161M24.7675 15.5725C23.2384 16.3635 21.6212 17.7044 20.3306 19.2516L20.3031 19.285L20.2835 19.309M14.0114 23.1405L14.1782 23.2508L14.0114 23.1405L14.0114 23.1405ZM14.0114 23.1405L16.0096 20.1182L16.0096 20.1182C16.3103 19.6634 16.7955 19.3778 17.3392 19.3358L17.3392 19.3358L20.1832 19.1161M20.1832 19.1161C20.1812 19.1186 20.1791 19.1211 20.1771 19.1235L20.177 19.1235C20.1676 19.1348 20.1568 19.148 20.1469 19.1601C20.1405 19.168 20.1344 19.1754 20.1293 19.1816L20.2835 19.309M20.1832 19.1161L20.2681 19.1096L20.2755 19.2056L20.2755 19.2057L20.2835 19.309M14.0422 29.34C13.7353 29.647 13.7353 30.1445 14.0422 30.4515C14.1956 30.6049 14.3971 30.6817 14.5979 30.6817C14.7987 30.6817 15.0003 30.605 15.1537 30.4515L17.0667 28.5385C17.3736 28.2316 17.3736 27.7339 17.0667 27.427C16.7597 27.1201 16.2621 27.1201 15.9552 27.427L16.0942 27.566L15.9552 27.427L14.0422 29.34ZM14.0422 29.34L14.1836 29.4814M14.0422 29.34L14.0422 29.34L14.1836 29.4814M14.1836 29.4814C13.9548 29.7103 13.9548 30.0813 14.1836 30.3101V29.4814ZM17.7084 29.1803C18.0153 28.8734 18.5129 28.8734 18.8198 29.1803H17.7084ZM17.7084 29.1803L14.0305 32.8583C13.7235 33.1652 13.7235 33.6628 14.0305 33.9698C14.1839 34.1232 14.3854 34.1999 14.5862 34.1999C14.787 34.1999 14.9885 34.1232 15.142 33.9697L18.8198 30.2918C19.1268 29.9849 19.1268 29.4873 18.8199 29.1804L17.7084 29.1803ZM22.5208 30.6581C22.4545 30.6668 22.388 30.6711 22.3219 30.6711C21.9145 30.6711 21.5168 30.5089 21.2226 30.2146L17.7854 26.7774C17.4433 26.4354 17.2797 25.9536 17.3419 25.4792L22.5208 30.6581ZM23.1002 33.0924L22.7486 30.8224L24.7492 33.8219C24.5706 33.94 24.3657 34 24.1593 34.0001C24.0124 34.0001 23.8647 33.9696 23.7252 33.9079C23.39 33.7596 23.1563 33.4547 23.1002 33.0924ZM27.015 30.6792L27.0149 30.6792L24.3841 32.4186L24.0859 30.4938C25.1508 30.1634 26.2026 29.6726 27.2132 29.0355L27.097 30.5397L27.097 30.5398C27.0926 30.5972 27.0631 30.6474 27.015 30.6792ZM18.7029 25.6521L18.7029 25.6521C18.7845 25.1642 18.903 24.695 19.0486 24.2467L23.7522 28.9502C23.2268 29.121 22.753 29.2294 22.3479 29.2971C22.2949 29.3059 22.2362 29.2881 22.1926 29.2446L18.7554 25.8074C18.7554 25.8074 18.7554 25.8074 18.7554 25.8074C18.7117 25.7636 18.6941 25.7047 18.7029 25.6521ZM17.4602 20.903L17.4603 20.903L18.9645 20.7868C18.3274 21.7975 17.8365 22.8492 17.5061 23.9141L15.5813 23.616L17.3208 20.9851C17.3526 20.937 17.4028 20.9075 17.4602 20.903ZM25.3978 16.791L25.3059 16.6134L25.3978 16.791C28.1053 15.3906 30.9645 15.3133 32.4323 15.3933C32.5268 15.3984 32.6016 15.4732 32.6068 15.5678C32.6868 17.0356 32.6094 19.8947 31.209 22.6023C30.5014 23.9702 29.2848 25.4355 27.8697 26.6159C26.9832 27.3553 26.1226 27.8996 25.3253 28.3004L19.6995 22.6747C20.2198 21.6435 20.8417 20.7806 21.3841 20.1304L21.2305 20.0023L21.3841 20.1304C22.5645 18.7153 24.0298 17.4986 25.3978 16.791ZM26.5987 19.1983L26.5987 19.1982C26.9022 18.8947 27.3008 18.7428 27.7002 18.7428C28.0996 18.7428 28.4982 18.8947 28.8017 19.1982L28.8017 19.1983C29.0962 19.4927 29.2579 19.8833 29.2579 20.2997C29.2579 20.7162 29.0962 21.1068 28.8017 21.4012L28.9431 21.5427L28.8017 21.4012C28.1945 22.0085 27.2059 22.0085 26.5987 21.4012C26.3042 21.1067 26.1424 20.7162 26.1424 20.2998C26.1424 19.8833 26.3042 19.4928 26.5987 19.1983ZM27.7003 23.428C28.501 23.4279 29.303 23.1229 29.9132 22.5127C30.5041 21.9219 30.8298 21.1353 30.8298 20.2998C30.8298 19.4642 30.504 18.6776 29.9132 18.0868C28.6928 16.8664 26.7076 16.8665 25.4873 18.0868C24.8964 18.6777 24.5706 19.4642 24.5706 20.2998C24.5706 21.1353 24.8965 21.9219 25.4873 22.5127C26.0976 23.123 26.8992 23.4281 27.7003 23.428ZM19.4615 30.9334L17.5485 32.8464C17.2416 33.1533 17.2416 33.651 17.5485 33.9579C17.7019 34.1113 17.9034 34.1881 18.1042 34.1881C18.305 34.1881 18.5066 34.1114 18.66 33.9578L20.573 32.0449C20.8799 31.7379 20.8799 31.2403 20.573 30.9334C20.2661 30.6265 19.7684 30.6265 19.4615 30.9334Z" fill="#F3F1FF" stroke="#F3F1FF" stroke-width="0.4"/>
</svg>
