<svg width="210" height="174" viewBox="0 0 210 174" fill="none" xmlns="http://www.w3.org/2000/svg">
<path d="M171.78 85.6901C134.648 66.1007 74.6424 66.1007 37.7496 85.6901C0.856804 105.28 1.071 137.087 38.22 156.692C75.369 176.297 135.358 176.301 172.25 156.692C209.143 137.083 208.929 105.299 171.78 85.6901Z" fill="#F5F5F5"/>
<path d="M25.2546 118.366C22.6506 116.991 18.438 116.991 15.8508 118.366C13.2636 119.741 13.272 121.973 15.8802 123.36C18.4884 124.746 22.6968 124.735 25.2882 123.36C27.8796 121.985 27.8628 119.745 25.2546 118.366Z" fill="#E0E0E0"/>
<path d="M190.147 117.022C187.4 115.574 182.96 115.574 180.235 117.022C177.509 118.47 177.517 120.824 180.264 122.272C183.011 123.72 187.45 123.724 190.18 122.272C192.91 120.82 192.893 118.474 190.147 117.022Z" fill="#E0E0E0"/>
<path d="M186.43 126.54L145.74 105.092L109.679 124.151L118.125 128.603C113.547 128.926 109.129 130.013 105.622 131.879C97.1418 136.385 97.188 143.691 105.722 148.196C114.257 152.702 128.045 152.702 136.525 148.196C140.045 146.326 142.09 143.971 142.674 141.54L150.36 145.6L186.43 126.54Z" fill="#E0E0E0"/>
<path d="M130.687 86.6083L25.1916 142.945L20.7228 140.583L126.214 84.2461L130.687 86.6083Z" fill="#E0E0E0"/>
<path d="M26.88 110.449L20.58 110.622L14.28 110.453C13.986 114.344 14.8176 118.304 15.96 120.255C16.237 120.751 16.6779 121.154 17.22 121.408C19.0806 122.391 22.0878 122.391 23.94 121.408C24.4911 121.151 24.9341 120.735 25.2 120.225C26.3256 118.277 27.1488 114.325 26.88 110.449Z" fill="white"/>
<path d="M25.0152 108.087C27.4848 109.39 27.5016 111.506 25.0446 112.812C22.5876 114.118 18.5934 114.118 16.1196 112.812C13.6458 111.506 13.6374 109.39 16.0902 108.087C18.543 106.785 22.5414 106.781 25.0152 108.087Z" fill="#EBEBEB"/>
<path d="M24.0366 108.606C25.9644 109.624 25.977 111.275 24.0618 112.293C22.1466 113.311 19.0218 113.311 17.0982 112.293C15.1746 111.275 15.1578 109.605 17.0772 108.606C18.9966 107.607 22.1088 107.588 24.0366 108.606Z" fill="#E0E0E0"/>
<g opacity="0.15">
<path d="M24.0366 108.606C25.9644 109.624 25.977 111.275 24.0618 112.293C22.1466 113.311 19.0218 113.311 17.0982 112.293C15.1746 111.275 15.1578 109.605 17.0772 108.606C18.9966 107.607 22.1088 107.588 24.0366 108.606Z" fill="black"/>
</g>
<path d="M17.3502 98.642C16.3212 97.4897 15.1326 96.4296 14.1918 95.2043C13.5492 94.3669 13.0116 93.3452 13.2804 92.3542C13.4307 91.8989 13.7172 91.491 14.1076 91.1768C14.498 90.8625 14.9767 90.6543 15.4896 90.5758C16.5255 90.4341 17.5822 90.6489 18.4548 91.1788C19.3188 91.7072 20.0774 92.3672 20.6976 93.1301C24.249 97.2448 25.928 102.454 25.3848 107.672C25.3718 108.269 25.169 108.85 24.801 109.343C24.5724 109.584 24.2735 109.759 23.9395 109.85C23.6054 109.94 23.2501 109.942 22.9152 109.854C21.1974 109.385 21.4242 107.265 21.1428 106.013C20.7546 104.299 20.0893 102.647 19.1688 101.112C18.6432 100.241 18.0347 99.4147 17.3502 98.642Z" fill="#FF9E74"/>
<path opacity="0.2" d="M17.3502 98.642C16.3212 97.4897 15.1326 96.4296 14.1918 95.2043C13.5492 94.3669 13.0116 93.3452 13.2804 92.3542C13.4307 91.8989 13.7172 91.491 14.1076 91.1768C14.498 90.8625 14.9767 90.6543 15.4896 90.5758C16.5255 90.4341 17.5822 90.6489 18.4548 91.1788C19.3188 91.7072 20.0774 92.3672 20.6976 93.1301C24.249 97.2448 25.928 102.454 25.3848 107.672C25.3718 108.269 25.169 108.85 24.801 109.343C24.5724 109.584 24.2735 109.759 23.9395 109.85C23.6054 109.94 23.2501 109.942 22.9152 109.854C21.1974 109.385 21.4242 107.265 21.1428 106.013C20.7546 104.299 20.0893 102.647 19.1688 101.112C18.6432 100.241 18.0347 99.4147 17.3502 98.642Z" fill="black"/>
<path d="M23.0202 108.287C22.9868 108.281 22.9565 108.265 22.9344 108.241C22.9123 108.218 22.8996 108.188 22.8984 108.157C22.7808 105.633 21.882 97.0176 15.393 92.1357C15.3789 92.1228 15.3677 92.1075 15.3601 92.0907C15.3524 92.0739 15.3485 92.0559 15.3485 92.0377C15.3485 92.0195 15.3524 92.0015 15.3601 91.9847C15.3677 91.9679 15.3789 91.9526 15.393 91.9398C15.4067 91.927 15.423 91.9168 15.441 91.9099C15.4591 91.903 15.4784 91.8994 15.498 91.8994C15.5175 91.8994 15.5369 91.903 15.5549 91.9099C15.573 91.9168 15.5893 91.927 15.603 91.9398C22.1718 96.8832 23.1 105.595 23.2008 108.145C23.202 108.182 23.1878 108.217 23.1613 108.244C23.1347 108.271 23.0977 108.288 23.058 108.291L23.0202 108.287Z" fill="#F0F0F0"/>
<path d="M23.9694 108.56C23.8348 109.114 23.5795 109.638 23.2187 110.1C22.8579 110.562 22.399 110.952 21.8694 111.249C20.8768 111.678 19.7731 111.847 18.6816 111.736C17.5713 111.613 16.4812 111.368 15.435 111.007C14.9142 110.845 14.3388 110.622 14.28 110.042C14.2708 109.888 14.2991 109.733 14.363 109.59C14.4269 109.446 14.5248 109.318 14.6496 109.213C14.7549 109.118 14.8672 109.029 14.9856 108.948C15.0391 108.91 15.0789 108.858 15.0997 108.799C15.1206 108.741 15.1216 108.677 15.1025 108.618C15.0835 108.559 15.0453 108.506 14.9929 108.467C14.9406 108.428 14.8766 108.404 14.8092 108.398C14.4992 108.381 14.1906 108.347 13.8852 108.295C13.174 108.19 12.5059 107.914 11.949 107.496C11.5426 107.168 11.2347 106.75 11.0544 106.282C10.9542 106.092 10.913 105.881 10.9352 105.671C10.9574 105.461 11.0422 105.26 11.1804 105.091C11.3861 104.937 11.6349 104.839 11.8986 104.807C12.131 104.761 12.362 104.723 12.5916 104.692C12.6578 104.682 12.7187 104.652 12.7652 104.608C12.8116 104.563 12.841 104.507 12.849 104.446C12.8571 104.385 12.8433 104.323 12.8098 104.27C12.7762 104.216 12.7247 104.174 12.663 104.15L11.6844 103.766C11.4038 103.683 11.149 103.539 10.941 103.347C10.814 103.166 10.7317 102.961 10.6997 102.748C10.6678 102.534 10.6871 102.317 10.7562 102.111C10.8738 101.554 11.0838 101.012 11.2308 100.455C11.4004 99.9034 11.422 99.3223 11.2938 98.7613C13.1294 98.5759 14.9864 98.6891 16.779 99.0954C17.3172 99.1988 17.8263 99.4028 18.2742 99.6946C18.553 99.9221 18.764 100.211 18.8874 100.533C19.0108 100.856 19.0426 101.202 18.9798 101.538C18.9796 101.567 18.9896 101.595 19.0083 101.618C19.027 101.64 19.0533 101.657 19.0834 101.665C19.1134 101.673 19.1454 101.671 19.1744 101.661C19.2035 101.651 19.2281 101.632 19.2444 101.607L19.8702 100.551C19.962 100.399 20.1142 100.284 20.2955 100.231C20.4767 100.179 20.6733 100.191 20.8446 100.267C21.3917 100.518 21.8774 100.869 22.2726 101.296C22.4922 101.524 22.6596 101.789 22.7649 102.077C22.8702 102.365 22.9114 102.669 22.8858 102.971C22.8111 103.801 22.6579 104.624 22.428 105.429C22.416 105.475 22.4195 105.523 22.438 105.566C22.4566 105.61 22.4892 105.648 22.5317 105.674C22.5741 105.7 22.6243 105.714 22.6756 105.714C22.7269 105.713 22.7767 105.698 22.8186 105.671L22.848 105.648C23.017 105.53 23.2286 105.475 23.4402 105.495C23.9904 105.556 24.1332 106.067 24.171 106.505C24.1943 107.195 24.1266 107.885 23.9694 108.56Z" fill="#FF9E74"/>
<path opacity="0.2" d="M23.9694 108.56C23.8348 109.114 23.5795 109.638 23.2187 110.1C22.8579 110.562 22.399 110.952 21.8694 111.249C20.8768 111.678 19.7731 111.847 18.6816 111.736C17.5713 111.613 16.4812 111.368 15.435 111.007C14.9142 110.845 14.3388 110.622 14.28 110.042C14.2708 109.888 14.2991 109.733 14.363 109.59C14.4269 109.446 14.5248 109.318 14.6496 109.213C14.7549 109.118 14.8672 109.029 14.9856 108.948C15.0391 108.91 15.0789 108.858 15.0997 108.799C15.1206 108.741 15.1216 108.677 15.1025 108.618C15.0835 108.559 15.0453 108.506 14.9929 108.467C14.9406 108.428 14.8766 108.404 14.8092 108.398C14.4992 108.381 14.1906 108.347 13.8852 108.295C13.174 108.19 12.5059 107.914 11.949 107.496C11.5426 107.168 11.2347 106.75 11.0544 106.282C10.9542 106.092 10.913 105.881 10.9352 105.671C10.9574 105.461 11.0422 105.26 11.1804 105.091C11.3861 104.937 11.6349 104.839 11.8986 104.807C12.131 104.761 12.362 104.723 12.5916 104.692C12.6578 104.682 12.7187 104.652 12.7652 104.608C12.8116 104.563 12.841 104.507 12.849 104.446C12.8571 104.385 12.8433 104.323 12.8098 104.27C12.7762 104.216 12.7247 104.174 12.663 104.15L11.6844 103.766C11.4038 103.683 11.149 103.539 10.941 103.347C10.814 103.166 10.7317 102.961 10.6997 102.748C10.6678 102.534 10.6871 102.317 10.7562 102.111C10.8738 101.554 11.0838 101.012 11.2308 100.455C11.4004 99.9034 11.422 99.3223 11.2938 98.7613C13.1294 98.5759 14.9864 98.6891 16.779 99.0954C17.3172 99.1988 17.8263 99.4028 18.2742 99.6946C18.553 99.9221 18.764 100.211 18.8874 100.533C19.0108 100.856 19.0426 101.202 18.9798 101.538C18.9796 101.567 18.9896 101.595 19.0083 101.618C19.027 101.64 19.0533 101.657 19.0834 101.665C19.1134 101.673 19.1454 101.671 19.1744 101.661C19.2035 101.651 19.2281 101.632 19.2444 101.607L19.8702 100.551C19.962 100.399 20.1142 100.284 20.2955 100.231C20.4767 100.179 20.6733 100.191 20.8446 100.267C21.3917 100.518 21.8774 100.869 22.2726 101.296C22.4922 101.524 22.6596 101.789 22.7649 102.077C22.8702 102.365 22.9114 102.669 22.8858 102.971C22.8111 103.801 22.6579 104.624 22.428 105.429C22.416 105.475 22.4195 105.523 22.438 105.566C22.4566 105.61 22.4892 105.648 22.5317 105.674C22.5741 105.7 22.6243 105.714 22.6756 105.714C22.7269 105.713 22.7767 105.698 22.8186 105.671L22.848 105.648C23.017 105.53 23.2286 105.475 23.4402 105.495C23.9904 105.556 24.1332 106.067 24.171 106.505C24.1943 107.195 24.1266 107.885 23.9694 108.56Z" fill="black"/>
<path opacity="0.2" d="M23.9694 108.56C23.8348 109.114 23.5795 109.638 23.2187 110.1C22.8579 110.562 22.399 110.952 21.8694 111.249C20.8768 111.678 19.7731 111.847 18.6816 111.736C17.5713 111.613 16.4812 111.368 15.435 111.007C14.9142 110.845 14.3388 110.622 14.28 110.042C14.2708 109.888 14.2991 109.733 14.363 109.59C14.4269 109.446 14.5248 109.318 14.6496 109.213C14.7549 109.118 14.8672 109.029 14.9856 108.948C15.0391 108.91 15.0789 108.858 15.0997 108.799C15.1206 108.741 15.1216 108.677 15.1025 108.618C15.0835 108.559 15.0453 108.506 14.9929 108.467C14.9406 108.428 14.8766 108.404 14.8092 108.398C14.4992 108.381 14.1906 108.347 13.8852 108.295C13.174 108.19 12.5059 107.914 11.949 107.496C11.5426 107.168 11.2347 106.75 11.0544 106.282C10.9542 106.092 10.913 105.881 10.9352 105.671C10.9574 105.461 11.0422 105.26 11.1804 105.091C11.3861 104.937 11.6349 104.839 11.8986 104.807C12.131 104.761 12.362 104.723 12.5916 104.692C12.6578 104.682 12.7187 104.652 12.7652 104.608C12.8116 104.563 12.841 104.507 12.849 104.446C12.8571 104.385 12.8433 104.323 12.8098 104.27C12.7762 104.216 12.7247 104.174 12.663 104.15L11.6844 103.766C11.4038 103.683 11.149 103.539 10.941 103.347C10.814 103.166 10.7317 102.961 10.6997 102.748C10.6678 102.534 10.6871 102.317 10.7562 102.111C10.8738 101.554 11.0838 101.012 11.2308 100.455C11.4004 99.9034 11.422 99.3223 11.2938 98.7613C13.1294 98.5759 14.9864 98.6891 16.779 99.0954C17.3172 99.1988 17.8263 99.4028 18.2742 99.6946C18.553 99.9221 18.764 100.211 18.8874 100.533C19.0108 100.856 19.0426 101.202 18.9798 101.538C18.9796 101.567 18.9896 101.595 19.0083 101.618C19.027 101.64 19.0533 101.657 19.0834 101.665C19.1134 101.673 19.1454 101.671 19.1744 101.661C19.2035 101.651 19.2281 101.632 19.2444 101.607L19.8702 100.551C19.962 100.399 20.1142 100.284 20.2955 100.231C20.4767 100.179 20.6733 100.191 20.8446 100.267C21.3917 100.518 21.8774 100.869 22.2726 101.296C22.4922 101.524 22.6596 101.789 22.7649 102.077C22.8702 102.365 22.9114 102.669 22.8858 102.971C22.8111 103.801 22.6579 104.624 22.428 105.429C22.416 105.475 22.4195 105.523 22.438 105.566C22.4566 105.61 22.4892 105.648 22.5317 105.674C22.5741 105.7 22.6243 105.714 22.6756 105.714C22.7269 105.713 22.7767 105.698 22.8186 105.671L22.848 105.648C23.017 105.53 23.2286 105.475 23.4402 105.495C23.9904 105.556 24.1332 106.067 24.171 106.505C24.1943 107.195 24.1266 107.885 23.9694 108.56Z" fill="white"/>
<path d="M21.063 111.094C20.7174 109.749 20.2235 108.439 19.5888 107.184C19.588 107.165 19.5828 107.146 19.5734 107.129C19.5639 107.112 19.5506 107.096 19.5342 107.084L19.4334 106.877C19.6131 105.316 20.1072 103.799 20.8908 102.402C20.9042 102.386 20.9137 102.368 20.9188 102.349C20.9238 102.329 20.9242 102.309 20.9199 102.29C20.9157 102.27 20.9069 102.252 20.8941 102.236C20.8813 102.22 20.8649 102.206 20.846 102.196C20.827 102.187 20.806 102.181 20.7843 102.179C20.7626 102.177 20.7408 102.18 20.7203 102.187C20.6999 102.194 20.6812 102.204 20.6657 102.218C20.6502 102.232 20.6381 102.249 20.6304 102.268C19.8966 103.569 19.4108 104.976 19.194 106.427C17.7543 103.68 15.5891 101.304 12.894 99.5135C12.8778 99.5017 12.8591 99.4931 12.8392 99.4882C12.8192 99.4832 12.7983 99.4821 12.7779 99.4849C12.7574 99.4876 12.7378 99.4941 12.7202 99.5041C12.7026 99.5141 12.6874 99.5272 12.6756 99.5428C12.6638 99.5583 12.6556 99.5759 12.6516 99.5944C12.6475 99.613 12.6476 99.6321 12.6519 99.6506C12.6563 99.6691 12.6647 99.6866 12.6767 99.702C12.6887 99.7174 12.7041 99.7304 12.7218 99.7401C15.8928 101.757 17.8962 104.557 19.11 106.877C17.4688 106.19 15.6425 105.962 13.86 106.22C13.8405 106.223 13.8219 106.229 13.8052 106.239C13.7885 106.248 13.774 106.26 13.7627 106.275C13.7513 106.29 13.7433 106.306 13.7391 106.324C13.7349 106.342 13.7346 106.36 13.7382 106.377C13.7447 106.405 13.7596 106.43 13.7812 106.449C13.8028 106.469 13.8302 106.483 13.86 106.489H13.9146C13.944 106.489 16.8126 106.005 19.2948 107.276C19.9271 108.517 20.4169 109.815 20.7564 111.148C20.7636 111.175 20.7789 111.199 20.8004 111.218C20.8219 111.237 20.8489 111.25 20.8782 111.256C20.8976 111.259 20.9176 111.259 20.937 111.256C20.957 111.253 20.9761 111.246 20.9933 111.237C21.0106 111.227 21.0255 111.214 21.0372 111.199C21.049 111.184 21.0573 111.167 21.0617 111.149C21.0662 111.131 21.0666 111.112 21.063 111.094Z" fill="#F0F0F0"/>
<path d="M191.856 108.679L185.22 108.855L178.567 108.679C178.282 112.785 179.159 116.972 180.369 119.015C180.655 119.54 181.115 119.968 181.684 120.24C183.649 121.274 186.816 121.274 188.769 120.24C189.348 119.965 189.81 119.522 190.084 118.98C191.272 116.925 192.142 112.766 191.856 108.679Z" fill="white"/>
<path d="M189.895 106.186C192.499 107.561 192.511 109.793 189.924 111.179C187.337 112.566 183.124 112.555 180.52 111.179C177.916 109.804 177.899 107.573 180.491 106.186C183.082 104.799 187.286 104.811 189.895 106.186Z" fill="#EBEBEB"/>
<path d="M188.861 106.735C190.894 107.807 190.907 109.547 188.887 110.622C186.866 111.698 183.582 111.694 181.549 110.622C179.516 109.55 179.508 107.807 181.524 106.735C183.54 105.663 186.829 105.659 188.861 106.735Z" fill="#E0E0E0"/>
<g opacity="0.15">
<path d="M188.861 106.735C190.894 107.807 190.907 109.547 188.887 110.622C186.866 111.698 183.582 111.694 181.549 110.622C179.516 109.55 179.508 107.807 181.524 106.735C183.54 105.663 186.829 105.659 188.861 106.735Z" fill="black"/>
</g>
<path d="M196.14 82.7246C181.154 87.2148 181.02 96.3834 184.38 102.913C185.22 104.235 187.811 104.941 190.054 96.8213L186.119 97.2861L190.705 95.1581L191.898 91.9009L188.072 92.1621L192.927 90.2915C193.827 87.7112 194.9 85.1841 196.14 82.7246Z" fill="#FF9E74"/>
<path opacity="0.2" d="M196.14 82.7246C181.154 87.2148 181.02 96.3834 184.38 102.913C185.22 104.235 187.811 104.941 190.054 96.8213L186.119 97.2861L190.705 95.1581L191.898 91.9009L188.072 92.1621L192.927 90.2915C193.827 87.7112 194.9 85.1841 196.14 82.7246Z" fill="black"/>
<path opacity="0.2" d="M196.14 82.7246C181.154 87.2148 181.02 96.3834 184.38 102.913C185.22 104.235 187.811 104.941 190.054 96.8213L186.119 97.2861L190.705 95.1581L191.898 91.9009L188.072 92.1621L192.927 90.2915C193.827 87.7112 194.9 85.1841 196.14 82.7246Z" fill="white"/>
<path d="M191.902 85.0176C183.998 90.5026 183.284 96.7943 185.518 103.359C184.729 97.5625 183.876 91.7318 191.902 85.0176Z" fill="white"/>
<path d="M170.755 92.0391C185.531 93.9404 187.32 102.46 185.363 109.055C184.808 110.415 182.536 111.467 178.97 104.246L182.721 104.077L178.08 102.794L176.375 99.944L179.987 99.6021L175.123 98.5996C173.817 96.3323 172.358 94.1412 170.755 92.0391Z" fill="#FF9E74"/>
<path opacity="0.2" d="M170.755 92.0391C185.531 93.9404 187.32 102.46 185.363 109.055C184.808 110.415 182.536 111.467 178.97 104.246L182.721 104.077L178.08 102.794L176.375 99.944L179.987 99.6021L175.123 98.5996C173.817 96.3323 172.358 94.1412 170.755 92.0391Z" fill="white"/>
<path opacity="0.1" d="M170.755 92.0391C185.531 93.9404 187.32 102.46 185.363 109.055C184.808 110.415 182.536 111.467 178.97 104.246L182.721 104.077L178.08 102.794L176.375 99.944L179.987 99.6021L175.123 98.5996C173.817 96.3323 172.358 94.1412 170.755 92.0391Z" fill="black"/>
<path d="M175.14 93.5293C183.494 97.4395 185.3 103.186 184.414 109.643C184.082 104.138 183.817 98.5649 175.14 93.5293Z" fill="white"/>
<path d="M200.462 95.2305C186.917 95.434 184.258 102.913 185.22 109.058C185.552 110.341 187.471 111.52 191.566 105.379L188.206 104.841L192.566 104.161L194.46 101.787L191.247 101.111L195.72 100.7C197.177 98.7898 198.76 96.9631 200.462 95.2305Z" fill="#FF9E74"/>
<path d="M196.346 96.1299C188.336 98.7956 186.005 103.812 186.014 109.7C186.971 104.772 187.895 99.775 196.346 96.1299Z" fill="white"/>
<path opacity="0.2" d="M200.462 95.2305C186.917 95.434 184.258 102.913 185.22 109.058C185.552 110.341 187.471 111.52 191.566 105.379L188.206 104.841L192.566 104.161L194.46 101.787L191.247 101.111L195.72 100.7C197.177 98.7898 198.76 96.9631 200.462 95.2305Z" fill="white"/>
<path d="M23.163 72.5459L23.1462 67.1761L20.0802 65.582L20.097 70.8251V70.9441L23.163 72.5459Z" fill="#FF9E74"/>
<path d="M23.3561 134.729L23.1629 72.5461L20.0969 70.9443L20.2901 133.012C20.2697 133.212 20.3067 133.413 20.3973 133.595C20.4879 133.778 20.629 133.936 20.8067 134.053L23.8265 135.743C23.6617 135.623 23.5324 135.468 23.4502 135.291C23.368 135.114 23.3357 134.92 23.3561 134.729Z" fill="#FF9E74"/>
<path opacity="0.2" d="M23.3561 134.729L23.1629 72.5461L20.0969 70.9443L20.2901 133.012C20.2697 133.212 20.3067 133.413 20.3973 133.595C20.4879 133.778 20.629 133.936 20.8067 134.053L23.8265 135.743C23.6617 135.623 23.5324 135.468 23.4502 135.291C23.368 135.114 23.3357 134.92 23.3561 134.729Z" fill="white"/>
<path d="M23.1556 67.1643V64.0722C23.1886 63.4983 23.3694 62.9396 23.6833 62.4416C23.9971 61.9437 24.4351 61.5206 24.9616 61.2068L127.442 7.10545C127.623 6.98812 127.834 6.91551 128.055 6.89465C128.275 6.87379 128.498 6.90539 128.702 6.98637L125.678 5.28863C125.471 5.19408 125.24 5.15338 125.009 5.171C124.779 5.18861 124.558 5.26386 124.371 5.38849L21.8914 59.486C21.3639 59.7997 20.9252 60.2233 20.6112 60.7221C20.2973 61.2208 20.1171 61.7805 20.0854 62.3552V65.4281V65.551L23.1514 67.1451L23.1556 67.1643Z" fill="#FF9E74"/>
<path opacity="0.3" d="M23.1556 67.1643V64.0722C23.1886 63.4983 23.3694 62.9396 23.6833 62.4416C23.9971 61.9437 24.4351 61.5206 24.9616 61.2068L127.442 7.10545C127.623 6.98812 127.834 6.91551 128.055 6.89465C128.275 6.87379 128.498 6.90539 128.702 6.98637L125.678 5.28863C125.471 5.19408 125.24 5.15338 125.009 5.171C124.779 5.18861 124.558 5.26386 124.371 5.38849L21.8914 59.486C21.3639 59.7997 20.9252 60.2233 20.6112 60.7221C20.2973 61.2208 20.1171 61.7805 20.0854 62.3552V65.4281V65.551L23.1514 67.1451L23.1556 67.1643Z" fill="white"/>
<path opacity="0.2" d="M23.163 72.5459L23.1462 67.1761L20.0802 65.582L20.097 70.8251V70.9441L23.163 72.5459Z" fill="black"/>
<path opacity="0.2" d="M23.163 72.5459L23.1462 67.1761L20.0802 65.582L20.097 70.8251V70.9441L23.163 72.5459Z" fill="white"/>
<path d="M127.411 7.10533C128.411 6.5791 129.226 7.00546 129.23 8.05791V11.1538L23.1546 67.1641V64.0721C23.1876 63.4981 23.3684 62.9394 23.6822 62.4415C23.9961 61.9436 24.4341 61.5205 24.9606 61.2067L127.411 7.10533Z" fill="#FF9E74"/>
<path d="M120.54 12.2252C121.073 11.9409 121.51 12.1675 121.514 12.7322C121.496 13.04 121.399 13.3396 121.23 13.6066C121.062 13.8736 120.827 14.1004 120.544 14.2686C120.011 14.549 119.574 14.3224 119.574 13.7577C119.589 13.4502 119.684 13.1504 119.853 12.8837C120.021 12.617 120.256 12.3911 120.54 12.2252Z" fill="white"/>
<path d="M123.505 10.6627C124.039 10.3784 124.475 10.605 124.475 11.1697C124.459 11.4775 124.363 11.7773 124.195 12.0445C124.027 12.3116 123.792 12.5384 123.509 12.7061C122.972 12.9865 122.539 12.7599 122.535 12.1991C122.552 11.891 122.649 11.5911 122.818 11.324C122.986 11.0568 123.222 10.8302 123.505 10.6627Z" fill="white"/>
<path d="M126.458 9.09876C126.995 8.81836 127.432 9.04498 127.432 9.60578C127.418 9.914 127.323 10.2145 127.155 10.482C126.986 10.7494 126.75 10.9759 126.466 11.1422C125.929 11.4264 125.496 11.1998 125.492 10.6352C125.51 10.3278 125.607 10.0287 125.775 9.76181C125.943 9.49495 126.177 9.26785 126.458 9.09876Z" fill="white"/>
<path d="M44.4906 52.8328C44.8896 52.6215 45.2592 52.6561 45.4524 52.9288L46.4142 54.2847C46.6032 54.5536 46.9686 54.5958 47.3718 54.3846L129.23 11.1611V16.5386L23.163 72.5528V67.1753L26.3046 65.516C26.7506 65.2543 27.0877 64.8635 27.2622 64.4059L28.2114 62.0398C28.3859 61.5844 28.7213 61.1951 29.1648 60.9336L44.4906 52.8328Z" fill="#E0E0E0"/>
<path d="M129.247 16.5156L129.44 78.6985C129.405 79.2725 129.223 79.831 128.909 80.3288C128.594 80.8266 128.156 81.2497 127.63 81.564L25.1748 135.677C24.171 136.207 23.3562 135.781 23.3562 134.728L23.163 72.5452L129.247 16.5156Z" fill="#FF9E74"/>
<g opacity="0.4">
<path d="M129.247 16.5156L129.44 78.6985C129.405 79.2725 129.223 79.831 128.909 80.3288C128.594 80.8266 128.156 81.2497 127.63 81.564L25.1748 135.677C24.171 136.207 23.3562 135.781 23.3562 134.728L23.163 72.5452L129.247 16.5156Z" fill="white"/>
</g>
<path d="M125.051 14.4647C125.761 14.0806 126.34 14.3879 126.34 15.1369C126.317 15.5445 126.189 15.9414 125.967 16.2952C125.744 16.649 125.433 16.9497 125.059 17.1726L35.28 64.5867C34.5702 64.9708 33.9906 64.6635 33.9864 63.9145C34.0101 63.5065 34.1389 63.1095 34.3622 62.7557C34.5856 62.402 34.8972 62.1015 35.2716 61.8787L125.051 14.4647Z" fill="white"/>
<path d="M24.8598 67.6516C24.8789 67.6394 24.9016 67.6328 24.9249 67.6328C24.9482 67.6328 24.9709 67.6394 24.99 67.6516C25.0614 67.6939 25.053 67.8168 24.99 67.9282L24.4146 68.754L25.9014 67.9858C26.0022 67.932 26.0862 67.9858 26.0862 68.078C26.0811 68.1356 26.0618 68.1915 26.0298 68.2413C25.9978 68.2912 25.9539 68.3338 25.9014 68.366L24.4146 69.1343L24.9858 69.3801C25.0572 69.4147 25.0656 69.5337 24.9858 69.6451C24.9547 69.6989 24.9082 69.744 24.8514 69.7757C24.8336 69.7879 24.8129 69.796 24.791 69.7994C24.769 69.8027 24.7465 69.8012 24.7254 69.7949L23.814 69.4108L23.7804 69.3762V69.3071V69.2226L23.8098 69.1535L24.7212 67.7937C24.75 67.7343 24.7985 67.6846 24.8598 67.6516Z" fill="#E0E0E0"/>
<path d="M28.0728 65.9548C28.0924 65.946 28.114 65.9414 28.1358 65.9414C28.1576 65.9414 28.1792 65.946 28.1988 65.9548L29.1102 66.3389L29.148 66.3773V66.4465V66.5271V66.5463L29.1144 66.6116L28.2072 67.9867C28.1764 68.0342 28.1331 68.0738 28.0812 68.102C28.0621 68.1142 28.0394 68.1207 28.0161 68.1207C27.9928 68.1207 27.9701 68.1142 27.951 68.102C27.8838 68.0635 27.8838 67.9406 27.951 67.8292L28.5138 66.9842L27.027 67.7524C26.9304 67.8062 26.8464 67.7524 26.8464 67.6564C26.8516 67.5997 26.8705 67.5449 26.9018 67.4957C26.933 67.4466 26.9758 67.4044 27.027 67.3722L28.5138 66.6039L27.9468 66.3543C27.8712 66.3235 27.867 66.2045 27.9468 66.0892C27.9768 66.0361 28.0199 65.99 28.0728 65.9548Z" fill="#E0E0E0"/>
<path d="M31.1304 64.3409C31.2191 64.2856 31.3195 64.2478 31.4251 64.23C31.5307 64.2121 31.6391 64.2146 31.7436 64.2372L31.8822 64.072C31.9078 64.0382 31.9407 64.0094 31.9788 63.9875C32.0082 63.9724 32.0418 63.9657 32.0754 63.9683C32.1384 63.9683 32.1678 64.0375 32.1594 64.1181L32.0838 64.629C32.0733 64.6917 32.0458 64.7511 32.004 64.8018C31.9772 64.8337 31.9445 64.8609 31.9074 64.8825L31.8612 64.9017L31.4412 65.0131C31.4262 65.0179 31.4102 65.0195 31.3944 65.0176C31.3786 65.0157 31.3636 65.0104 31.3505 65.0022C31.3374 64.9939 31.3266 64.983 31.319 64.9702C31.3114 64.9574 31.3072 64.9431 31.3068 64.9286C31.3026 64.8872 31.3075 64.8456 31.3212 64.806C31.3349 64.7664 31.3572 64.7297 31.3866 64.6981L31.4286 64.6444C31.3306 64.6481 31.2352 64.6745 31.1514 64.7212C30.9626 64.8353 30.8055 64.9882 30.6925 65.1675C30.5795 65.3468 30.5138 65.5478 30.5004 65.7544C30.5004 66.1385 30.7986 66.2845 31.1556 66.0963C31.4206 65.9405 31.6226 65.7099 31.731 65.4394C31.7586 65.3637 31.8133 65.2987 31.8864 65.2551C31.9131 65.2404 31.9435 65.2325 31.9746 65.232C32.0628 65.232 32.0964 65.3396 32.046 65.4548C31.8826 65.8769 31.5691 66.2367 31.1556 66.4765C30.597 66.7723 30.1392 66.5342 30.1392 65.9465C30.1556 65.6266 30.2539 65.3147 30.426 65.0359C30.5981 64.757 30.8394 64.519 31.1304 64.3409Z" fill="#E0E0E0"/>
<g opacity="0.3">
<path d="M24.8598 67.6516C24.8789 67.6394 24.9016 67.6328 24.9249 67.6328C24.9482 67.6328 24.9709 67.6394 24.99 67.6516C25.0614 67.6939 25.053 67.8168 24.99 67.9282L24.4146 68.754L25.9014 67.9858C26.0022 67.932 26.0862 67.9858 26.0862 68.078C26.0811 68.1356 26.0618 68.1915 26.0298 68.2413C25.9978 68.2912 25.9539 68.3338 25.9014 68.366L24.4146 69.1343L24.9858 69.3801C25.0572 69.4147 25.0656 69.5337 24.9858 69.6451C24.9547 69.6989 24.9082 69.744 24.8514 69.7757C24.8336 69.7879 24.8129 69.796 24.791 69.7994C24.769 69.8027 24.7465 69.8012 24.7254 69.7949L23.814 69.4108L23.7804 69.3762V69.3071V69.2226L23.8098 69.1535L24.7212 67.7937C24.75 67.7343 24.7985 67.6846 24.8598 67.6516Z" fill="black"/>
</g>
<g opacity="0.3">
<path d="M28.0728 65.9548C28.0924 65.946 28.114 65.9414 28.1358 65.9414C28.1576 65.9414 28.1792 65.946 28.1988 65.9548L29.1102 66.3389L29.148 66.3773V66.4465V66.5271V66.5463L29.1144 66.6116L28.2072 67.9867C28.1764 68.0342 28.1331 68.0738 28.0812 68.102C28.0621 68.1142 28.0394 68.1207 28.0161 68.1207C27.9928 68.1207 27.9701 68.1142 27.951 68.102C27.8838 68.0635 27.8838 67.9406 27.951 67.8292L28.5138 66.9842L27.027 67.7524C26.9304 67.8062 26.8464 67.7524 26.8464 67.6564C26.8516 67.5997 26.8705 67.5449 26.9018 67.4957C26.933 67.4466 26.9758 67.4044 27.027 67.3722L28.5138 66.6039L27.9468 66.3543C27.8712 66.3235 27.867 66.2045 27.9468 66.0892C27.9768 66.0361 28.0199 65.99 28.0728 65.9548Z" fill="black"/>
</g>
<g opacity="0.3">
<path d="M31.1304 64.3409C31.2191 64.2856 31.3195 64.2478 31.4251 64.23C31.5307 64.2121 31.6391 64.2146 31.7436 64.2372L31.8822 64.072C31.9078 64.0382 31.9407 64.0094 31.9788 63.9875C32.0082 63.9724 32.0418 63.9657 32.0754 63.9683C32.1384 63.9683 32.1678 64.0375 32.1594 64.1181L32.0838 64.629C32.0733 64.6917 32.0458 64.7511 32.004 64.8018C31.9772 64.8337 31.9445 64.8609 31.9074 64.8825L31.8612 64.9017L31.4412 65.0131C31.4262 65.0179 31.4102 65.0195 31.3944 65.0176C31.3786 65.0157 31.3636 65.0104 31.3505 65.0022C31.3374 64.9939 31.3266 64.983 31.319 64.9702C31.3114 64.9574 31.3072 64.9431 31.3068 64.9286C31.3026 64.8872 31.3075 64.8456 31.3212 64.806C31.3349 64.7664 31.3572 64.7297 31.3866 64.6981L31.4286 64.6444C31.3306 64.6481 31.2352 64.6745 31.1514 64.7212C30.9626 64.8353 30.8055 64.9882 30.6925 65.1675C30.5795 65.3468 30.5138 65.5478 30.5004 65.7544C30.5004 66.1385 30.7986 66.2845 31.1556 66.0963C31.4206 65.9405 31.6226 65.7099 31.731 65.4394C31.7586 65.3637 31.8133 65.2987 31.8864 65.2551C31.9131 65.2404 31.9435 65.2325 31.9746 65.232C32.0628 65.232 32.0964 65.3396 32.046 65.4548C31.8826 65.8769 31.5691 66.2367 31.1556 66.4765C30.597 66.7723 30.1392 66.5342 30.1392 65.9465C30.1556 65.6266 30.2539 65.3147 30.426 65.0359C30.5981 64.757 30.8394 64.519 31.1304 64.3409Z" fill="black"/>
</g>
<g opacity="0.6">
<path d="M89.2206 52.9067L89.313 83.6582C89.315 84.669 89.0261 85.6626 88.4754 86.5391C87.9247 87.4156 87.1315 88.1441 86.1756 88.6515L33.2136 116.768C32.8949 116.937 32.5331 117.027 32.1645 117.028C31.796 117.028 31.4337 116.941 31.1141 116.773C30.7945 116.605 30.5287 116.363 30.3436 116.072C30.1585 115.78 30.0604 115.45 30.0594 115.113L29.967 84.3611C29.965 83.3502 30.2539 82.3567 30.8046 81.4802C31.3553 80.6037 32.1484 79.8752 33.1044 79.3677L86.0664 51.2704C86.3836 51.1019 86.7435 51.0124 87.1102 51.0108C87.477 51.0091 87.8379 51.0953 88.1569 51.2608C88.4759 51.4263 88.742 51.6653 88.9286 51.9541C89.1152 52.2428 89.2159 52.5713 89.2206 52.9067Z" fill="white"/>
</g>
<g opacity="0.6">
<path d="M109.385 40.477L109.41 48.3972C109.408 48.6653 109.33 48.9284 109.182 49.1602C109.035 49.392 108.824 49.5845 108.57 49.7185L93.9036 57.4007C93.819 57.4458 93.7229 57.4698 93.625 57.4702C93.527 57.4707 93.4307 57.4475 93.3456 57.4032C93.2605 57.3588 93.1896 57.2948 93.1401 57.2175C93.0907 57.1402 93.0643 57.0524 93.0636 56.9628L93.0426 49.054C93.0436 48.7853 93.1218 48.5214 93.2692 48.2889C93.4166 48.0564 93.6281 47.8633 93.8826 47.7289L108.549 40.0468C108.633 40.0017 108.728 39.9775 108.825 39.9766C108.922 39.9757 109.018 39.9982 109.102 40.0417C109.187 40.0853 109.258 40.1484 109.307 40.2248C109.357 40.3012 109.384 40.3881 109.385 40.477Z" fill="white"/>
</g>
<path d="M99.5778 46.8223L104.143 47.1833L99.5946 52.3534L99.5778 46.8223Z" fill="#FF9E74"/>
<g opacity="0.3">
<path d="M99.5778 46.8223L104.143 47.1833L99.5946 52.3534L99.5778 46.8223Z" fill="white"/>
</g>
<g opacity="0.6">
<path d="M38.0982 70.049V73.7287C38.0983 73.8531 38.0626 73.9754 37.9948 74.0832C37.927 74.1911 37.8294 74.2807 37.7118 74.3433L30.891 77.9193C30.8516 77.9401 30.807 77.9511 30.7615 77.9512C30.7161 77.9513 30.6714 77.9406 30.6319 77.92C30.5924 77.8994 30.5594 77.8697 30.5364 77.8339C30.5133 77.798 30.5009 77.7573 30.5004 77.7157V74.0398C30.4996 73.9148 30.5349 73.7917 30.6028 73.6832C30.6706 73.5746 30.7686 73.4843 30.8868 73.4214L37.7076 69.8454C37.7468 69.8233 37.7917 69.8113 37.8376 69.8106C37.8836 69.8099 37.929 69.8205 37.9689 69.8413C38.0089 69.8621 38.0419 69.8924 38.0647 69.9289C38.0874 69.9655 38.099 70.0069 38.0982 70.049Z" fill="white"/>
</g>
<path d="M33.537 73.0029L35.6622 73.1681L33.5454 75.5726L33.537 73.0029Z" fill="#FF9E74"/>
<g opacity="0.3">
<path d="M33.537 73.0029L35.6622 73.1681L33.5454 75.5726L33.537 73.0029Z" fill="white"/>
</g>
<g opacity="0.7">
<path d="M77.028 50.291L77.0364 52.2768L70.8666 55.5341L70.8624 53.5482L77.028 50.291Z" fill="white"/>
<path d="M88.8594 44.041L88.8636 46.0307L80.64 50.3711L80.6358 48.3853L88.8594 44.041Z" fill="white"/>
<path d="M112.64 31.4844L112.644 33.474L106.474 36.7313L106.47 34.7454L112.64 31.4844Z" fill="white"/>
<path d="M124.471 25.2393L124.475 27.2251L116.252 31.5693L116.243 29.5835L124.471 25.2393Z" fill="white"/>
<path d="M102.236 36.9814L102.245 38.9673L92.4252 44.1489L92.421 42.163L102.236 36.9814Z" fill="white"/>
</g>
<path d="M121.951 34.3848L121.955 36.144L111.476 41.6175L111.468 39.8583L121.951 34.3848Z" fill="white"/>
<path d="M119.15 38.6523L119.154 39.9391L111.472 43.953L111.468 42.6624L119.15 38.6523Z" fill="white"/>
<path d="M116.311 42.0596L116.315 43.3502L111.472 45.8661L111.468 44.5755L116.311 42.0596Z" fill="white"/>
<g opacity="0.6">
<path d="M109.385 52.9143L109.41 60.823C109.409 61.0918 109.331 61.3556 109.183 61.5882C109.036 61.8207 108.825 62.0138 108.57 62.1482L93.9036 69.8303C93.819 69.8755 93.7229 69.8994 93.625 69.8999C93.527 69.9003 93.4307 69.8772 93.3456 69.8329C93.2605 69.7885 93.1896 69.7245 93.1401 69.6472C93.0907 69.5699 93.0643 69.482 93.0636 69.3924L93.0426 61.4837C93.0436 61.2149 93.1218 60.9511 93.2692 60.7186C93.4166 60.486 93.6281 60.2929 93.8826 60.1585L108.549 52.4764C108.633 52.431 108.729 52.4068 108.827 52.4063C108.925 52.4057 109.021 52.4289 109.106 52.4733C109.191 52.5178 109.261 52.582 109.31 52.6595C109.359 52.7369 109.385 52.8248 109.385 52.9143Z" fill="white"/>
</g>
<path d="M99.5778 59.2588L104.143 59.6198L99.5946 64.7899L99.5778 59.2588Z" fill="#FF9E74"/>
<g opacity="0.3">
<path d="M99.5778 59.2588L104.143 59.6198L99.5946 64.7899L99.5778 59.2588Z" fill="white"/>
</g>
<path d="M124.181 45.6895L124.186 47.4487L111.476 54.0553L111.468 52.2961L124.181 45.6895Z" fill="white"/>
<path d="M121.065 50.0791V51.3697L111.472 56.39L111.468 55.0994L121.065 50.0791Z" fill="white"/>
<path d="M116.311 54.5L116.315 55.7906L111.472 58.3026L111.468 57.0159L116.311 54.5Z" fill="white"/>
<g opacity="0.6">
<path d="M109.385 65.3518L109.41 73.2605C109.409 73.5293 109.331 73.7931 109.183 74.0257C109.036 74.2582 108.825 74.4513 108.57 74.5857L93.9036 82.2678C93.819 82.313 93.7229 82.3369 93.625 82.3374C93.527 82.3378 93.4307 82.3147 93.3456 82.2704C93.2605 82.226 93.1896 82.162 93.1401 82.0847C93.0907 82.0074 93.0643 81.9195 93.0636 81.8299L93.0426 73.9212C93.0436 73.6524 93.1218 73.3886 93.2692 73.1561C93.4166 72.9235 93.6281 72.7304 93.8826 72.596L108.549 64.9139C108.633 64.8685 108.729 64.8443 108.827 64.8438C108.925 64.8432 109.021 64.8664 109.106 64.9108C109.191 64.9553 109.261 65.0195 109.31 65.097C109.359 65.1744 109.385 65.2623 109.385 65.3518Z" fill="white"/>
</g>
<path d="M99.5778 71.6973L104.143 72.0583L99.5946 77.2284L99.5778 71.6973Z" fill="#FF9E74"/>
<g opacity="0.3">
<path d="M99.5778 71.6973L104.143 72.0583L99.5946 77.2284L99.5778 71.6973Z" fill="white"/>
</g>
<path d="M122.8 58.8252L122.804 60.5844L111.476 66.4958L111.468 64.7327L122.8 58.8252Z" fill="white"/>
<path d="M116.861 64.748L116.865 66.0386L111.472 68.8273L111.468 67.5367L116.861 64.748Z" fill="white"/>
<path d="M120.12 64.9326V66.2232L111.472 70.7441L111.468 69.4535L120.12 64.9326Z" fill="white"/>
<g opacity="0.6">
<path d="M109.385 77.7883L109.41 85.6971C109.409 85.9658 109.331 86.2297 109.183 86.4622C109.036 86.6947 108.825 86.8878 108.57 87.0222L93.9036 94.7043C93.819 94.7495 93.7229 94.7735 93.625 94.7739C93.527 94.7743 93.4307 94.7512 93.3456 94.7069C93.2605 94.6625 93.1896 94.5985 93.1401 94.5212C93.0907 94.4439 93.0643 94.356 93.0636 94.2665L93.0426 86.3577C93.0436 86.0889 93.1218 85.8251 93.2692 85.5926C93.4166 85.3601 93.6281 85.167 93.8826 85.0326L108.549 77.3504C108.633 77.305 108.729 77.2808 108.827 77.2803C108.925 77.2797 109.021 77.3029 109.106 77.3474C109.191 77.3918 109.261 77.456 109.31 77.5335C109.359 77.6109 109.385 77.6989 109.385 77.7883Z" fill="white"/>
</g>
<path d="M99.5778 84.1377L104.143 84.4949L99.5946 89.665L99.5778 84.1377Z" fill="#FF9E74"/>
<g opacity="0.3">
<path d="M99.5778 84.1377L104.143 84.4949L99.5946 89.665L99.5778 84.1377Z" fill="white"/>
</g>
<path d="M124.295 70.5098L124.299 72.2728L111.476 78.9332L111.468 77.1702L124.295 70.5098Z" fill="white"/>
<path d="M119.15 75.9639L119.154 77.2545L111.472 81.2645L111.468 79.9739L119.15 75.9639Z" fill="white"/>
<path d="M121.955 76.3789L121.96 77.6695L111.472 83.1814L111.468 81.8908L121.955 76.3789Z" fill="white"/>
<path d="M46.9098 65.7695L46.914 67.0601L39.2322 71.0702L39.228 69.7834L46.9098 65.7695Z" fill="white"/>
<path d="M44.0706 69.1807L44.0748 70.4713L39.2322 72.9872L39.228 71.6966L44.0706 69.1807Z" fill="white"/>
<path d="M75.9738 64.4682C75.9743 64.282 75.921 64.099 75.8193 63.9377C75.7175 63.7764 75.571 63.6425 75.3945 63.5497C75.2179 63.4569 75.0177 63.4084 74.8141 63.4092C74.6105 63.4099 74.4107 63.4599 74.235 63.554L44.9862 79.0681C44.4615 79.3483 44.026 79.7492 43.7232 80.231C43.4204 80.7128 43.2607 81.2587 43.26 81.8144V85.0256L75.9822 67.664L75.9738 64.4682Z" fill="#FF9E74"/>
<path d="M43.26 85.0403L43.3062 103.808C43.307 103.993 43.3611 104.176 43.4631 104.336C43.5652 104.497 43.7116 104.63 43.8877 104.723C44.0638 104.815 44.2634 104.864 44.4665 104.864C44.6696 104.864 44.8691 104.815 45.045 104.722L74.2938 89.204C74.8227 88.9239 75.2612 88.5209 75.5651 88.036C75.869 87.551 76.0273 87.0012 76.0242 86.4423L75.9822 67.6787L43.26 85.0403Z" fill="#FF9E74"/>
<g opacity="0.5">
<path d="M46.2336 78.4073L43.6926 84.8104L45.9564 83.612L48.4974 77.2051L46.2336 78.4073Z" fill="white"/>
<path d="M51.6264 75.5451L49.0854 81.9481L51.3492 80.7497L53.8902 74.3467L51.6264 75.5451Z" fill="white"/>
<path d="M57.0192 72.6838L54.4782 79.0907L56.742 77.8884L59.283 71.4854L57.0192 72.6838Z" fill="white"/>
<path d="M62.4078 69.8263L59.8668 76.2293L62.1306 75.0271L64.6716 68.624L62.4078 69.8263Z" fill="white"/>
<path d="M67.8006 66.9649L65.2596 73.368L67.5234 72.1696L70.0644 65.7627L67.8006 66.9649Z" fill="white"/>
<path d="M74.235 63.5539L73.1934 64.1032L70.6524 70.51L72.9162 69.3078L75.2262 63.4847C75.066 63.427 74.8936 63.4031 74.7219 63.4151C74.5502 63.4271 74.3837 63.4745 74.235 63.5539Z" fill="white"/>
</g>
<path opacity="0.9" d="M68.3088 83.6229L60.165 79.0137L52.08 92.1885L56.5866 89.8109L56.616 98.5839L63.8274 94.7582L63.798 86.0006L68.3088 83.6229Z" fill="white"/>
<path d="M63.4452 106.028L76.2594 99.2638L76.2552 97.7773L63.441 104.545L63.4452 106.028Z" fill="white"/>
<path d="M81.6774 94.916L78.0528 96.8289L78.057 98.3115L81.6816 96.3987L81.6774 94.916Z" fill="white"/>
<path d="M54.9066 114.213L54.9024 112.73L51.2736 114.643L51.282 116.126L54.9066 114.213Z" fill="white"/>
<path d="M61.5468 105.544L44.058 114.778L44.0622 116.26L61.551 107.027L61.5468 105.544Z" fill="white"/>
<path d="M41.5884 117.567L41.5842 116.084L30.135 122.13L30.1392 123.612L41.5884 117.567Z" fill="white"/>
<path d="M48.5562 117.567L48.552 116.084L30.1476 125.802L30.1518 127.285L48.5562 117.567Z" fill="white"/>
<path d="M57.6408 111.287L57.645 112.769L69.5814 106.466V104.979L57.6408 111.287Z" fill="white"/>
<path d="M179.407 46.8995C177.471 45.8739 175.833 46.3771 175.312 47.9673C174.842 47.0925 174.115 46.3545 173.212 45.8355C171.696 45.0327 170.457 45.678 170.453 47.2721V48.0134L168.416 46.9379C167.349 46.3771 166.488 46.8265 166.484 47.9442C166.517 48.5537 166.708 49.1472 167.042 49.6755C167.376 50.2039 167.842 50.6519 168.403 50.9825L185.661 60.0974C186.728 60.6581 187.593 60.2087 187.593 59.091C187.56 58.4815 187.369 57.8881 187.035 57.3597C186.701 56.8313 186.234 56.3833 185.674 56.0527L183.637 54.9734V53.629C183.658 51.1477 181.759 48.1401 179.407 46.8995Z" fill="#E6E6E6"/>
<path d="M176.148 49.0996L178.727 53.417L177.169 52.595L177.16 55.7869L175.098 54.696L175.106 51.5041L173.548 50.6821L176.148 49.0996Z" fill="#FF9E74"/>
<path d="M177.169 56.2325L177.164 57.4501L175.102 56.3631L175.106 55.1416L177.169 56.2325Z" fill="#FF9E74"/>
<path d="M177.169 57.9424L177.164 58.5532L175.102 57.4623L175.106 56.8516L177.169 57.9424Z" fill="#FF9E74"/>
<path d="M177.169 58.9601L177.164 59.3288L175.102 58.2418L175.106 57.873L177.169 58.9601Z" fill="#FF9E74"/>
<g opacity="0.2">
<path d="M176.148 49.0996L178.727 53.417L177.169 52.595L177.16 55.7869L175.098 54.696L175.106 51.5041L173.548 50.6821L176.148 49.0996Z" fill="white"/>
<path d="M177.169 56.2325L177.164 57.4501L175.102 56.3631L175.106 55.1416L177.169 56.2325Z" fill="white"/>
<path d="M177.169 57.9415L177.164 58.5522L175.102 57.4613L175.106 56.8506L177.169 57.9415Z" fill="white"/>
<path d="M177.169 58.9601L177.164 59.3288L175.102 58.2418L175.106 57.873L177.169 58.9601Z" fill="white"/>
</g>
<path d="M154.182 17.1309C151.318 15.6176 148.894 16.3627 148.126 18.7096C147.43 17.417 146.358 16.3255 145.026 15.5561C142.783 14.373 140.952 15.3256 140.944 17.684V18.7672L137.928 17.177C136.353 16.3474 135.076 17.0157 135.068 18.6674C135.12 19.5686 135.404 20.4459 135.898 21.2275C136.391 22.0092 137.08 22.6731 137.907 23.1652L163.456 36.655C165.026 37.4847 166.312 36.8202 166.316 35.1647C166.263 34.2631 165.978 33.3856 165.484 32.6039C164.99 31.8222 164.301 31.1585 163.472 30.6668L160.44 29.0728V27.0793C160.474 23.4303 157.664 18.967 154.182 17.1309Z" fill="#E6E6E6"/>
<path d="M149.36 20.3916L153.178 26.7793L150.872 25.5617L150.856 30.2823L147.806 28.6729L147.819 23.9523L145.509 22.7308L149.36 20.3916Z" fill="#FF9E74"/>
<path d="M150.872 30.9434L150.868 32.7525L147.815 31.1393L147.819 29.334L150.872 30.9434Z" fill="#FF9E74"/>
<path d="M150.872 33.4785L150.868 34.3811L147.815 32.7679L147.819 31.8652L150.872 33.4785Z" fill="#FF9E74"/>
<path d="M150.872 34.9844L150.868 35.5298L147.815 33.9204L147.819 33.375L150.872 34.9844Z" fill="#FF9E74"/>
<g opacity="0.2">
<path d="M149.36 20.3916L153.178 26.7793L150.872 25.5617L150.856 30.2823L147.806 28.6729L147.819 23.9523L145.509 22.7308L149.36 20.3916Z" fill="white"/>
<path d="M150.872 30.9434L150.868 32.7525L147.815 31.1393L147.819 29.334L150.872 30.9434Z" fill="white"/>
<path d="M150.872 33.4785L150.868 34.3811L147.815 32.7679L147.819 31.8652L150.872 33.4785Z" fill="white"/>
<path d="M150.872 34.9834L150.868 35.5289L147.815 33.9195L147.819 33.374L150.872 34.9834Z" fill="white"/>
</g>
<path d="M48.1278 17.9181C51.0972 16.3471 53.5878 17.1153 54.4278 19.5583C55.1455 18.2168 56.2564 17.0838 57.6366 16.2857C59.9676 15.0565 61.8618 16.0475 61.8702 18.4943V19.6159L64.995 17.9642C66.6288 17.1038 67.935 17.7991 67.9602 19.5006C67.9067 20.4348 67.6125 21.3442 67.1016 22.1545C66.5906 22.9649 65.8775 23.6534 65.0202 24.1637L38.514 38.1605C36.8802 39.0248 35.574 38.3334 35.5488 36.6241C35.6014 35.6892 35.8951 34.779 36.4061 33.9678C36.9171 33.1567 37.6308 32.4677 38.4888 31.9572L41.6178 30.3055V28.2391C41.601 24.4402 44.52 19.8233 48.1278 17.9181Z" fill="#E6E6E6"/>
<path d="M52.815 39.6741L56.5866 33.367L54.3102 34.5693L54.2934 29.9062L51.282 31.4964L51.2946 36.1595L49.014 37.3656L52.815 39.6741Z" fill="#FF9E74"/>
<path d="M54.3102 29.253L54.306 27.4707L51.2904 29.0609L51.2988 30.847L54.3102 29.253Z" fill="#FF9E74"/>
<path d="M54.3102 26.7525L54.306 25.8613L51.2904 27.4554L51.2988 28.3465L54.3102 26.7525Z" fill="#FF9E74"/>
<path d="M54.3102 25.2662L54.306 24.7246L51.2904 26.3186L51.2988 26.8564L54.3102 25.2662Z" fill="#FF9E74"/>
<g opacity="0.2">
<path d="M52.815 39.6741L56.5866 33.367L54.3102 34.5693L54.2934 29.9062L51.282 31.4964L51.2946 36.1595L49.014 37.3656L52.815 39.6741Z" fill="white"/>
<path d="M54.3102 29.253L54.306 27.4707L51.2904 29.0609L51.2988 30.847L54.3102 29.253Z" fill="white"/>
<path d="M54.3102 26.7525L54.306 25.8613L51.2904 27.4554L51.2988 28.3465L54.3102 26.7525Z" fill="white"/>
<path d="M54.3102 25.2662L54.306 24.7246L51.2904 26.3186L51.2988 26.8564L54.3102 25.2662Z" fill="white"/>
</g>
<path d="M115.567 101.681V126.141L149.587 108.18V83.7354L115.567 101.681ZM119.309 103.705L145.807 89.7044V106.175L119.309 120.133V103.705Z" fill="#FF9E74"/>
<path d="M115.567 101.68L111.787 99.6982V124.158L115.567 126.14V101.68Z" fill="#FF9E74"/>
<path d="M149.587 83.727L145.807 81.7412L111.787 99.6982L115.567 101.68L149.587 83.727Z" fill="#FF9E74"/>
<path opacity="0.3" d="M149.587 83.727L145.807 81.7412L111.787 99.6982L115.567 101.68L149.587 83.727Z" fill="white"/>
<path d="M142.027 104.189L145.807 106.175V89.7041L142.027 91.7014V104.189Z" fill="#FF9E74"/>
<path d="M119.309 120.133V116.157L142.027 104.188L145.807 106.174L119.309 120.133Z" fill="#FF9E74"/>
<path opacity="0.2" d="M115.567 101.68L111.787 99.6982V124.158L115.567 126.14V101.68Z" fill="white"/>
<path opacity="0.2" d="M142.027 104.189L145.807 106.175V89.7041L142.027 91.7014V104.189Z" fill="white"/>
<path opacity="0.3" d="M119.309 120.133V116.157L142.027 104.188L145.807 106.174L119.309 120.133Z" fill="white"/>
<path d="M150.587 78.0427C150.465 77.7488 150.234 77.5029 149.936 77.3474L147.642 76.1529C147.072 75.85 146.424 75.6904 145.765 75.6904C145.106 75.6904 144.458 75.85 143.888 76.1529L110.288 94.3749C109.989 94.531 109.76 94.7785 109.641 95.0739C109.192 95.9717 108.962 96.9486 108.97 97.9359C108.977 98.9233 109.22 99.8972 109.683 100.789C109.826 101.034 110.037 101.24 110.296 101.385L112.589 102.583C113.16 102.885 113.807 103.044 114.467 103.044C115.126 103.044 115.773 102.885 116.344 102.583L149.944 84.3651C150.208 84.2254 150.419 84.0149 150.549 83.762C151.011 82.869 151.254 81.8942 151.261 80.9062C151.267 79.9181 151.037 78.9407 150.587 78.0427Z" fill="#455A64"/>
<path opacity="0.3" d="M116.34 97.9465L149.94 79.7284C150.248 79.5646 150.483 79.3057 150.602 78.9981C150.72 78.6904 150.715 78.3542 150.587 78.0498C151.036 78.9476 151.265 79.9245 151.258 80.9118C151.251 81.8992 151.007 82.8731 150.545 83.7653C150.415 84.0182 150.204 84.2287 149.94 84.3683L116.34 102.586C115.741 102.907 115.055 103.065 114.362 103.044V98.3959C115.054 98.4197 115.74 98.2639 116.34 97.9465Z" fill="black"/>
<path opacity="0.2" d="M109.62 95.0781C109.495 95.382 109.491 95.7168 109.61 96.0228C109.73 96.3288 109.964 96.5861 110.271 96.749L112.56 97.9474C113.101 98.2335 113.712 98.3895 114.337 98.4006V103.041C113.713 103.029 113.102 102.874 112.56 102.591L110.279 101.404C110.021 101.259 109.809 101.054 109.666 100.809C109.201 99.915 108.955 98.9385 108.947 97.9483C108.939 96.958 109.169 95.9783 109.62 95.0781Z" fill="black"/>
<path d="M176.375 114.464C176.253 114.171 176.025 113.925 175.728 113.769L148.756 99.5261C148.185 99.2243 147.537 99.0654 146.878 99.0654C146.219 99.0654 145.571 99.2243 145.001 99.5261L118.222 113.757C117.923 113.914 117.692 114.161 117.571 114.456C116.798 115.751 116.542 121.443 117.613 123.318C117.754 123.563 117.966 123.769 118.226 123.913L145.198 138.156C145.769 138.457 146.416 138.616 147.076 138.616C147.735 138.616 148.382 138.457 148.953 138.156L175.728 123.924C175.992 123.785 176.203 123.574 176.333 123.321C177.404 121.451 177.148 115.758 176.375 114.464Z" fill="#455A64"/>
<path opacity="0.1" d="M176.375 114.464C176.253 114.171 176.025 113.925 175.728 113.769L148.756 99.5261C148.185 99.2243 147.537 99.0654 146.878 99.0654C146.219 99.0654 145.571 99.2243 145.001 99.5261L118.222 113.757C117.923 113.914 117.692 114.161 117.571 114.456C116.798 115.751 116.542 121.443 117.613 123.318C117.754 123.563 117.966 123.769 118.226 123.913L145.198 138.156C145.769 138.457 146.416 138.616 147.076 138.616C147.735 138.616 148.382 138.457 148.953 138.156L175.728 123.924C175.992 123.785 176.203 123.574 176.333 123.321C177.404 121.451 177.148 115.758 176.375 114.464Z" fill="black"/>
<path opacity="0.3" d="M148.953 130.37L175.728 116.139C176.037 115.977 176.273 115.719 176.392 115.411C176.51 115.104 176.504 114.768 176.375 114.464C177.148 115.758 177.404 121.451 176.333 123.325C176.203 123.578 175.992 123.789 175.728 123.928L148.953 138.159C148.352 138.475 147.668 138.633 146.975 138.616V130.831C147.668 130.848 148.353 130.689 148.953 130.37Z" fill="black"/>
<path opacity="0.2" d="M117.571 114.464C117.445 114.768 117.443 115.103 117.563 115.409C117.683 115.715 117.918 115.972 118.226 116.135L145.198 130.377C145.74 130.66 146.351 130.816 146.975 130.831V138.616C146.35 138.604 145.74 138.448 145.198 138.163L118.226 123.921C117.966 123.776 117.754 123.571 117.613 123.325C116.542 121.451 116.798 115.758 117.571 114.464Z" fill="black"/>
<path d="M176.375 105.829C176.253 105.536 176.025 105.291 175.728 105.134L148.756 90.8913C148.185 90.5895 147.537 90.4307 146.878 90.4307C146.219 90.4307 145.571 90.5895 145.001 90.8913L118.222 105.13C117.922 105.289 117.692 105.537 117.571 105.833C116.798 107.127 116.542 112.82 117.613 114.694C117.755 114.941 117.966 115.148 118.226 115.294L145.198 129.532C145.768 129.835 146.416 129.995 147.076 129.995C147.735 129.995 148.383 129.835 148.953 129.532L175.728 115.32C175.992 115.181 176.203 114.97 176.333 114.717C177.404 112.816 177.148 107.124 176.375 105.829Z" fill="#455A64"/>
<path opacity="0.1" d="M176.375 105.829C176.253 105.536 176.025 105.291 175.728 105.134L148.756 90.8913C148.185 90.5895 147.537 90.4307 146.878 90.4307C146.219 90.4307 145.571 90.5895 145.001 90.8913L118.222 105.13C117.922 105.289 117.692 105.537 117.571 105.833C116.798 107.127 116.542 112.82 117.613 114.694C117.755 114.941 117.966 115.148 118.226 115.294L145.198 129.532C145.768 129.835 146.416 129.995 147.076 129.995C147.735 129.995 148.383 129.835 148.953 129.532L175.728 115.32C175.992 115.181 176.203 114.97 176.333 114.717C177.404 112.816 177.148 107.124 176.375 105.829Z" fill="black"/>
<path d="M182.036 76.8209L156.534 63.3464C156.308 63.2256 156.052 63.1608 155.791 63.1582H155.665C153.334 63.1582 151.507 64.4488 150.154 65.9391L150.095 66.0006C149.959 66.1558 149.859 66.3349 149.801 66.5268L142.481 91.4553C142.272 92.1594 142.323 92.9069 142.627 93.5815C142.931 94.2561 143.47 94.8198 144.161 95.185L169.68 108.648C169.952 108.793 170.265 108.858 170.579 108.836C173.498 108.563 175.199 106.916 176.072 106.04C176.238 105.874 176.358 105.673 176.421 105.456L183.737 80.5352C183.938 79.8311 183.881 79.0862 183.573 78.4151C183.266 77.744 182.726 77.1838 182.036 76.8209Z" fill="#455A64"/>
<path opacity="0.1" d="M182.036 76.8209L156.534 63.3464C156.308 63.2256 156.052 63.1608 155.791 63.1582H155.665C153.334 63.1582 151.507 64.4488 150.154 65.9391C150.393 65.702 150.712 65.5464 151.061 65.4982C151.409 65.45 151.765 65.5121 152.069 65.6741L177.572 79.1255C178.298 79.5104 178.855 80.1129 179.151 80.8309L183.603 78.4802C183.303 77.7801 182.75 77.1947 182.036 76.8209Z" fill="black"/>
<path opacity="0.2" d="M179.151 80.8429C179.416 81.4908 179.455 82.1984 179.26 82.8671L171.944 107.788C171.862 108.072 171.685 108.326 171.438 108.513C171.191 108.701 170.886 108.814 170.566 108.836C173.485 108.564 175.186 106.916 176.06 106.04C176.226 105.874 176.345 105.674 176.408 105.456L183.725 80.5356C183.922 79.8585 183.879 79.1418 183.603 78.4883L179.151 80.8429Z" fill="black"/>
<path opacity="0.1" d="M142.481 91.4554L149.793 66.5346C149.851 66.3427 149.951 66.1636 150.087 66.0084L150.146 65.9469C151.498 64.4566 153.325 63.1852 155.656 63.166H155.782C156.044 63.1662 156.301 63.2312 156.526 63.3542L182.036 76.821C182.217 76.9174 182.389 77.0279 182.549 77.1513C182.7 77.2689 182.84 77.3973 182.969 77.5354C183.231 77.8175 183.438 78.1384 183.582 78.4842C183.65 78.6438 183.703 78.8082 183.742 78.9758C183.742 79.0565 183.775 79.141 183.788 79.2216C183.785 79.2278 183.785 79.2347 183.788 79.2409C183.788 79.3215 183.788 79.3983 183.788 79.4752C183.79 79.4917 183.79 79.5085 183.788 79.5251C183.788 79.5942 183.788 79.6634 183.788 79.7363C183.788 79.8093 183.788 79.7901 183.788 79.817V79.9975C183.788 80.0436 183.788 80.0859 183.767 80.132C183.746 80.1781 183.767 80.2203 183.746 80.2626C183.725 80.3048 183.708 80.4393 183.683 80.5276L176.4 105.46C176.337 105.677 176.217 105.878 176.051 106.044C175.211 106.916 173.477 108.567 170.558 108.84C170.244 108.862 169.931 108.797 169.659 108.652L144.161 95.1889C143.469 94.8236 142.929 94.2592 142.626 93.5838C142.322 92.9084 142.271 92.16 142.481 91.4554Z" fill="black"/>
<path opacity="0.3" d="M148.953 121.739L175.728 107.504C176.037 107.342 176.273 107.084 176.392 106.776C176.51 106.469 176.504 106.133 176.375 105.829C177.148 107.124 177.404 112.816 176.333 114.69C176.203 114.943 175.992 115.154 175.728 115.293L148.953 129.505C148.353 129.823 147.668 129.981 146.975 129.962V122.196C147.668 122.212 148.352 122.054 148.953 121.739Z" fill="black"/>
<path opacity="0.2" d="M117.571 105.829C117.446 106.133 117.443 106.467 117.563 106.773C117.683 107.078 117.918 107.335 118.226 107.496L145.198 121.762C145.74 122.045 146.351 122.2 146.975 122.215V129.982C146.35 129.969 145.74 129.813 145.198 129.528L118.226 115.29C117.966 115.144 117.755 114.937 117.613 114.69C116.542 112.816 116.798 107.124 117.571 105.829Z" fill="black"/>
<path d="M126.802 123.475C127.086 124.84 127.248 126.225 127.285 127.615L128.36 127.231C128.87 127.056 129.425 127.021 129.956 127.132C130.487 127.242 130.97 127.493 131.347 127.853L131.401 127.903C131.593 128.088 131.856 128.198 132.135 128.21C132.414 128.221 132.687 128.133 132.896 127.965C133.009 127.876 133.1 127.766 133.163 127.643C133.227 127.52 133.262 127.386 133.266 127.25L133.409 123.067L126.802 123.475Z" fill="#FFA8A7"/>
<path d="M130.952 139.023C128.722 141.205 124.614 143.11 121.628 141.251L121.964 141.946C124.95 143.805 129.053 141.9 131.288 139.718C133.522 137.536 132.069 136.023 134.077 134.087C134.835 133.425 135.426 132.62 135.811 131.729C135.723 131.521 135.635 131.249 135.53 130.938C135.098 131.847 134.492 132.678 133.741 133.392C131.733 135.328 133.182 136.841 130.952 139.023Z" fill="#F5F5F5"/>
<path d="M134.434 128.675C134.089 128.228 133.85 127.721 133.732 127.185C133.71 127.061 133.659 126.943 133.583 126.838C133.507 126.734 133.407 126.645 133.291 126.578L133.266 127.281C133.259 127.476 133.189 127.664 133.065 127.823C132.942 127.982 132.769 128.104 132.57 128.173C132.371 128.243 132.154 128.257 131.946 128.215C131.738 128.172 131.549 128.075 131.401 127.934L131.347 127.884C130.97 127.524 130.487 127.273 129.956 127.162C129.425 127.052 128.87 127.086 128.36 127.262L127.268 127.646C127.106 127.702 126.967 127.803 126.87 127.934C126.773 128.066 126.723 128.221 126.727 128.38C126.798 131.241 125.336 135.044 123.787 137.13C122.212 137.725 120.847 139.691 121.544 141.132L121.611 141.274C124.597 143.133 128.705 141.228 130.935 139.046C133.165 136.864 131.716 135.351 133.724 133.415C134.475 132.701 135.081 131.87 135.513 130.961C135.27 130.157 134.907 129.388 134.434 128.675Z" fill="#FF9E74"/>
<path d="M130.07 132.789C130.158 132.821 130.256 132.822 130.345 132.791C130.434 132.761 130.507 132.701 130.551 132.624C130.594 132.547 130.605 132.458 130.58 132.374C130.556 132.29 130.498 132.218 130.418 132.17C129.765 131.832 129.027 131.654 128.276 131.654C127.526 131.654 126.788 131.832 126.134 132.17C126.067 132.393 126 132.62 125.924 132.843C126.551 132.506 127.263 132.325 127.989 132.315C128.716 132.306 129.433 132.469 130.07 132.789Z" fill="white"/>
<path d="M130.62 131.242C130.664 131.262 130.712 131.274 130.761 131.278C130.811 131.281 130.86 131.275 130.907 131.261C130.954 131.247 130.997 131.224 131.034 131.194C131.072 131.165 131.102 131.129 131.124 131.088C131.169 131.007 131.178 130.914 131.149 130.827C131.12 130.74 131.055 130.667 130.969 130.623C130.284 130.28 129.516 130.103 128.736 130.11C127.955 130.116 127.19 130.304 126.512 130.658C126.466 130.888 126.412 131.123 126.357 131.357C127.68 130.731 128.969 130.481 130.62 131.242Z" fill="white"/>
<path d="M129.465 134.329C129.556 134.368 129.659 134.374 129.754 134.344C129.849 134.315 129.927 134.253 129.973 134.172C130.018 134.092 130.027 133.999 129.998 133.913C129.969 133.826 129.904 133.754 129.818 133.711C129.178 133.38 128.458 133.203 127.723 133.196C126.989 133.19 126.264 133.354 125.618 133.673C125.525 133.915 125.425 134.153 125.324 134.387C125.949 134.049 126.66 133.865 127.386 133.855C128.112 133.845 128.829 134.009 129.465 134.329Z" fill="white"/>
<path d="M123.803 137.125C122.228 137.721 120.863 139.687 121.561 141.128L121.628 141.27C124.568 143.102 128.596 141.27 130.868 139.138C128.969 135.75 125.042 136.591 123.803 137.125Z" fill="white"/>
<path d="M128.806 135.832C128.894 135.867 128.995 135.871 129.086 135.841C129.178 135.812 129.253 135.752 129.298 135.673C129.343 135.595 129.354 135.503 129.328 135.418C129.302 135.333 129.241 135.259 129.158 135.213C128.518 134.884 127.798 134.708 127.063 134.702C126.329 134.696 125.605 134.86 124.958 135.179C124.828 135.448 124.69 135.701 124.538 135.947C125.845 135.321 127.155 135.071 128.806 135.832Z" fill="white"/>
<path d="M122.115 131.791C121.773 133.147 121.309 134.476 120.729 135.763L121.876 135.82C122.419 135.852 122.941 136.028 123.376 136.329C123.811 136.629 124.139 137.04 124.32 137.51L124.345 137.576C124.44 137.816 124.632 138.013 124.881 138.127C125.131 138.24 125.419 138.262 125.685 138.186C125.827 138.145 125.958 138.078 126.071 137.989C126.184 137.9 126.275 137.79 126.34 137.668L128.318 133.892L122.115 131.791Z" fill="#FFA8A7"/>
<path d="M119.049 147.551C116.042 148.722 111.443 148.953 109.536 146.149V146.917C111.443 149.721 116.042 149.494 119.049 148.319C122.056 147.144 121.393 145.246 124.089 144.201C125.074 143.874 125.971 143.356 126.718 142.684C126.718 142.461 126.769 142.181 126.811 141.854C126.015 142.528 125.093 143.066 124.089 143.441C121.38 144.459 122.052 146.375 119.049 147.551Z" fill="#F5F5F5"/>
<path d="M126.806 139.354C126.683 138.819 126.683 138.267 126.806 137.733C126.842 137.611 126.848 137.484 126.824 137.36C126.8 137.236 126.747 137.118 126.668 137.014L126.336 137.648C126.271 137.771 126.179 137.88 126.067 137.969C125.954 138.058 125.823 138.126 125.681 138.167C125.414 138.242 125.127 138.221 124.877 138.107C124.628 137.993 124.436 137.796 124.341 137.556L124.32 137.51C124.135 137.042 123.803 136.634 123.366 136.337C122.929 136.04 122.407 135.867 121.863 135.839L120.7 135.782C120.523 135.769 120.347 135.808 120.196 135.893C120.045 135.978 119.927 136.104 119.86 136.254C118.663 138.897 115.66 141.831 113.324 143.168C111.619 143.129 109.507 144.424 109.507 145.999V146.156C111.413 148.96 116.012 148.73 119.02 147.558C122.027 146.387 121.363 144.466 124.06 143.437C125.063 143.061 125.985 142.524 126.781 141.85C126.918 141.023 126.926 140.183 126.806 139.354Z" fill="#FF9E74"/>
<path d="M120.989 141.52C121.021 141.555 121.06 141.584 121.104 141.605C121.148 141.627 121.196 141.64 121.246 141.644C121.295 141.648 121.345 141.644 121.393 141.63C121.44 141.617 121.485 141.595 121.523 141.566C121.561 141.538 121.594 141.504 121.618 141.464C121.642 141.425 121.657 141.382 121.663 141.338C121.669 141.293 121.665 141.248 121.652 141.205C121.639 141.161 121.616 141.121 121.586 141.086C121.136 140.536 120.538 140.102 119.851 139.825C119.164 139.548 118.41 139.439 117.663 139.507C117.503 139.691 117.34 139.868 117.172 140.045C117.893 139.968 118.624 140.063 119.293 140.322C119.962 140.58 120.547 140.993 120.989 141.52Z" fill="white"/>
<path d="M122.178 140.31C122.244 140.373 122.334 140.411 122.43 140.416C122.525 140.421 122.619 140.394 122.694 140.339C122.768 140.284 122.817 140.205 122.831 140.119C122.846 140.032 122.824 139.944 122.77 139.872C122.295 139.305 121.669 138.86 120.952 138.577C120.236 138.294 119.452 138.183 118.675 138.255C118.532 138.451 118.381 138.639 118.226 138.842C119.7 138.746 121.002 139 122.178 140.31Z" fill="white"/>
<path d="M119.759 142.707C119.822 142.779 119.915 142.826 120.015 142.836C120.116 142.846 120.217 142.819 120.296 142.761C120.375 142.703 120.426 142.618 120.437 142.526C120.448 142.434 120.419 142.341 120.355 142.269C119.915 141.733 119.334 141.306 118.666 141.03C117.998 140.753 117.264 140.635 116.533 140.687C116.34 140.875 116.147 141.071 115.949 141.232C116.67 141.156 117.399 141.252 118.066 141.511C118.734 141.769 119.317 142.181 119.759 142.707Z" fill="white"/>
<path d="M113.354 143.16C111.649 143.122 109.536 144.416 109.536 145.991V146.148C111.418 148.91 115.903 148.726 118.91 147.6C118.679 143.825 114.715 143.145 113.354 143.16Z" fill="white"/>
<path d="M118.495 143.84C118.561 143.903 118.651 143.941 118.746 143.947C118.842 143.952 118.936 143.925 119.01 143.87C119.085 143.815 119.134 143.736 119.148 143.65C119.162 143.563 119.14 143.475 119.087 143.402C118.647 142.865 118.065 142.438 117.396 142.161C116.727 141.884 115.993 141.767 115.261 141.82C115.017 142.016 114.782 142.204 114.542 142.373C116.012 142.277 117.323 142.531 118.495 143.84Z" fill="white"/>
<path d="M139.759 96.0615L124.74 103.709C123.378 104.404 122.289 105.473 121.626 106.764C120.963 108.056 120.759 109.505 121.044 110.907L123.959 125.277L121.569 132.233C123.631 134.764 128.373 134.891 128.373 134.891C131.015 130.043 132.955 127.977 134.459 123.921C135.962 119.865 136.979 117.053 136.979 117.053L149.461 113.93C152.319 113.221 154.878 111.744 156.807 109.689C158.736 107.635 159.946 105.098 160.28 102.407C160.495 100.682 160.503 99.5031 160.503 99.5031L139.759 96.0615Z" fill="#FF9E74"/>
<path opacity="0.4" d="M139.759 96.0615L124.74 103.709C123.378 104.404 122.289 105.473 121.626 106.764C120.963 108.056 120.759 109.505 121.044 110.907L123.959 125.277L121.569 132.233C123.631 134.764 128.373 134.891 128.373 134.891C131.015 130.043 132.955 127.977 134.459 123.921C135.962 119.865 136.979 117.053 136.979 117.053L149.461 113.93C152.319 113.221 154.878 111.744 156.807 109.689C158.736 107.635 159.946 105.098 160.28 102.407C160.495 100.682 160.503 99.5031 160.503 99.5031L139.759 96.0615Z" fill="black"/>
<path opacity="0.2" d="M139.86 99.9248C139.864 101.459 140.459 102.942 141.54 104.115L130.931 110.188C129.369 111.084 128.215 112.466 127.68 114.079L123.925 125.307L127.315 112.804C127.703 111.366 128.692 110.125 130.07 109.347L139.868 103.808C138.881 101.496 139.86 99.9248 139.86 99.9248Z" fill="black"/>
<path d="M150.36 105.649C150.372 105.709 150.372 105.772 150.36 105.833C150.338 105.883 150.312 105.93 150.28 105.975C150.239 106.024 150.194 106.07 150.146 106.113C150.082 106.163 150.013 106.206 149.94 106.244L138.94 112.094C138.839 112.143 138.733 112.185 138.625 112.221L138.503 112.251L138.344 112.29L138.146 112.32H138.1C138.011 112.326 137.921 112.326 137.831 112.32H137.76C137.671 112.326 137.581 112.326 137.491 112.32H137.453C137.367 112.312 137.282 112.299 137.197 112.282H137.151C137.076 112.266 137.001 112.245 136.928 112.221H136.886C136.803 112.19 136.722 112.155 136.643 112.117L118.495 102.514C118.422 102.477 118.353 102.433 118.289 102.384L118.234 102.33C118.2 102.3 118.168 102.268 118.138 102.234C118.138 102.215 118.138 102.192 118.104 102.172C118.083 102.142 118.065 102.11 118.049 102.076C118.049 102.053 118.049 102.03 118.049 102.007C118.047 101.977 118.047 101.946 118.049 101.915V102.503C118.047 102.535 118.047 102.567 118.049 102.599C118.049 102.622 118.049 102.645 118.049 102.664C118.065 102.697 118.083 102.729 118.104 102.76L118.138 102.822C118.168 102.855 118.2 102.887 118.234 102.918C118.251 102.936 118.27 102.954 118.289 102.971C118.353 103.022 118.422 103.067 118.495 103.106L136.643 112.689C136.722 112.728 136.803 112.762 136.886 112.793H136.928C137.001 112.819 137.075 112.84 137.151 112.854H137.197C137.282 112.872 137.367 112.887 137.453 112.897H137.491C137.579 112.897 137.668 112.897 137.76 112.897H137.802C137.89 112.897 137.983 112.897 138.071 112.897H138.117L138.314 112.866L138.474 112.831L138.596 112.797C138.705 112.763 138.81 112.721 138.911 112.67L149.911 106.82C149.984 106.784 150.053 106.74 150.116 106.689C150.165 106.646 150.21 106.6 150.251 106.551C150.283 106.507 150.31 106.459 150.331 106.409C150.337 106.364 150.337 106.319 150.331 106.275V105.633L150.36 105.649Z" fill="#E0E0E0"/>
<path opacity="0.2" d="M150.36 105.649C150.372 105.709 150.372 105.772 150.36 105.833C150.338 105.883 150.312 105.93 150.28 105.975C150.239 106.024 150.194 106.07 150.146 106.113C150.082 106.163 150.013 106.206 149.94 106.244L138.94 112.094C138.839 112.143 138.733 112.185 138.625 112.221L138.503 112.251L138.344 112.29L138.146 112.32H138.1C138.011 112.326 137.921 112.326 137.831 112.32H137.76C137.671 112.326 137.581 112.326 137.491 112.32H137.453C137.367 112.312 137.282 112.299 137.197 112.282H137.151C137.076 112.266 137.001 112.245 136.928 112.221H136.886C136.803 112.19 136.722 112.155 136.643 112.117L118.495 102.514C118.422 102.477 118.353 102.433 118.289 102.384L118.234 102.33C118.2 102.3 118.168 102.268 118.138 102.234C118.138 102.215 118.138 102.192 118.104 102.172C118.083 102.142 118.065 102.11 118.049 102.076C118.049 102.053 118.049 102.03 118.049 102.007C118.047 101.977 118.047 101.946 118.049 101.915V102.503C118.047 102.535 118.047 102.567 118.049 102.599C118.049 102.622 118.049 102.645 118.049 102.664C118.065 102.697 118.083 102.729 118.104 102.76L118.138 102.822C118.168 102.855 118.2 102.887 118.234 102.918C118.251 102.936 118.27 102.954 118.289 102.971C118.353 103.022 118.422 103.067 118.495 103.106L136.643 112.689C136.722 112.728 136.803 112.762 136.886 112.793H136.928C137.001 112.819 137.075 112.84 137.151 112.854H137.197C137.282 112.872 137.367 112.887 137.453 112.897H137.491C137.579 112.897 137.668 112.897 137.76 112.897H137.802C137.89 112.897 137.983 112.897 138.071 112.897H138.117L138.314 112.866L138.474 112.831L138.596 112.797C138.705 112.763 138.81 112.721 138.911 112.67L149.911 106.82C149.984 106.784 150.053 106.74 150.116 106.689C150.165 106.646 150.21 106.6 150.251 106.551C150.283 106.507 150.31 106.459 150.331 106.409C150.337 106.364 150.337 106.319 150.331 106.275V105.633L150.36 105.649Z" fill="black"/>
<path d="M118.049 102.103C118.065 102.136 118.083 102.168 118.104 102.199C118.104 102.218 118.125 102.241 118.138 102.26C118.168 102.294 118.2 102.326 118.234 102.356L118.289 102.41C118.353 102.459 118.422 102.503 118.495 102.541L136.643 112.143C136.722 112.182 136.803 112.217 136.886 112.247H136.928C137.001 112.272 137.076 112.292 137.151 112.309H137.197C137.282 112.325 137.367 112.338 137.453 112.347H137.491C137.581 112.353 137.671 112.353 137.76 112.347H137.802C137.891 112.353 137.981 112.353 138.071 112.347H138.117L138.314 112.316L138.474 112.278L138.596 112.247C138.704 112.212 138.809 112.17 138.911 112.12L149.911 106.271C149.983 106.233 150.052 106.189 150.116 106.14C150.165 106.097 150.21 106.051 150.251 106.002C150.282 105.957 150.309 105.909 150.331 105.86C150.343 105.799 150.343 105.736 150.331 105.675C150.309 105.553 150.255 105.438 150.174 105.339C150.093 105.24 149.986 105.16 149.864 105.107L131.712 95.5232C131.362 95.3603 130.975 95.2754 130.582 95.2754C130.189 95.2754 129.802 95.3603 129.452 95.5232L118.453 101.369C118.334 101.425 118.233 101.506 118.157 101.606C118.082 101.705 118.035 101.821 118.02 101.942C118.018 101.972 118.018 102.003 118.02 102.034C118.045 102.057 118.041 102.08 118.049 102.103Z" fill="#E0E0E0"/>
<path d="M119.561 101.942L137.201 111.252C137.224 111.266 137.248 111.276 137.273 111.283H137.311C137.356 111.299 137.402 111.312 137.449 111.322H137.546H137.613H137.781C137.841 111.327 137.902 111.327 137.962 111.322H138.079L138.222 111.283C138.265 111.274 138.306 111.258 138.344 111.237L144.014 108.222L125.798 98.6191L119.561 101.942Z" fill="#E0E0E0"/>
<path d="M136.34 99.3799L133.022 101.166C132.972 101.193 132.93 101.232 132.901 101.278C132.872 101.325 132.856 101.377 132.856 101.431C132.856 101.485 132.872 101.537 132.901 101.584C132.93 101.63 132.972 101.669 133.022 101.696L137.987 104.316C138.071 104.36 138.167 104.384 138.264 104.384C138.361 104.384 138.457 104.36 138.541 104.316L141.859 102.533C141.91 102.506 141.952 102.468 141.981 102.421C142.01 102.375 142.025 102.322 142.025 102.268C142.025 102.215 142.01 102.162 141.981 102.116C141.952 102.069 141.91 102.03 141.859 102.003L136.899 99.3837C136.815 99.3372 136.719 99.3122 136.62 99.3115C136.522 99.3109 136.425 99.3345 136.34 99.3799Z" fill="#E0E0E0"/>
<path opacity="0.4" d="M119.561 101.942L137.201 111.252C137.224 111.266 137.248 111.276 137.273 111.283H137.311C137.356 111.299 137.402 111.312 137.449 111.322H137.546H137.613H137.781C137.841 111.327 137.902 111.327 137.962 111.322H138.079L138.222 111.283C138.265 111.274 138.306 111.258 138.344 111.237L144.014 108.222L125.798 98.6191L119.561 101.942Z" fill="black"/>
<path opacity="0.4" d="M136.34 99.3799L133.022 101.166C132.972 101.193 132.93 101.232 132.901 101.278C132.872 101.325 132.856 101.377 132.856 101.431C132.856 101.485 132.872 101.537 132.901 101.584C132.93 101.63 132.972 101.669 133.022 101.696L137.987 104.316C138.071 104.36 138.167 104.384 138.264 104.384C138.361 104.384 138.457 104.36 138.541 104.316L141.859 102.533C141.91 102.506 141.952 102.468 141.981 102.421C142.01 102.375 142.025 102.322 142.025 102.268C142.025 102.215 142.01 102.162 141.981 102.116C141.952 102.069 141.91 102.03 141.859 102.003L136.899 99.3837C136.815 99.3372 136.719 99.3122 136.62 99.3115C136.522 99.3109 136.425 99.3345 136.34 99.3799Z" fill="black"/>
<path d="M135.433 77.4092L134.614 89.4548L126.113 96.1574C125.618 96.3451 125.081 96.4227 124.547 96.384L121.397 96.1459C121.027 96.1179 120.656 96.1972 120.338 96.3725L118.532 97.3712C118.352 97.4757 118.19 97.6053 118.054 97.7553L117.18 98.7156C117.12 98.7794 117.076 98.8539 117.049 98.9344C117.023 99.0148 117.015 99.0994 117.026 99.1828C117.037 99.2662 117.067 99.3466 117.113 99.4189C117.16 99.4912 117.223 99.5539 117.298 99.6028L117.856 99.9639C118.149 100.156 118.493 100.272 118.852 100.297C119.212 100.323 119.572 100.258 119.893 100.11L121.292 99.4646L124.173 99.7526V100.444L123.392 101.055C123.304 101.128 123.234 101.218 123.186 101.318C123.139 101.418 123.116 101.526 123.118 101.635C123.12 101.744 123.147 101.852 123.198 101.95C123.249 102.049 123.322 102.136 123.413 102.207C123.413 102.207 125.341 101.685 127.088 99.1342L137.264 94.9283C138.311 94.4955 139.207 93.8066 139.852 92.9376C140.498 92.0686 140.868 91.0534 140.923 90.004L141.826 72.4043L140.419 72.5656C139.1 72.7146 137.881 73.2803 136.97 74.1648C136.06 75.0492 135.516 76.1969 135.433 77.4092Z" fill="#FFA8A7"/>
<path d="M141.817 72.4004L140.276 72.4926C138.873 72.5724 137.549 73.1119 136.547 74.0121C135.544 74.9123 134.929 76.1129 134.816 77.3938L134.177 84.6572C136.382 87.1846 142.124 86.1245 142.124 86.1245L141.817 72.4004Z" fill="#455A64"/>
<path opacity="0.5" d="M141.817 72.4004L140.276 72.4926C138.873 72.5724 137.549 73.1119 136.547 74.0121C135.544 74.9123 134.929 76.1129 134.816 77.3938L134.177 84.6572C136.382 87.1846 142.124 86.1245 142.124 86.1245L141.817 72.4004Z" fill="white"/>
<path d="M160.713 100.597C158.046 102.94 145.236 103.37 138.697 97.6778C139.327 93.6639 139.117 89.3581 138.697 85.1022C138.277 80.8463 135.559 73.4024 140.755 72.5381C147.693 71.2975 152.225 71.3858 156.862 73.7865C161.809 81.3265 161.129 92.6115 160.713 100.597Z" fill="#455A64"/>
<path opacity="0.3" d="M160.713 100.597C158.046 102.94 145.236 103.37 138.697 97.6778C139.327 93.6639 139.117 89.3581 138.697 85.1022C138.277 80.8463 135.559 73.4024 140.755 72.5381C147.693 71.2975 152.225 71.3858 156.862 73.7865C161.809 81.3265 161.129 92.6115 160.713 100.597Z" fill="white"/>
<path d="M164.896 92.5694L162.935 85.8975L156.055 87.2764L157.702 92.4503L147.622 98.9801L144.232 100.286C143.334 100.632 142.556 101.196 141.985 101.919L139.217 105.422C139.193 105.468 139.183 105.52 139.188 105.571C139.205 105.662 139.25 105.746 139.318 105.814C139.386 105.882 139.473 105.931 139.57 105.955C139.667 105.979 139.769 105.977 139.865 105.95C139.961 105.923 140.047 105.872 140.112 105.802C140.729 105.16 141.238 104.569 141.88 104.004L140.251 106.021C140.197 106.088 140.159 106.166 140.139 106.248C140.12 106.329 140.12 106.414 140.139 106.496C140.158 106.578 140.196 106.655 140.25 106.723C140.304 106.791 140.373 106.847 140.452 106.889C140.637 106.988 140.835 107.067 141.04 107.123C141.44 107.217 141.859 107.219 142.259 107.128C142.66 107.036 143.029 106.855 143.333 106.601L145.467 104.811L146.059 104.623C147.783 104.076 149.283 103.061 150.36 101.715L162.183 97.5167C163.223 97.1435 164.075 96.4318 164.576 95.5185C165.077 94.6052 165.191 93.5549 164.896 92.5694Z" fill="#FFA8A7"/>
<path d="M164.01 86.7808L163.8 85.8974C161.301 75.5265 159.31 74.7583 155.959 73.3486C152.699 75.9452 153.245 80.3586 153.245 80.3586L156.164 88.3441L156.253 88.5746C157.611 88.7707 158.999 88.7129 160.332 88.4045C161.666 88.0962 162.917 87.5439 164.01 86.7808Z" fill="#455A64"/>
<path opacity="0.5" d="M164.01 86.7808L163.8 85.8974C161.301 75.5265 159.31 74.7583 155.959 73.3486C152.699 75.9452 153.245 80.3586 153.245 80.3586L156.164 88.3441L156.253 88.5746C157.611 88.7707 158.999 88.7129 160.332 88.4045C161.666 88.0962 162.917 87.5439 164.01 86.7808Z" fill="white"/>
<path d="M140.419 69.4157C140.24 69.8368 140.216 70.2995 140.349 70.7343C140.482 71.1692 140.766 71.5529 141.158 71.8279C141.559 72.0902 142.017 72.2703 142.501 72.3558C142.986 72.4413 143.484 72.4302 143.963 72.3234C144.92 72.1085 145.817 71.7163 146.601 71.1711C147.273 70.7332 147.945 70.23 148.76 70.1148C149.575 69.9995 150.381 70.4297 150.406 71.1826C150.741 71.128 151.056 71.0018 151.327 70.8142C151.598 70.6266 151.816 70.3829 151.964 70.1032C152.172 70.3578 152.461 70.5474 152.791 70.6457C153.121 70.7441 153.476 70.7465 153.808 70.6525C154.136 70.5384 154.417 70.3357 154.615 70.0715C154.813 69.8073 154.919 69.4941 154.917 69.1737C155.265 69.3621 155.676 69.4271 156.072 69.3563C156.469 69.2855 156.823 69.0838 157.067 68.7896C156.643 68.6927 156.246 68.5138 155.904 68.2648C155.561 68.0159 155.281 67.7027 155.082 67.3464C154.883 66.99 154.77 66.5988 154.75 66.1991C154.73 65.7994 154.804 65.4005 154.967 65.0292C155.429 63.9883 156.576 63.1817 156.626 62.0601C156.608 61.5761 156.404 61.1135 156.049 60.7543C155.693 60.395 155.211 60.1623 154.686 60.0973C155.133 59.7971 155.463 59.3748 155.63 58.8915C155.797 58.4081 155.791 57.8888 155.614 57.4085C155.411 56.9199 155.049 56.4995 154.578 56.2031C154.107 55.9067 153.548 55.7484 152.977 55.7492C153.121 55.5629 153.195 55.3384 153.186 55.1102C153.178 54.882 153.088 54.6626 152.93 54.4855C152.767 54.3134 152.568 54.1731 152.344 54.0728C152.121 53.9725 151.877 53.9143 151.628 53.9016C151.131 53.8787 150.632 53.9175 150.146 54.0169L148.55 54.2742C147.399 52.6418 145.32 51.5624 143.291 52.1232C142.678 52.2961 142.111 52.5688 141.511 52.7762C140.922 53.0128 140.272 53.0901 139.637 52.999C139.321 52.9459 139.029 52.808 138.799 52.6028C138.569 52.3976 138.41 52.1344 138.344 51.8467C137.626 52.2846 137.365 53.4484 137.756 54.1513C136.95 54.1765 136.181 54.4623 135.584 54.9579C135.296 55.1977 135.076 55.4974 134.941 55.8317C134.807 56.1661 134.762 56.5251 134.812 56.8785C134.873 57.2314 135.049 57.5595 135.316 57.8203C135.583 58.0811 135.93 58.2628 136.311 58.3419C135.808 58.8068 135.455 59.3889 135.289 60.0249C135.123 60.6609 135.151 61.3263 135.37 61.9487C135.631 62.496 135.964 63.0119 136.361 63.4851C136.757 63.9598 137.065 64.4905 137.273 65.0561C137.374 65.3408 137.405 65.6427 137.363 65.9397C137.321 66.2368 137.207 66.5215 137.029 66.773C136.838 67.0143 136.56 67.1855 136.243 67.2559C135.927 67.3263 135.594 67.2913 135.303 67.1571C135.414 67.6142 135.633 68.0434 135.945 68.4144C136.257 68.7854 136.654 69.0892 137.109 69.3043C138.008 69.7307 139.541 69.8382 140.419 69.4157Z" fill="#263238"/>
<path d="M150.331 67.9638V72.4233C150.333 72.7222 150.265 73.018 150.131 73.291C149.998 73.5639 149.802 73.8076 149.558 74.0058C148.271 75.0283 146.598 75.5495 144.896 75.4577C144.549 75.4605 144.211 75.3652 143.926 75.185C143.755 75.0297 143.635 74.8335 143.58 74.6189C143.525 74.4043 143.537 74.1798 143.615 73.9712C143.695 73.7365 143.816 73.5148 143.972 73.3144C144.22 72.9816 144.353 72.5881 144.354 72.1851V67.96L150.331 67.9638Z" fill="#FFA8A7"/>
<path opacity="0.2" d="M146.782 71.5668C145.99 71.7837 145.177 71.9304 144.354 72.0047V67.9639H150.331V68.9164C150.197 69.187 150.034 69.4445 149.843 69.6847C149.068 70.5942 147.995 71.2536 146.782 71.5668Z" fill="black"/>
<path d="M144.098 60.8115C144.841 60.6156 145.627 60.2584 146.341 60.5234C146.714 60.7087 147.054 60.9458 147.349 61.2263C147.975 61.6977 148.763 61.9533 149.575 61.9484C149.638 62.057 149.668 62.179 149.663 62.3018L149.57 64.1647C149.544 64.2936 149.549 64.4263 149.585 64.5531C149.622 64.68 149.688 64.7979 149.78 64.8984C149.889 64.9661 150.017 65.0023 150.148 65.0023C150.279 65.0023 150.407 64.9661 150.515 64.8984C150.731 64.7604 150.913 64.5824 151.049 64.376C151.345 63.9477 151.705 63.5597 152.12 63.2237C152.33 63.0597 152.575 62.9383 152.84 62.8674C153.105 62.7966 153.384 62.7779 153.657 62.8127C154.539 62.9779 155.06 63.892 154.997 64.7332C154.961 65.1568 154.81 65.5656 154.558 65.9224C154.305 66.2792 153.96 66.5728 153.552 66.7767C153.136 66.9576 152.677 67.0405 152.217 67.0177C151.757 66.9949 151.311 66.8671 150.919 66.6461C151.053 68.1133 149.957 69.4923 148.579 70.2528C147.202 71.0133 145.576 71.2861 143.989 71.5434C143.119 71.6817 142.204 71.8161 141.38 71.5434C140.713 71.2902 140.157 70.8399 139.801 70.2643C139.453 69.6906 139.194 69.0752 139.033 68.436C138.188 65.5382 137.974 62.5171 138.403 59.5439C139.927 60.7424 142.531 61.2263 144.098 60.8115Z" fill="#FFA8A7"/>
<path d="M142.88 64.0459L141.049 66.8614L143.228 67.2378L142.88 64.0459Z" fill="#F28F8F"/>
<path d="M145.32 68.209L143.665 68.9465C143.808 69.1186 144.008 69.2436 144.235 69.3025C144.463 69.3615 144.705 69.3511 144.925 69.273C145.114 69.1635 145.256 68.9983 145.328 68.8047C145.4 68.6111 145.397 68.4009 145.32 68.209Z" fill="#F28F8F"/>
<path opacity="0.3" d="M145.32 68.209L143.665 68.9465C143.808 69.1186 144.008 69.2436 144.235 69.3025C144.463 69.3615 144.705 69.3511 144.925 69.273C145.114 69.1635 145.256 68.9983 145.328 68.8047C145.4 68.6111 145.397 68.4009 145.32 68.209Z" fill="black"/>
<path d="M144.358 69.3235C144.551 69.3577 144.751 69.3404 144.934 69.2736C145.086 69.1955 145.209 69.0778 145.287 68.9355C145.366 68.7933 145.396 68.6328 145.375 68.4747C145.138 68.4723 144.908 68.5457 144.724 68.6821C144.619 68.7617 144.534 68.8593 144.471 68.9694C144.408 69.0795 144.37 69.1999 144.358 69.3235Z" fill="#F28F8F"/>
<path d="M146.038 64.1457C146.055 64.2985 146.005 64.4511 145.898 64.57C145.792 64.6888 145.638 64.7642 145.471 64.7795C145.304 64.7947 145.137 64.7487 145.007 64.6514C144.877 64.5542 144.795 64.4137 144.778 64.2609C144.763 64.1094 144.813 63.9584 144.919 63.8406C145.024 63.7228 145.176 63.6475 145.341 63.631C145.424 63.6219 145.508 63.6282 145.588 63.6493C145.668 63.6704 145.743 63.706 145.808 63.7539C145.873 63.8019 145.927 63.8613 145.967 63.9286C146.006 63.9958 146.03 64.0697 146.038 64.1457Z" fill="#263238"/>
<path d="M140.784 64.4531C140.801 64.6059 140.75 64.7585 140.644 64.8773C140.538 64.9962 140.384 65.0716 140.217 65.0868C140.05 65.1021 139.883 65.0561 139.753 64.9588C139.623 64.8616 139.541 64.7211 139.524 64.5683C139.516 64.4926 139.524 64.4162 139.548 64.3434C139.572 64.2706 139.611 64.2029 139.664 64.144C139.717 64.0852 139.781 64.0364 139.855 64.0004C139.928 63.9645 140.008 63.9421 140.091 63.9345C140.174 63.9269 140.257 63.9344 140.337 63.9563C140.416 63.9783 140.491 64.0144 140.555 64.0625C140.619 64.1107 140.673 64.17 140.712 64.237C140.751 64.304 140.776 64.3774 140.784 64.4531Z" fill="#263238"/>
<path d="M139.927 62.2249L138.642 63.2274C138.564 63.0764 138.538 62.9071 138.568 62.7423C138.598 62.5775 138.682 62.4251 138.81 62.3055C138.97 62.1986 139.159 62.1345 139.356 62.1202C139.553 62.106 139.751 62.1422 139.927 62.2249Z" fill="#263238"/>
<path d="M145.257 61.6798L146.735 62.4288C146.78 62.2667 146.768 62.0961 146.703 61.9402C146.638 61.7842 146.521 61.6504 146.37 61.5569C146.19 61.4809 145.991 61.4521 145.794 61.4738C145.598 61.4955 145.412 61.5669 145.257 61.6798Z" fill="#263238"/>
<path d="M144.211 75.3343L145.228 74.1436C148.096 73.8363 149.801 71.5163 150.331 70.9248C150.645 70.9902 150.919 71.167 151.091 71.4165L151.616 72.1847C151.196 74.4893 147.995 76.7939 146.945 77.178C146.738 76.5508 146.418 75.959 146 75.4265C145.718 75.5505 145.406 75.6071 145.093 75.591C144.78 75.5748 144.477 75.4866 144.211 75.3343Z" fill="#455A64"/>
<path opacity="0.5" d="M144.211 75.3343L145.228 74.1436C148.096 73.8363 149.801 71.5163 150.331 70.9248C150.645 70.9902 150.919 71.167 151.091 71.4165L151.616 72.1847C151.196 74.4893 147.995 76.7939 146.945 77.178C146.738 76.5508 146.418 75.959 146 75.4265C145.718 75.5505 145.406 75.6071 145.093 75.591C144.78 75.5748 144.477 75.4866 144.211 75.3343Z" fill="white"/>
<path opacity="0.1" d="M145.32 74.5625C145.586 74.829 145.821 75.1199 146.021 75.4306C145.757 75.5387 145.471 75.5925 145.181 75.5881C145.348 75.2691 145.397 74.909 145.32 74.5625Z" fill="black"/>
<path d="M144.211 75.3346C143.863 74.4781 144.358 73.5831 144.358 72.4V71.6318C144.039 72.1211 143.588 72.5272 143.048 72.811C142.603 73.4469 142.297 74.155 142.145 74.8967C142.481 74.5021 142.852 74.1334 143.254 73.7943C143.266 74.8276 143.758 75.2347 144.211 75.3346Z" fill="#455A64"/>
<path opacity="0.5" d="M144.211 75.3346C143.863 74.4781 144.358 73.5831 144.358 72.4V71.6318C144.039 72.1211 143.588 72.5272 143.048 72.811C142.603 73.4469 142.297 74.155 142.145 74.8967C142.481 74.5021 142.852 74.1334 143.254 73.7943C143.266 74.8276 143.758 75.2347 144.211 75.3346Z" fill="white"/>
<path opacity="0.1" d="M142.666 74.3245C142.786 73.8481 143.018 73.4012 143.346 73.0146C143.28 73.2662 143.247 73.5242 143.249 73.7829C143.044 73.9533 142.849 74.1341 142.666 74.3245Z" fill="black"/>
<path d="M137.668 111.533L135.79 100.602C135.739 100.306 135.617 100.024 135.431 99.7764C135.246 99.5292 135.003 99.323 134.719 99.1728L116.441 89.4549C116.368 89.4155 116.286 89.3923 116.201 89.3869C116.117 89.3816 116.032 89.3943 115.954 89.4242L115.534 89.6201L115.681 89.67C115.632 89.763 115.614 89.8674 115.63 89.9696L117.512 100.897C117.562 101.194 117.684 101.476 117.869 101.723C118.055 101.971 118.299 102.177 118.583 102.326L136.857 112.044C136.895 112.064 136.936 112.08 136.979 112.09V112.252L137.399 112.06C137.499 112.009 137.579 111.931 137.627 111.837C137.676 111.742 137.69 111.636 137.668 111.533Z" fill="#E0E0E0"/>
<path opacity="0.3" d="M137.668 111.533L135.79 100.602C135.739 100.306 135.617 100.024 135.431 99.7764C135.246 99.5292 135.003 99.323 134.719 99.1728L116.441 89.4549C116.368 89.4155 116.286 89.3923 116.201 89.3869C116.117 89.3816 116.032 89.3943 115.954 89.4242L115.534 89.6201L115.681 89.67C115.632 89.763 115.614 89.8674 115.63 89.9696L117.512 100.897C117.562 101.194 117.684 101.476 117.869 101.723C118.055 101.971 118.299 102.177 118.583 102.326L136.857 112.044C136.895 112.064 136.936 112.08 136.979 112.09V112.252L137.399 112.06C137.499 112.009 137.579 111.931 137.627 111.837C137.676 111.742 137.69 111.636 137.668 111.533Z" fill="black"/>
<path d="M134.35 99.3412L116.071 89.6195C115.981 89.5718 115.878 89.5485 115.774 89.5521C115.67 89.5558 115.57 89.5864 115.484 89.6402C115.398 89.6941 115.331 89.7691 115.29 89.8565C115.249 89.944 115.236 90.0402 115.252 90.1342L117.13 101.062C117.18 101.359 117.302 101.641 117.488 101.889C117.673 102.137 117.917 102.344 118.201 102.495L136.5 112.213C136.59 112.266 136.696 112.294 136.803 112.293C136.911 112.293 137.016 112.263 137.105 112.208C137.195 112.154 137.265 112.076 137.306 111.985C137.348 111.895 137.36 111.795 137.34 111.698L135.458 100.77C135.404 100.471 135.276 100.186 135.084 99.9388C134.892 99.6912 134.641 99.4869 134.35 99.3412Z" fill="#E0E0E0"/>
<path d="M125.492 99.6215C125.956 99.8864 126.356 100.235 126.667 100.646C126.979 101.056 127.197 101.521 127.306 102.011C127.424 102.863 126.811 103.182 125.924 102.714C125.461 102.448 125.061 102.1 124.749 101.689C124.437 101.279 124.22 100.814 124.11 100.324C123.992 99.4833 124.61 99.1568 125.492 99.6215Z" fill="white"/>
<path d="M150.406 120.137V144.596L184.426 126.632V102.172L150.406 120.137ZM154.14 122.145L180.638 108.149V124.615L154.14 138.589V122.145Z" fill="#FF9E74"/>
<path d="M150.406 120.137L146.626 118.155V142.615L150.406 144.597V120.137Z" fill="#FF9E74"/>
<path d="M184.426 102.18L180.646 100.198L146.626 118.155L150.406 120.137L184.426 102.18Z" fill="#FF9E74"/>
<path opacity="0.3" d="M184.426 102.18L180.646 100.198L146.626 118.155L150.406 120.137L184.426 102.18Z" fill="white"/>
<path d="M176.866 122.645L180.646 124.627V108.156L176.866 110.157V122.645Z" fill="#FF9E74"/>
<path d="M154.148 138.59V134.614L176.866 122.646L180.646 124.627L154.148 138.59Z" fill="#FF9E74"/>
<path opacity="0.2" d="M150.406 120.137L146.626 118.155V142.615L150.406 144.597V120.137Z" fill="white"/>
<path opacity="0.2" d="M176.866 122.645L180.646 124.627V108.156L176.866 110.157V122.645Z" fill="white"/>
<path opacity="0.3" d="M154.148 138.59V134.614L176.866 122.646L180.646 124.627L154.148 138.59Z" fill="white"/>
<path d="M185.426 96.4988C185.303 96.2056 185.073 95.9601 184.775 95.8036L182.482 94.6052C181.911 94.3034 181.263 94.1445 180.604 94.1445C179.945 94.1445 179.297 94.3034 178.727 94.6052L145.127 112.823C144.828 112.981 144.599 113.23 144.48 113.526C144.031 114.423 143.802 115.4 143.809 116.386C143.816 117.373 144.06 118.346 144.522 119.238C144.664 119.484 144.876 119.691 145.135 119.837L147.428 121.032C147.999 121.333 148.647 121.492 149.306 121.492C149.965 121.492 150.613 121.333 151.183 121.032L184.783 102.81C185.047 102.671 185.258 102.462 185.388 102.21C185.849 101.319 186.091 100.345 186.098 99.3585C186.105 98.3718 185.875 97.3958 185.426 96.4988Z" fill="#455A64"/>
<path opacity="0.3" d="M151.166 116.384L184.766 98.162C185.074 97.9984 185.308 97.7402 185.426 97.4334C185.545 97.1266 185.54 96.7912 185.413 96.4873C185.862 97.3851 186.092 98.3619 186.084 99.3493C186.077 100.337 185.834 101.311 185.371 102.203C185.241 102.454 185.03 102.664 184.766 102.802L151.166 121.024C150.565 121.339 149.881 121.497 149.188 121.481V116.853C149.882 116.865 150.567 116.703 151.166 116.384Z" fill="black"/>
<path opacity="0.2" d="M144.48 113.534C144.354 113.838 144.35 114.173 144.469 114.479C144.588 114.785 144.823 115.043 145.131 115.205L147.42 116.384C147.962 116.669 148.572 116.824 149.197 116.837V121.493C148.572 121.48 147.962 121.324 147.42 121.04L145.118 119.841C144.859 119.695 144.647 119.488 144.505 119.242C144.046 118.35 143.806 117.377 143.802 116.391C143.797 115.405 144.029 114.43 144.48 113.534Z" fill="black"/>
<path d="M97.4568 101.304L102.304 109.408L99.3762 107.86L99.3552 113.852L95.487 111.805L95.5038 105.817L92.5764 104.273L97.4568 101.304Z" fill="#FF9E74"/>
<path d="M99.3804 114.69L99.372 116.979L95.4996 114.936L95.508 112.646L99.3804 114.69Z" fill="#FF9E74"/>
<path d="M99.3804 117.901L99.372 119.045L95.4996 117.002L95.508 115.854L99.3804 117.901Z" fill="#FF9E74"/>
<path d="M99.3804 119.814L99.372 120.505L95.4996 118.458L95.508 117.767L99.3804 119.814Z" fill="#FF9E74"/>
<path d="M170.583 80.8311L175.426 88.9357L172.498 87.3916L172.481 93.3798L168.609 91.3364L168.63 85.3481L165.703 83.804L170.583 80.8311Z" fill="#FF9E74"/>
<path d="M172.502 94.2173L172.494 96.5104L168.626 94.4669L168.63 92.1738L172.502 94.2173Z" fill="#FF9E74"/>
<path d="M172.502 97.4282L172.494 98.5729L168.626 96.5294L168.63 95.3848L172.502 97.4282Z" fill="#FF9E74"/>
<path d="M172.502 99.3413L172.494 100.033L168.626 97.9892L168.63 97.2979L172.502 99.3413Z" fill="#FF9E74"/>
<path d="M120.137 56.8936L124.984 64.9982L122.056 63.4541L122.035 69.4423L118.167 67.3989L118.184 61.4106L115.256 59.8627L120.137 56.8936Z" fill="#FF9E74"/>
<path d="M122.06 70.2798L122.052 72.569L118.18 70.5256L118.188 68.2363L122.06 70.2798Z" fill="#FF9E74"/>
<path d="M122.06 73.4907L122.052 74.6353L118.18 72.5919L118.188 71.4473L122.06 73.4907Z" fill="#FF9E74"/>
<path d="M122.06 75.4038L122.052 76.0952L118.18 74.0517L118.188 73.3604L122.06 75.4038Z" fill="#FF9E74"/>
</svg>
