<svg width="241" height="48" viewBox="0 0 241 48" fill="none" xmlns="http://www.w3.org/2000/svg">
<g clip-path="url(#clip0_1255_336818)">
<path d="M48 0H0V48H48V0Z" fill="#0B1015"/>
<path d="M33.0128 15.2048H29.9096C29.4344 12.8744 27.384 11.2 25.0048 11.2008H23.0032C20.624 11.2 18.5736 12.8744 18.0984 15.2048H14.9952C12.2304 15.2048 9.98961 17.4456 9.98961 20.2096V26.216C9.98241 27.3 10.3344 28.356 10.9912 29.2192H11.024V32.3864C11.024 35.3728 13.4456 37.7944 16.432 37.7944H31.5752C33.0072 37.7944 34.308 37.2368 35.2752 36.328H35.2768V36.3272C36.3264 35.34 36.9832 33.94 36.9832 32.3864V29.2192H37.0168C37.6736 28.356 38.0256 27.3 38.0184 26.216V20.2096C38.0184 17.4456 35.7776 15.2048 33.0128 15.2048ZM23.0032 13.2024H25.0048C26.2744 13.2064 27.4048 14.008 27.828 15.2048H20.18C20.6032 14.008 21.7336 13.2064 23.0032 13.2024Z" fill="white"/>
<path d="M37.7592 20.9176C36.8008 20.5992 35.7456 20.7888 34.9576 21.4192L33.3848 22.6768L26.668 21.7312C26.44 21.6992 26.2048 21.7568 26.0184 21.8984L25.0312 22.6352L30.632 24.8808L28.8176 26.3312L26.1992 26.2472C25.984 26.2408 25.7744 26.308 25.604 26.44L25.192 26.7584L25.5848 26.9832L27.9168 28.276C30.236 27.2208 32.7384 25.7408 35.3928 23.7016L37.9081 21.7944C38.2297 21.5496 38.1465 21.0448 37.7633 20.916L37.7592 20.9176Z" fill="#0B1015"/>
<path d="M30.6688 29.5544L31.5856 29.3744C31.8208 29.3296 32.02 29.1848 32.1424 28.9784L34.2104 25.44C33.2616 26.1216 32.332 26.7328 31.4248 27.28L30.672 29.5544H30.6688Z" fill="#0B1015"/>
<path d="M10.252 28.908C10.252 28.908 16.7368 32.9544 27.0144 28.6696L26.0104 28.0008C24.0416 29.0688 17.9008 31.7648 10.2512 28.9112V28.908H10.252Z" fill="#0B1015"/>
</g>
<path d="M67.0105 35.3836C61.7162 35.3836 57.9949 32.5831 56.3836 27.3656L61.0641 23.6442C61.6395 27.3272 63.4043 30.0894 66.9338 30.0894C69.7727 30.0894 71.1154 28.8234 71.1154 24.6801V9.29608H76.6015V25.3706C76.6015 32.5831 73.072 35.3836 67.0105 35.3836ZM88.7998 35.3836C83.0835 35.3836 79.4006 31.3554 79.4006 25.6008C79.4006 19.8846 83.0835 15.818 88.7998 15.818C94.6695 15.818 98.3908 19.8846 98.3908 25.6008C98.3908 31.3554 94.6695 35.3836 88.7998 35.3836ZM88.8765 30.9334C91.2167 30.9334 92.828 29.4372 92.828 25.6008C92.828 21.726 91.2167 20.2682 88.8765 20.2682C86.5747 20.2682 84.9634 21.726 84.9634 25.6008C84.9634 29.4372 86.5747 30.9334 88.8765 30.9334ZM106.976 35H101.49V9.29608H106.976V21.5726C107.513 18.5418 109.048 15.818 112.961 15.818C117.334 15.818 120.212 19.3858 120.212 25.6008C120.212 31.8541 117.334 35.422 112.731 35.422C108.817 35.422 107.475 32.7365 106.976 29.7058V35ZM106.976 26.6366C106.976 29.7058 108.242 31.1252 110.544 31.1252C113.037 31.1252 114.61 29.207 114.61 25.6008C114.61 22.0329 113.037 20.0764 110.544 20.0764C108.242 20.0764 106.976 21.5342 106.976 24.6033V26.6366ZM128.822 35H123.336V9.29608H135.267C140.83 9.29608 144.896 11.8665 144.896 17.3142C144.896 21.8795 141.789 24.2197 137.607 24.7184C139.64 25.2555 140.714 26.5215 141.827 28.3247L145.894 35H139.564L135.228 27.7108C134.231 25.9844 133.08 25.3706 130.817 25.3706H128.822V35ZM135.075 14.1683H128.822V20.9588H135.075C137.453 20.9588 139.142 19.9997 139.142 17.5827C139.142 15.0891 137.453 14.1683 135.075 14.1683ZM155.862 35.3836C150.146 35.3836 146.463 31.3554 146.463 25.6008C146.463 19.8846 150.146 15.818 155.862 15.818C161.732 15.818 165.453 19.8846 165.453 25.6008C165.453 31.3554 161.732 35.3836 155.862 35.3836ZM155.939 30.9334C158.279 30.9334 159.89 29.4372 159.89 25.6008C159.89 21.726 158.279 20.2682 155.939 20.2682C153.637 20.2682 152.026 21.726 152.026 25.6008C152.026 29.4372 153.637 30.9334 155.939 30.9334ZM174.155 35.3836C170.587 35.3836 168.362 33.1969 168.362 29.3221V16.2016H173.848V27.4039C173.848 29.7058 174.462 31.1252 176.994 31.1252C179.603 31.1252 180.408 29.6674 180.408 26.5983V16.2016H185.894V35H180.408V29.7441C179.756 32.7365 177.953 35.3836 174.155 35.3836ZM196.75 35.3836C192.607 35.3836 190.65 32.9283 190.65 29.4372V20.3833H187.85V16.2016H190.65V13.9765L196.136 11.0992V16.2016H201.354V20.3833H196.136V28.4397C196.136 29.9743 196.904 30.5114 197.978 30.5114C199.167 30.5114 200.203 29.5523 200.778 28.5165L202.351 33.0051C201.546 34.0409 199.628 35.3836 196.75 35.3836ZM212.479 35.3836C206.495 35.3836 202.85 31.3938 202.85 25.6008C202.85 19.8078 206.495 15.818 212.019 15.818C218.004 15.818 220.996 19.8078 220.996 24.7184C220.996 25.5241 220.92 26.5983 220.804 27.0203H207.991C208.336 29.6674 210.101 30.9334 212.556 30.9334C215.203 30.9334 216.623 29.7825 217.313 28.1712L220.651 31.5089C219.232 33.5422 216.7 35.3836 212.479 35.3836ZM212.057 20.038C209.717 20.038 208.259 21.3424 207.991 23.8744H216.047C215.856 21.3808 214.513 20.038 212.057 20.038ZM232.139 35.3836C227.957 35.3836 224.236 33.8491 222.624 31.5856L225.156 27.8643C226.729 29.5523 229.453 31.202 232.292 31.202C233.788 31.202 234.671 30.7416 234.671 29.7441C234.671 28.7467 233.597 28.363 231.602 27.8643L229.07 27.2505C225.694 26.3681 223.238 25.0253 223.238 21.726C223.238 18.0431 226.231 15.8563 230.834 15.8563C234.901 15.8563 237.855 17.6211 239.159 19.2707L236.704 22.9537C234.863 21.0355 232.561 19.9997 230.374 19.9997C229.031 19.9997 228.226 20.4984 228.226 21.4191C228.226 22.4166 229.031 22.8002 231.525 23.4908L233.635 24.0662C237.778 25.1788 239.581 26.7901 239.581 29.6674C239.581 33.312 236.512 35.3836 232.139 35.3836Z" fill="#0B1015"/>
<defs>
<clipPath id="clip0_1255_336818">
<rect width="48" height="48" rx="12" fill="white"/>
</clipPath>
</defs>
</svg>
