<svg width="56" height="56" viewBox="0 0 56 56" fill="none" xmlns="http://www.w3.org/2000/svg">
<g clip-path="url(#clip0_1222_157765)">
<path d="M56 0H0V56H56V0Z" fill="#0B1015"/>
<path d="M38.5149 17.7389H34.8945C34.3401 15.0201 31.948 13.0667 29.1723 13.0676H26.8371C24.0613 13.0667 21.6692 15.0201 21.1148 17.7389H17.4944C14.2688 17.7389 11.6545 20.3532 11.6545 23.5779V30.5853C11.6461 31.85 12.0568 33.082 12.8231 34.0891H12.8613V37.7841C12.8613 41.2683 15.6865 44.0935 19.1707 44.0935H36.8377C38.5084 44.0935 40.026 43.4429 41.1544 42.3827H41.1563V42.3817C42.3808 41.23 43.1471 39.5967 43.1471 37.7841V34.0891H43.1863C43.9525 33.082 44.3632 31.85 44.3548 30.5853V23.5779C44.3548 20.3532 41.7405 17.7389 38.5149 17.7389ZM26.8371 15.4028H29.1723C30.6535 15.4075 31.9723 16.3427 32.466 17.7389H23.5433C24.0371 16.3427 25.3559 15.4075 26.8371 15.4028Z" fill="white"/>
<path d="M44.0523 24.4039C42.9342 24.0324 41.7031 24.2536 40.7838 24.9891L38.9489 26.4563L31.1126 25.3531C30.8466 25.3157 30.5722 25.3829 30.3547 25.5481L29.203 26.4077L35.7373 29.0276L33.6205 30.7197L30.5657 30.6217C30.3146 30.6143 30.0701 30.6927 29.8713 30.8467L29.3906 31.2181L29.8489 31.4804L32.5695 32.9887C35.2753 31.7576 38.1947 30.0309 41.2915 27.6519L44.2259 25.4268C44.6011 25.1412 44.5041 24.5523 44.057 24.402L44.0523 24.4039Z" fill="#0B1015"/>
<path d="M35.7803 34.4801L36.8499 34.2701C37.1243 34.2179 37.3567 34.0489 37.4995 33.8081L39.9121 29.68C38.8052 30.4752 37.7207 31.1883 36.6623 31.8267L35.784 34.4801H35.7803Z" fill="#0B1015"/>
<path d="M11.9606 33.726C11.9606 33.726 19.5262 38.4468 31.5168 33.4479L30.3455 32.6676C28.0485 33.9136 20.8843 37.0589 11.9597 33.7297V33.726H11.9606Z" fill="#0B1015"/>
</g>
<defs>
<clipPath id="clip0_1222_157765">
<rect width="56" height="56" rx="12" fill="white"/>
</clipPath>
</defs>
</svg>
