<svg width="248" height="56" viewBox="0 0 248 56" fill="none" xmlns="http://www.w3.org/2000/svg">
<g filter="url(#filter0_d_1255_336791)">
<g clip-path="url(#clip0_1255_336791)">
<path d="M52 0H4V48H52V0Z" fill="white"/>
<path d="M37.0128 15.2047H33.9096C33.4344 12.8743 31.384 11.1999 29.0048 11.2007H27.0032C24.624 11.1999 22.5736 12.8743 22.0984 15.2047H18.9952C16.2304 15.2047 13.9896 17.4455 13.9896 20.2095V26.2159C13.9824 27.2999 14.3344 28.3559 14.9912 29.2191H15.024V32.3863C15.024 35.3727 17.4456 37.7943 20.432 37.7943H35.5752C37.0072 37.7943 38.308 37.2367 39.2752 36.3279H39.2768V36.3271C40.3264 35.3399 40.9832 33.9399 40.9832 32.3863V29.2191H41.0168C41.6736 28.3559 42.0256 27.2999 42.0184 26.2159V20.2095C42.0184 17.4455 39.7776 15.2047 37.0128 15.2047ZM27.0032 13.2023H29.0048C30.2744 13.2063 31.4048 14.0079 31.828 15.2047H24.18C24.6032 14.0079 25.7336 13.2063 27.0032 13.2023Z" fill="#0B1015"/>
<path d="M41.7592 20.9174C40.8008 20.599 39.7456 20.7886 38.9576 21.419L37.3848 22.6766L30.668 21.731C30.44 21.699 30.2048 21.7566 30.0184 21.8982L29.0312 22.635L34.632 24.8806L32.8176 26.331L30.1992 26.247C29.984 26.2406 29.7744 26.3078 29.604 26.4398L29.192 26.7582L29.5848 26.983L31.9168 28.2758C34.236 27.2206 36.7384 25.7406 39.3928 23.7014L41.9081 21.7942C42.2297 21.5494 42.1465 21.0446 41.7633 20.9158L41.7592 20.9174Z" fill="white"/>
<path d="M34.6688 29.5543L35.5856 29.3743C35.8208 29.3295 36.02 29.1847 36.1424 28.9783L38.2104 25.4399C37.2616 26.1215 36.332 26.7327 35.4248 27.2799L34.672 29.5543H34.6688Z" fill="white"/>
<path d="M14.252 28.9077C14.252 28.9077 20.7368 32.9541 31.0144 28.6693L30.0104 28.0005C28.0416 29.0685 21.9008 31.7645 14.2512 28.9109V28.9077H14.252Z" fill="white"/>
</g>
<path d="M71.0105 35.3836C65.7162 35.3836 61.9949 32.5831 60.3836 27.3656L65.0641 23.6442C65.6395 27.3272 67.4043 30.0894 70.9338 30.0894C73.7727 30.0894 75.1154 28.8234 75.1154 24.6801V9.29608H80.6015V25.3706C80.6015 32.5831 77.072 35.3836 71.0105 35.3836ZM92.7998 35.3836C87.0835 35.3836 83.4006 31.3554 83.4006 25.6008C83.4006 19.8846 87.0835 15.818 92.7998 15.818C98.6695 15.818 102.391 19.8846 102.391 25.6008C102.391 31.3554 98.6695 35.3836 92.7998 35.3836ZM92.8765 30.9334C95.2167 30.9334 96.828 29.4372 96.828 25.6008C96.828 21.726 95.2167 20.2682 92.8765 20.2682C90.5747 20.2682 88.9634 21.726 88.9634 25.6008C88.9634 29.4372 90.5747 30.9334 92.8765 30.9334ZM110.976 35H105.49V9.29608H110.976V21.5726C111.513 18.5418 113.048 15.818 116.961 15.818C121.334 15.818 124.212 19.3858 124.212 25.6008C124.212 31.8541 121.334 35.422 116.731 35.422C112.817 35.422 111.475 32.7365 110.976 29.7058V35ZM110.976 26.6366C110.976 29.7058 112.242 31.1252 114.544 31.1252C117.037 31.1252 118.61 29.207 118.61 25.6008C118.61 22.0329 117.037 20.0764 114.544 20.0764C112.242 20.0764 110.976 21.5342 110.976 24.6033V26.6366ZM132.822 35H127.336V9.29608H139.267C144.83 9.29608 148.896 11.8665 148.896 17.3142C148.896 21.8795 145.789 24.2197 141.607 24.7184C143.64 25.2555 144.714 26.5215 145.827 28.3247L149.894 35H143.564L139.228 27.7108C138.231 25.9844 137.08 25.3706 134.817 25.3706H132.822V35ZM139.075 14.1683H132.822V20.9588H139.075C141.453 20.9588 143.142 19.9997 143.142 17.5827C143.142 15.0891 141.453 14.1683 139.075 14.1683ZM159.862 35.3836C154.146 35.3836 150.463 31.3554 150.463 25.6008C150.463 19.8846 154.146 15.818 159.862 15.818C165.732 15.818 169.453 19.8846 169.453 25.6008C169.453 31.3554 165.732 35.3836 159.862 35.3836ZM159.939 30.9334C162.279 30.9334 163.89 29.4372 163.89 25.6008C163.89 21.726 162.279 20.2682 159.939 20.2682C157.637 20.2682 156.026 21.726 156.026 25.6008C156.026 29.4372 157.637 30.9334 159.939 30.9334ZM178.155 35.3836C174.587 35.3836 172.362 33.1969 172.362 29.3221V16.2016H177.848V27.4039C177.848 29.7058 178.462 31.1252 180.994 31.1252C183.603 31.1252 184.408 29.6674 184.408 26.5983V16.2016H189.894V35H184.408V29.7441C183.756 32.7365 181.953 35.3836 178.155 35.3836ZM200.75 35.3836C196.607 35.3836 194.65 32.9283 194.65 29.4372V20.3833H191.85V16.2016H194.65V13.9765L200.136 11.0992V16.2016H205.354V20.3833H200.136V28.4397C200.136 29.9743 200.904 30.5114 201.978 30.5114C203.167 30.5114 204.203 29.5523 204.778 28.5165L206.351 33.0051C205.546 34.0409 203.628 35.3836 200.75 35.3836ZM216.479 35.3836C210.495 35.3836 206.85 31.3938 206.85 25.6008C206.85 19.8078 210.495 15.818 216.019 15.818C222.004 15.818 224.996 19.8078 224.996 24.7184C224.996 25.5241 224.92 26.5983 224.804 27.0203H211.991C212.336 29.6674 214.101 30.9334 216.556 30.9334C219.203 30.9334 220.623 29.7825 221.313 28.1712L224.651 31.5089C223.232 33.5422 220.7 35.3836 216.479 35.3836ZM216.057 20.038C213.717 20.038 212.259 21.3424 211.991 23.8744H220.047C219.856 21.3808 218.513 20.038 216.057 20.038ZM236.139 35.3836C231.957 35.3836 228.236 33.8491 226.624 31.5856L229.156 27.8643C230.729 29.5523 233.453 31.202 236.292 31.202C237.788 31.202 238.671 30.7416 238.671 29.7441C238.671 28.7467 237.597 28.363 235.602 27.8643L233.07 27.2505C229.694 26.3681 227.238 25.0253 227.238 21.726C227.238 18.0431 230.231 15.8563 234.834 15.8563C238.901 15.8563 241.855 17.6211 243.159 19.2707L240.704 22.9537C238.863 21.0355 236.561 19.9997 234.374 19.9997C233.031 19.9997 232.226 20.4984 232.226 21.4191C232.226 22.4166 233.031 22.8002 235.525 23.4908L237.635 24.0662C241.778 25.1788 243.581 26.7901 243.581 29.6674C243.581 33.312 240.512 35.3836 236.139 35.3836Z" fill="white"/>
</g>
<defs>
<filter id="filter0_d_1255_336791" x="0" y="0" width="249" height="56" filterUnits="userSpaceOnUse" color-interpolation-filters="sRGB">
<feFlood flood-opacity="0" result="BackgroundImageFix"/>
<feColorMatrix in="SourceAlpha" type="matrix" values="0 0 0 0 0 0 0 0 0 0 0 0 0 0 0 0 0 0 127 0" result="hardAlpha"/>
<feOffset dy="4"/>
<feGaussianBlur stdDeviation="2"/>
<feComposite in2="hardAlpha" operator="out"/>
<feColorMatrix type="matrix" values="0 0 0 0 0 0 0 0 0 0 0 0 0 0 0 0 0 0 0.25 0"/>
<feBlend mode="normal" in2="BackgroundImageFix" result="effect1_dropShadow_1255_336791"/>
<feBlend mode="normal" in="SourceGraphic" in2="effect1_dropShadow_1255_336791" result="shape"/>
</filter>
<clipPath id="clip0_1255_336791">
<rect x="4" width="48" height="48" rx="12" fill="white"/>
</clipPath>
</defs>
</svg>
