<svg width="56" height="56" viewBox="0 0 56 56" fill="none" xmlns="http://www.w3.org/2000/svg">
<rect width="56" height="56" rx="16" fill="#0B1015"/>
<path d="M11.6155 32.14C9.68346 32.14 8.32546 31.118 7.73746 29.214L9.44546 27.856C9.65546 29.2 10.2995 30.208 11.5875 30.208C12.6235 30.208 13.1135 29.746 13.1135 28.234V22.62H15.1155V28.486C15.1155 31.118 13.8275 32.14 11.6155 32.14ZM20.9669 32.14C18.8809 32.14 17.5369 30.67 17.5369 28.57C17.5369 26.484 18.8809 25 20.9669 25C23.1089 25 24.4669 26.484 24.4669 28.57C24.4669 30.67 23.1089 32.14 20.9669 32.14ZM20.9949 30.516C21.8489 30.516 22.4369 29.97 22.4369 28.57C22.4369 27.156 21.8489 26.624 20.9949 26.624C20.1549 26.624 19.5669 27.156 19.5669 28.57C19.5669 29.97 20.1549 30.516 20.9949 30.516ZM28.9999 32H26.9979V22.62H28.9999V27.1C29.1959 25.994 29.7559 25 31.1839 25C32.7799 25 33.8299 26.302 33.8299 28.57C33.8299 30.852 32.7799 32.154 31.0999 32.154C29.6719 32.154 29.1819 31.174 28.9999 30.068V32ZM28.9999 28.948C28.9999 30.068 29.4619 30.586 30.3019 30.586C31.2119 30.586 31.7859 29.886 31.7859 28.57C31.7859 27.268 31.2119 26.554 30.3019 26.554C29.4619 26.554 28.9999 27.086 28.9999 28.206V28.948ZM38.3719 32H36.3699V22.62H38.3719V32ZM43.3389 32H41.3369V25.14H43.3389V27.128C43.5629 26.008 44.2209 25 45.6349 25C46.9369 25 47.7349 25.798 47.7349 27.212V32H45.7329V27.912C45.7329 27.072 45.5089 26.554 44.5989 26.554C43.6469 26.554 43.3389 27.086 43.3389 28.206V32Z" fill="white"/>
</svg>
